<svg width="100" height="100" viewBox="0 0 100 100" fill="none" xmlns="http://www.w3.org/2000/svg">
<path d="M79.0183 28.6212L60.4579 47.1633C59.6744 47.9461 59.6762 49.2166 60.462 49.9971L62.6179 52.1385C63.0799 52.5974 63.3109 53.1519 63.3109 53.8019C63.3109 54.452 63.0799 55.0065 62.6179 55.4654C62.1559 55.9242 61.5977 56.1537 60.9432 56.1537H58.7678C58.2379 56.1537 57.7297 55.9434 57.3547 55.569L47.2664 45.4972C46.8907 45.1221 46.6795 44.6129 46.6795 44.0819V41.9286C46.6795 41.2403 46.9105 40.6667 47.3725 40.2078C47.8345 39.7489 48.3734 39.5195 48.9894 39.5195C49.6439 39.5195 50.2021 39.7489 50.6641 40.2078L52.8928 42.4566C53.6709 43.2418 54.9385 43.2468 55.7228 42.4678L74.283 24.0325C74.9374 23.3442 75.7267 23 76.6506 23C77.5746 23 78.3638 23.3442 79.0183 24.0325C79.6728 24.6443 80 25.4091 80 26.3268C80 27.2446 79.6728 28.0094 79.0183 28.6212ZM54.9918 59.0756C55.3294 59.411 55.541 59.8561 55.5606 60.3316C55.7395 64.6803 54.2614 68.4118 51.1261 71.526C48.0847 74.5087 44.4851 76 40.3272 76H22.3099C21.6939 76 21.155 75.7706 20.693 75.3117C20.231 74.8528 20 74.3175 20 73.7056C20 73.0173 20.2502 72.4437 20.7507 71.9848L33.9172 60.1688C34.1097 60.0159 34.129 59.8247 33.975 59.5952C33.8576 59.4203 33.7066 59.3343 33.522 59.3372C33.399 59.3391 33.2843 59.3933 33.1741 59.4481L28.0269 62.0043C27.719 62.1573 27.411 62.1382 27.103 61.947C26.795 61.7558 26.641 61.5072 26.641 61.2013C26.641 57.8362 27.8537 54.93 30.2791 52.4827L31.1453 51.6797C34.3587 48.4879 38.1261 47.0163 42.4477 47.2646C42.9068 47.291 43.335 47.4973 43.6612 47.8213L54.9918 59.0756Z" fill="black" fill-opacity="0.6"/>
</svg>
