<svg width="100" height="100" viewBox="0 0 100 100" fill="none" xmlns="http://www.w3.org/2000/svg">
<path d="M28.2262 73.5332H53.6122C54.1568 73.4913 54.5966 73.3028 54.9318 72.9677C55.2669 72.6326 55.4345 72.2136 55.4345 71.7109V67.2181C55.4345 66.5359 55.4345 66.1947 55.5168 65.9167C55.7092 65.2673 56.2171 64.7595 56.8664 64.5671C57.1445 64.4847 57.4856 64.4847 58.1679 64.4847V64.4847C58.8501 64.4847 59.1913 64.4847 59.4693 64.5671C60.1187 64.7595 60.6265 65.2673 60.8189 65.9167C60.9013 66.1947 60.9013 66.5359 60.9013 67.2181V71.7109C60.9013 73.7217 60.1891 75.4393 58.7648 76.8636C57.3405 78.2878 55.623 79 53.6122 79H28.2262C26.2573 79 24.5607 78.2878 23.1364 76.8636C21.7121 75.4393 21 73.7217 21 71.7109V46.3878C21 44.377 21.7121 42.6595 23.1364 41.2352C24.5607 39.8109 26.2573 39.0987 28.2262 39.0987H32.7819C33.4641 39.0987 33.8053 39.0987 34.0833 39.1811C34.7327 39.3735 35.2405 39.8813 35.4329 40.5307C35.5153 40.8087 35.5153 41.1499 35.5153 41.8321V41.8321C35.5153 42.5144 35.5153 42.8555 35.4329 43.1336C35.2405 43.7829 34.7327 44.2908 34.0833 44.4832C33.8053 44.5655 33.4641 44.5655 32.7819 44.5655H28.2262C27.7235 44.5655 27.3046 44.7331 26.9695 45.0682C26.6344 45.4033 26.4668 45.8432 26.4668 46.3878V71.7109C26.4668 72.2136 26.6344 72.6326 26.9695 72.9677C27.3046 73.3028 27.7235 73.4913 28.2262 73.5332ZM46.386 55.4363H71.772C72.2747 55.3944 72.6936 55.2059 73.0287 54.8707C73.3639 54.5356 73.5524 54.1167 73.5943 53.614V28.228C73.5524 27.7253 73.3639 27.3064 73.0287 26.9713C72.6936 26.6361 72.2747 26.4476 71.772 26.4057H46.386C45.8833 26.4476 45.4644 26.6361 45.1293 26.9713C44.7941 27.3064 44.6056 27.7253 44.5637 28.228V53.614C44.6056 54.1167 44.7941 54.5356 45.1293 54.8707C45.4644 55.2059 45.8833 55.3944 46.386 55.4363ZM39.0969 53.614V28.228C39.0969 26.2172 39.8091 24.4997 41.2334 23.0754C42.6577 21.6511 44.3752 20.9599 46.386 21.0018H71.772C73.7828 20.9599 75.5003 21.6511 76.9246 23.0754C78.3489 24.4997 79.0401 26.2172 78.9982 28.228V53.614C79.0401 55.6248 78.3489 57.3423 76.9246 58.7666C75.5003 60.1909 73.7828 60.8821 71.772 60.8402H46.386C44.3752 60.8821 42.6577 60.1909 41.2334 58.7666C39.8091 57.3423 39.0969 55.6248 39.0969 53.614Z" fill="black" fill-opacity="0.6"/>
<path d="M32.7822 38.5986C33.4288 38.5986 33.8605 38.594 34.2256 38.7021C35.0371 38.9427 35.6717 39.5771 35.9121 40.3887C36.0203 40.7538 36.0156 41.1854 36.0156 41.832C36.0156 42.4787 36.0202 42.9103 35.9121 43.2754C35.6717 44.087 35.0372 44.7224 34.2256 44.9629C33.8605 45.071 33.4288 45.0654 32.7822 45.0654H28.2266C27.8476 45.0654 27.5585 45.1867 27.3232 45.4219C27.096 45.6491 26.9668 45.9543 26.9668 46.3877V71.7109C26.9668 72.09 27.088 72.379 27.3232 72.6143C27.5658 72.8567 27.8666 72.998 28.252 73.0332H53.5908C54.0268 72.9966 54.3431 72.8492 54.5781 72.6143C54.8134 72.379 54.9346 72.09 54.9346 71.7109V67.2178C54.9346 66.5712 54.929 66.1395 55.0371 65.7744C55.2776 64.9628 55.913 64.3283 56.7246 64.0879C57.0897 63.9798 57.5213 63.9844 58.168 63.9844C58.8146 63.9844 59.2462 63.9797 59.6113 64.0879C60.4229 64.3283 61.0573 64.9629 61.2979 65.7744C61.406 66.1395 61.4014 66.5712 61.4014 67.2178V71.7109C61.4014 73.8546 60.636 75.6989 59.1182 77.2168C57.6003 78.7347 55.7559 79.5 53.6123 79.5H28.2266C26.1217 79.5 24.2988 78.7324 22.7832 77.2168C21.2653 75.6989 20.5 73.8546 20.5 71.7109V46.3877C20.5 44.2441 21.2653 42.3997 22.7832 40.8818C24.2988 39.3662 26.1217 38.5986 28.2266 38.5986H32.7822ZM71.7725 20.502V20.5029C73.915 20.4609 75.7604 21.2038 77.2783 22.7217C78.7962 24.2396 79.54 26.085 79.498 28.2275V53.6035C79.5428 55.7507 78.7987 57.5997 77.2783 59.1201C75.7604 60.638 73.915 61.3809 71.7725 61.3389V61.3398H46.3857V61.3389C44.2431 61.3809 42.3978 60.6381 40.8799 59.1201C39.3621 57.6023 38.5967 55.7578 38.5967 53.6143V28.2275C38.5968 26.0841 39.3621 24.2395 40.8799 22.7217C42.3978 21.2038 44.2431 20.4609 46.3857 20.5029V20.502H71.7725ZM46.4199 26.9053C46.0306 26.9392 45.7267 27.0809 45.4824 27.3252C45.2403 27.5675 45.0988 27.8681 45.0635 28.2529V53.5879C45.0986 53.9735 45.2398 54.2749 45.4824 54.5176C45.7251 54.7602 46.0265 54.9014 46.4121 54.9365H71.7461C72.1314 54.9014 72.4323 54.7599 72.6748 54.5176C72.9191 54.2733 73.0608 53.9694 73.0947 53.5801V28.2607C73.0606 27.8719 72.9188 27.5692 72.6748 27.3252C72.4306 27.081 72.1275 26.9393 71.7383 26.9053H46.4199Z" stroke="black" stroke-opacity="0.7"/>
</svg>
