<svg width="100" height="100" viewBox="0 0 100 100" fill="none" xmlns="http://www.w3.org/2000/svg">
<path d="M62.9412 23.8246L78.2353 38.8591C79.4118 40.0755 80 41.5109 80 43.1652C80 44.8195 79.4118 46.2791 78.2353 47.5442L50 75.4238C47.647 77.8079 44.7549 79 41.3235 79C37.8921 79 35 77.8079 32.647 75.4238L21.9118 64.7683C20.6373 63.5519 20 62.1165 20 60.4622C20 58.7593 20.6373 57.2996 21.9118 56.0832L54.4118 23.8246C55.5883 22.6082 57.0343 22 58.75 22C60.4657 22 61.8628 22.6082 62.9412 23.8246ZM29.0684 57.4872C27.7065 58.8195 27.0255 59.4857 27.0211 60.3208C27.0166 61.1558 27.6905 61.8292 29.0382 63.176L37.0588 71.1908C38.2353 72.3099 39.6568 72.8694 41.3235 72.8694C42.9902 72.8694 44.4608 72.3099 45.7353 71.1908L53.6749 63.1482C54.9934 61.8126 55.6526 61.1448 55.6495 60.3194C55.6463 59.494 54.9819 58.8314 53.6531 57.506L44.2681 48.145C42.9479 46.8282 42.2879 46.1699 41.4666 46.1659C40.6454 46.1619 39.979 46.8138 38.6461 48.1177L29.0684 57.4872Z" fill="white" fill-opacity="0.6"/>
</svg>
