<svg width="100" height="100" viewBox="0 0 100 100" fill="none" xmlns="http://www.w3.org/2000/svg">
<path d="M69.3333 21C74.6722 21 79 25.3279 79 30.6666V69.3334C79 74.6718 74.6722 79 69.3333 79H30.6667C25.3279 79 21 74.6718 21 69.3334V30.6666C21 25.3279 25.3279 21 30.6667 21H69.3333ZM36.5762 50.0471C35.6254 49.1802 34.1629 49.2082 33.2486 50.1132L27.0185 56.2837C26.4339 56.8628 26.1415 57.1524 25.9874 57.5218C25.8334 57.8913 25.8334 58.3028 25.8334 59.1257V69.3334C25.8334 72.0028 27.9973 74.1667 30.6667 74.1667H52.7075C57.0624 74.1667 59.2399 74.1667 59.7348 72.8892C60.2297 71.6117 58.6206 70.1447 55.4024 67.2107L36.5762 50.0471ZM30.6667 25.8333C27.9973 25.8333 25.8334 27.9973 25.8334 30.6666V45.0088C25.8334 45.7156 25.8334 46.0691 25.8767 46.2739C26.1667 47.6439 27.7387 48.2994 28.9161 47.5413C29.0921 47.428 29.3432 47.1792 29.8454 46.6818V46.6818C32.5881 43.9643 36.9799 43.873 39.8331 46.4741L68.6929 72.7839C69.4254 73.4517 69.7917 73.7856 70.4657 73.8442C71.1398 73.9029 71.4021 73.7364 71.9267 73.4034C73.2732 72.5485 74.1667 71.048 74.1667 69.3334V30.6666C74.1667 27.9973 72.0028 25.8333 69.3333 25.8333H30.6667ZM59.6668 30.6666C65.0056 30.6666 69.3333 34.9945 69.3333 40.3333C69.3333 45.672 65.0056 49.9999 59.6668 49.9999C54.328 49.9999 50.0001 45.672 50.0001 40.3333C50.0001 34.9945 54.328 30.6666 59.6668 30.6666ZM59.6668 35.5C56.9974 35.5 54.8335 37.6639 54.8335 40.3333C54.8335 43.0027 56.9974 45.1666 59.6668 45.1666C62.3362 45.1666 64.5001 43.0027 64.5001 40.3333C64.5001 37.6639 62.3362 35.5 59.6668 35.5Z" fill="black" fill-opacity="0.6"/>
<path d="M69.333 20.5C74.9481 20.5 79.5 25.0521 79.5 30.667V69.333C79.5 74.9475 74.9481 79.5 69.333 79.5H30.667C25.0521 79.5 20.5 74.9475 20.5 69.333V30.667C20.5 25.0521 25.0521 20.5 30.667 20.5H69.333ZM36.2393 50.417C35.4846 49.7289 34.3251 49.7516 33.6006 50.4688L27.3701 56.6387C26.7566 57.2463 26.5559 57.4585 26.4492 57.7139C26.3426 57.9695 26.333 58.262 26.333 59.126V69.333C26.333 71.7263 28.2737 73.667 30.667 73.667H52.708C54.9016 73.667 56.4919 73.6654 57.5996 73.5117C58.7338 73.3543 59.1299 73.0663 59.2686 72.709C59.407 72.3515 59.3085 71.8719 58.5762 70.9912C57.8611 70.1312 56.6868 69.0582 55.0654 67.5801L36.2393 50.417ZM30.667 26.333C28.2737 26.333 26.333 28.2738 26.333 30.667V45.0088C26.333 45.3651 26.3337 45.6224 26.3389 45.8164C26.3442 46.0152 26.3547 46.1154 26.3662 46.1699C26.5837 47.1974 27.7624 47.6897 28.6455 47.1211C28.6923 47.0909 28.7707 47.0271 28.916 46.8906C29.0575 46.7578 29.2401 46.5769 29.4932 46.3262C32.425 43.4213 37.12 43.324 40.1699 46.1045L69.0293 72.4141C69.7866 73.1045 70.0311 73.3041 70.5088 73.3457C70.795 73.3706 70.9545 73.3452 71.0859 73.2988C71.237 73.2456 71.3834 73.1559 71.6582 72.9814C72.8666 72.2143 73.667 70.8691 73.667 69.333V30.667C73.667 28.2738 71.7263 26.333 69.333 26.333H30.667ZM59.667 30.167C65.2817 30.1671 69.8329 34.7183 69.833 40.333C69.833 45.9478 65.2818 50.4999 59.667 50.5C54.0521 50.5 49.5 45.9479 49.5 40.333C49.5001 34.7182 54.0522 30.167 59.667 30.167ZM59.667 36C57.2738 36 55.3332 37.9399 55.333 40.333C55.333 42.7263 57.2737 44.667 59.667 44.667C62.0601 44.6669 64 42.7262 64 40.333C63.9999 37.94 62.06 36.0001 59.667 36Z" stroke="black" stroke-opacity="0.7"/>
</svg>
