<svg width="100" height="100" viewBox="0 0 100 100" fill="none" xmlns="http://www.w3.org/2000/svg">
<path d="M63.6945 23.1971C65.5642 21.0667 67.912 20.0015 70.7378 20.0015C73.3029 19.958 75.4986 20.8493 77.3246 22.6754C79.1507 24.5014 80.0421 26.697 79.9985 29.2622C79.9985 32.0882 78.9334 34.436 76.8029 36.3055L53.7986 56.3494C53.0547 56.9976 51.936 56.9592 51.2383 56.2615L43.7385 48.7617C43.0409 48.064 43.0024 46.9453 43.6506 46.2014L63.6945 23.1971ZM38.743 50.449C39.4162 50.2919 40.1228 50.4937 40.6117 50.9825L41.0647 51.4355L48.5645 58.9353L49.0175 59.3884C49.5063 59.8772 49.7081 60.5838 49.551 61.257L47.521 69.9568C47.3037 70.9566 46.8472 71.848 46.1515 72.6306C45.4559 73.4132 44.5863 73.9133 43.5429 74.1306L30.0411 77.928C28.0587 78.4855 26.6292 76.0446 28.0854 74.5884L33.1922 69.4817C33.6287 69.0451 34.2518 68.9133 34.8692 68.9133C35.9126 68.9133 36.8039 68.5436 37.543 67.8046C38.2821 67.0657 38.6517 66.1743 38.6517 65.1308C38.6517 64.0873 38.2821 63.1959 37.543 62.457C36.8039 61.718 35.9126 61.3483 34.8692 61.3483C33.8257 61.3483 32.9344 61.718 32.1953 62.457C31.4562 63.1959 31.0867 64.0873 31.0867 65.1308C31.0867 65.7482 30.9549 66.3713 30.5183 66.8078L25.4116 71.9146C23.9554 73.3708 21.5145 71.9413 22.072 69.9589L25.8694 56.4571C26.0868 55.4137 26.5868 54.5442 27.3694 53.8485C28.152 53.1529 29.0433 52.6964 30.0432 52.479L38.743 50.449Z" fill="black" fill-opacity="0.6"/>
</svg>
