<svg width="100" height="100" viewBox="0 0 100 100" fill="none" xmlns="http://www.w3.org/2000/svg">
<path d="M62.3172 20C58.1578 20 54.4505 21.7273 51.1953 25.1818C48.565 27.9733 46.9973 30.7648 46.4925 33.5563C46.2959 34.6432 47.208 35.5454 48.3126 35.5454H61.6057C62.7103 35.5454 63.6057 36.4409 63.6057 37.5454V50.8636C63.6057 51.9681 64.5088 52.8808 65.5933 52.6715C68.3295 52.1432 71.0804 50.5254 73.846 47.8181C77.282 44.4545 79 40.6818 79 36.5C79 32.0454 77.3272 28.1818 73.9816 24.9091C70.636 21.6364 66.7479 20 62.3172 20ZM57.0275 44.7727C57.0275 43.6681 56.1321 42.7727 55.0275 42.7727H22C20.8954 42.7727 20 43.6681 20 44.7727V78C20 79.1046 20.8954 80 22 80H55.0275C56.1321 80 57.0275 79.1046 57.0275 78V44.7727Z" fill="black" fill-opacity="0.6"/>
</svg>
