<svg width="100" height="100" viewBox="0 0 100 100" fill="none" xmlns="http://www.w3.org/2000/svg">
<path d="M73.336 20H69.672C68.5674 20 67.672 20.8954 67.672 22V23.7534C67.672 24.858 68.5674 25.7534 69.672 25.7534H71.336C72.4406 25.7534 73.336 26.6489 73.336 27.7534V29.5069C73.336 30.6114 74.2314 31.5069 75.336 31.5069H77C78.1046 31.5069 79 30.6114 79 29.5069V25.7534C79 24.2009 78.4606 22.8539 77.3817 21.7123C76.2579 20.5708 74.9093 20 73.336 20ZM42.3863 20C40.9029 20 39.6217 20.5708 38.5429 21.7123C37.419 22.8539 36.8571 24.2009 36.8571 25.7534V29.5069C36.8571 30.6114 37.7526 31.5069 38.8571 31.5069H40.3863C41.4909 31.5069 42.3863 30.6114 42.3863 29.5069V27.7534C42.3863 26.6489 43.2817 25.7534 44.3863 25.7534H46.0503C47.1549 25.7534 48.0503 24.858 48.0503 23.7534V22C48.0503 20.8954 47.1549 20 46.0503 20H42.3863ZM25.5291 37.1233C24.0457 37.1233 22.7646 37.6941 21.6857 38.8356C20.5619 39.9772 20 41.3242 20 42.8767V46.6301C20 47.7347 20.8954 48.6301 22 48.6301H23.5291C24.6337 48.6301 25.5291 47.7347 25.5291 46.6301V44.8767C25.5291 43.7721 26.4246 42.8767 27.5291 42.8767H29.1931C30.2977 42.8767 31.1931 41.9813 31.1931 40.8767V39.1233C31.1931 38.0187 30.2977 37.1233 29.1931 37.1233H25.5291ZM20 74.3836C20 75.8447 20.5619 77.1461 21.6857 78.2877C22.7646 79.4292 24.0457 80 25.5291 80H29.1931C30.2977 80 31.1931 79.1046 31.1931 78V76.3836C31.1931 75.279 30.2977 74.3836 29.1931 74.3836H27.5291C26.4246 74.3836 25.5291 73.4881 25.5291 72.3836V70.6301C25.5291 69.5256 24.6337 68.6301 23.5291 68.6301H22C20.8954 68.6301 20 69.5256 20 70.6301V74.3836ZM25.5291 56.2466C25.5291 55.142 24.6337 54.2466 23.5291 54.2466H22C20.8954 54.2466 20 55.142 20 56.2466V60.8767C20 61.9813 20.8954 62.8767 22 62.8767H23.5291C24.6337 62.8767 25.5291 61.9813 25.5291 60.8767V56.2466ZM43.8303 42.8767C44.631 42.8767 45.2857 42.2277 45.2857 41.427V39.1233C45.2857 38.0187 44.3903 37.1233 43.2857 37.1233H38.8571C37.7526 37.1233 36.8571 38.0187 36.8571 39.1233V43.7534C36.8571 44.858 37.7526 45.7534 38.8571 45.7534H40.9479C41.7423 45.7534 42.3863 45.1095 42.3863 44.3151C42.3863 43.5207 43.0359 42.8767 43.8303 42.8767ZM43.2857 80C44.3903 80 45.2857 79.1046 45.2857 78V76.3836C45.2857 75.279 44.3903 74.3836 43.2857 74.3836H38.8571C37.7526 74.3836 36.8571 75.279 36.8571 76.3836V78C36.8571 79.1046 37.7526 80 38.8571 80H43.2857ZM56.4789 80C58.0522 80 59.4008 79.4292 60.5246 78.2877C61.6034 77.1461 62.1429 75.8447 62.1429 74.3836V70.6301C62.1429 69.5256 61.2474 68.6301 60.1429 68.6301H58.4789C57.3743 68.6301 56.4789 69.5256 56.4789 70.6301V72.3836C56.4789 73.4881 55.5834 74.3836 54.4789 74.3836H52.8149C51.7103 74.3836 50.8149 75.279 50.8149 76.3836V78C50.8149 79.1046 51.7103 80 52.8149 80H56.4789ZM60.1429 62.8767C61.2474 62.8767 62.1429 61.9813 62.1429 60.8767V56.2466C62.1429 55.142 61.2474 54.2466 60.1429 54.2466H57.9857C57.1535 54.2466 56.4789 54.9212 56.4789 55.7534V55.878C56.4789 56.6414 55.86 57.2603 55.0966 57.2603C54.3332 57.2603 53.7143 57.8791 53.7143 58.6426V60.8767C53.7143 61.9813 54.6097 62.8767 55.7143 62.8767H60.1429ZM60.1429 25.7534C61.2474 25.7534 62.1429 24.858 62.1429 23.7534V22C62.1429 20.8954 61.2474 20 60.1429 20H55.7143C54.6097 20 53.7143 20.8954 53.7143 22V23.7534C53.7143 24.858 54.6097 25.7534 55.7143 25.7534H60.1429ZM73.336 62.8767C74.9093 62.8767 76.2579 62.3059 77.3817 61.1644C78.4606 60.0228 79 58.7215 79 57.2603V53.5069C79 52.4023 78.1046 51.5069 77 51.5069H75.336C74.2314 51.5069 73.336 52.4023 73.336 53.5069V55.2603C73.336 56.3648 72.4406 57.2603 71.336 57.2603H69.672C68.5674 57.2603 67.672 58.1557 67.672 59.2603V60.8767C67.672 61.9813 68.5674 62.8767 69.672 62.8767H73.336ZM79 39.1233C79 38.0187 78.1046 37.1233 77 37.1233H75.336C74.2314 37.1233 73.336 38.0187 73.336 39.1233V43.7534C73.336 44.858 74.2314 45.7534 75.336 45.7534H77C78.1046 45.7534 79 44.858 79 43.7534V39.1233ZM56.4789 37.1233H52.8149C51.7103 37.1233 50.8149 38.0187 50.8149 39.1233V40.8767C50.8149 41.9813 51.7103 42.8767 52.8149 42.8767H54.4789C55.5834 42.8767 56.4789 43.7721 56.4789 44.8767V46.6301C56.4789 47.7347 57.3743 48.6301 58.4789 48.6301H60.1429C61.2474 48.6301 62.1429 47.7347 62.1429 46.6301V42.8767C62.1429 41.3242 61.6034 39.9772 60.5246 38.8356C59.4008 37.6941 58.0522 37.1233 56.4789 37.1233ZM36.8571 57.2603C36.8571 58.7215 37.419 60.0228 38.5429 61.1644C39.6217 62.3059 40.9029 62.8767 42.3863 62.8767H46.0503C47.1549 62.8767 48.0503 61.9813 48.0503 60.8767V59.2603C48.0503 58.1557 47.1549 57.2603 46.0503 57.2603H44.3863C43.2817 57.2603 42.3863 56.3648 42.3863 55.2603V53.5069C42.3863 52.4023 41.4909 51.5069 40.3863 51.5069H38.8571C37.7526 51.5069 36.8571 52.4023 36.8571 53.5069V57.2603Z" fill="white" fill-opacity="0.6"/>
</svg>
