<svg width="100" height="100" viewBox="0 0 100 100" fill="none" xmlns="http://www.w3.org/2000/svg">
<path d="M28.3388 62.3869C27.4399 61.5315 25.9492 61.4774 25.1764 62.4482L25.12 62.519C23.7333 64.2341 22.6133 65.8152 21.76 67.2623C20.5867 69.299 20 70.9605 20 72.2468C20 74.1227 20.6667 75.7306 22 77.0705C23.3333 78.3568 24.9067 79 26.72 79C28.5333 79 30.08 78.3568 31.36 77.0705C32.64 75.7306 33.28 74.1227 33.28 72.2468C33.28 70.9069 32.7467 69.2454 31.68 67.2623C30.7512 65.8104 29.7226 64.2833 28.5941 62.6809C28.5183 62.5732 28.4342 62.4776 28.3388 62.3869V62.3869ZM65.8932 48.63C68.7673 51.5328 70.2043 52.9842 69.6912 54.2143C69.1781 55.4443 67.1357 55.4443 63.0508 55.4443H50.3658C46.2306 55.4443 44.1629 55.4443 43.6532 54.205C43.1436 52.9657 44.6129 51.5111 47.5516 48.6017L53.9575 42.2598C55.2975 40.9332 55.9675 40.2699 56.7959 40.2741C57.6243 40.2782 58.2876 40.9482 59.6142 42.2881L65.8932 48.63ZM34.88 51.9873C33.8133 52.952 33.28 54.1312 33.28 55.5247C33.28 56.9182 33.8133 58.0973 34.88 59.0621L53.12 77.3921C54.08 78.464 55.2533 79 56.64 79C58.0267 79 59.2 78.464 60.16 77.3921L78.56 59.0621C79.52 58.0973 80 56.9182 80 55.5247C80 54.1312 79.52 52.952 78.56 51.9873L64.2486 37.538C62.9243 36.201 62.2622 35.5325 62.2653 34.7054C62.2683 33.8783 62.9353 33.2147 64.2694 31.8875L67.0353 29.1357C67.9459 28.2298 68.4011 27.7768 68.5375 27.2423C68.6207 26.9158 68.6201 26.5736 68.5358 26.2474C68.3977 25.7133 67.9409 25.2619 67.0272 24.359V24.359C66.1224 23.4649 65.6699 23.0178 65.1385 22.885C64.8138 22.8039 64.474 22.8056 64.1502 22.8898C63.62 23.0278 63.172 23.4792 62.2759 24.3822L34.88 51.9873Z" fill="black" fill-opacity="0.6"/>
</svg>
