<svg width="100" height="100" viewBox="0 0 100 100" fill="none" xmlns="http://www.w3.org/2000/svg">
<path d="M73.0967 32.2738C72.7299 32.6477 72.5244 33.1506 72.5244 33.6744V62.9351C72.5244 64.0396 73.4198 64.9351 74.5244 64.9351H76.2297C77.2698 64.9351 78.1582 65.303 78.8949 66.039C79.6316 66.7749 80 67.6623 80 68.7013C80 69.8268 79.6316 70.7359 78.8949 71.4286C78.1582 72.1212 77.2698 72.4675 76.2297 72.4675H74.5244C73.4198 72.4675 72.5244 73.363 72.5244 74.4675V76.2338C72.5244 77.2727 72.156 78.1602 71.4193 78.8961C70.6826 79.632 69.7941 80 68.7541 80C67.714 80 66.8256 79.632 66.0888 78.8961C65.3521 78.1602 64.9837 77.2727 64.9837 76.2338V45.0845C64.9837 43.3032 62.8305 42.4106 61.5703 43.6695L43.7004 61.5201C42.4394 62.7797 43.3315 64.9351 45.1138 64.9351H59.2784C60.383 64.9351 61.2784 65.8305 61.2784 66.9351V70.4675C61.2784 71.5721 60.383 72.4675 59.2784 72.4675H35.0163C32.9361 72.4675 31.1593 71.7316 29.6858 70.2597C28.2124 68.7879 27.4756 67.013 27.4756 64.9351V37.0649C27.4756 35.9604 26.5802 35.0649 25.4756 35.0649H23.7703C22.7302 35.0649 21.8418 34.697 21.1051 33.961C20.3684 33.2251 20 32.3377 20 31.2987C20 30.2597 20.3684 29.3723 21.1051 28.6364C21.8418 27.9004 22.7302 27.5325 23.7703 27.5325H25.4756C26.5802 27.5325 27.4756 26.637 27.4756 25.5325V23.7662C27.4756 22.7273 27.844 21.8615 28.5807 21.1688C29.278 20.5133 30.1112 20.1292 31.0802 20.0165C31.1903 20.0037 31.3016 20.0037 31.4117 20.0165C32.3807 20.1292 33.2139 20.5133 33.9112 21.1688C34.6479 21.8615 35.0163 22.7273 35.0163 23.7662V54.8036C35.0163 56.5823 37.1642 57.4761 38.426 56.2223L56.2778 38.4836C57.5439 37.2256 56.653 35.0649 54.8681 35.0649H40.7216C39.617 35.0649 38.7216 34.1695 38.7216 33.0649V29.5325C38.7216 28.4279 39.617 27.5325 40.7216 27.5325H66.3661C66.8962 27.5325 67.4046 27.3221 67.7796 26.9474L73.5645 21.1688C74.3012 20.3896 75.1896 20 76.2297 20C77.2698 20 78.1582 20.3896 78.8949 21.1688C79.6316 21.8615 80 22.7273 80 23.7662C80 24.8052 79.6316 25.671 78.8949 26.3636L73.0967 32.2738Z" fill="black" fill-opacity="0.6"/>
</svg>
