<svg width="100" height="100" viewBox="0 0 100 100" fill="none" xmlns="http://www.w3.org/2000/svg">
<path d="M53.28 66.72C52.32 66.72 51.52 66.3733 50.88 65.68C50.2401 64.9866 49.9201 64.16 49.9201 63.2C49.9201 62.24 50.2401 61.4666 50.88 60.88C51.52 60.2933 52.32 60 53.28 60C54.24 60 55.04 60.2933 55.68 60.88C56.32 61.4666 56.64 62.24 56.64 63.2C56.64 64.16 56.32 64.9866 55.68 65.68C55.04 66.3733 54.24 66.72 53.28 66.72ZM53.28 53.28C52.32 53.28 51.52 52.96 50.88 52.32C50.2401 51.68 49.9201 50.88 49.9201 49.92C49.9201 48.96 50.2401 48.1867 50.88 47.6C51.52 47.0134 52.32 46.72 53.28 46.72C54.24 46.72 55.04 47.0134 55.68 47.6C56.32 48.1867 56.64 48.96 56.64 49.92C56.64 50.88 56.32 51.68 55.68 52.32C55.04 52.96 54.24 53.28 53.28 53.28ZM53.28 40C52.32 40 51.52 39.68 50.88 39.04C50.2401 38.4 49.9201 37.6 49.9201 36.64C49.9201 35.68 50.2401 34.88 50.88 34.24C51.52 33.6 52.32 33.28 53.28 33.28C54.24 33.28 55.04 33.6 55.68 34.24C56.32 34.88 56.64 35.68 56.64 36.64C56.64 37.6 56.32 38.4 55.68 39.04C55.04 39.68 54.24 40 53.28 40ZM66.72 51.68C66.1866 51.68 65.76 51.4934 65.44 51.12C65.12 50.7467 64.96 50.3467 64.96 49.92C64.96 49.4934 65.12 49.12 65.44 48.8C65.76 48.48 66.16 48.32 66.64 48.32C67.12 48.32 67.52 48.48 67.84 48.8C68.16 49.12 68.32 49.4934 68.32 49.92C68.32 50.3467 68.16 50.7467 67.84 51.12C67.52 51.4934 67.1466 51.68 66.72 51.68ZM66.72 38.24C66.1866 38.24 65.76 38.08 65.44 37.76C65.12 37.44 64.96 37.04 64.96 36.56C64.96 36.08 65.12 35.7067 65.44 35.44C65.76 35.1733 66.16 35.04 66.64 35.04C67.12 35.04 67.52 35.1733 67.84 35.44C68.16 35.7067 68.32 36.08 68.32 36.56C68.32 37.04 68.16 37.44 67.84 37.76C67.52 38.08 67.1466 38.24 66.72 38.24ZM20 23.36C20 22.0886 20 21.4529 20.2785 20.9819C20.45 20.692 20.692 20.45 20.9819 20.2785C21.4529 20 22.0886 20 23.36 20H76.64C77.9114 20 78.5471 20 79.0181 20.2785C79.308 20.45 79.55 20.692 79.7215 20.9819C80 21.4529 80 22.0886 80 23.36V23.36C80 24.6314 80 25.2671 79.7215 25.7381C79.55 26.028 79.308 26.27 79.0181 26.4415C78.5471 26.72 77.9114 26.72 76.64 26.72H23.36C22.0886 26.72 21.4529 26.72 20.9819 26.4415C20.692 26.27 20.45 26.028 20.2785 25.7381C20 25.2671 20 24.6314 20 23.36V23.36ZM66.72 64.96C66.1866 64.96 65.76 64.8 65.44 64.48C65.12 64.16 64.96 63.76 64.96 63.28C64.96 62.8 65.12 62.4 65.44 62.08C65.76 61.76 66.16 61.6 66.64 61.6C67.12 61.6 67.52 61.76 67.84 62.08C68.16 62.4 68.32 62.8 68.32 63.28C68.32 63.76 68.16 64.16 67.84 64.48C67.52 64.8 67.1466 64.96 66.72 64.96ZM40 66.72C39.04 66.72 38.24 66.3733 37.6 65.68C36.96 64.9866 36.64 64.16 36.64 63.2C36.64 62.24 36.96 61.4666 37.6 60.88C38.24 60.2933 39.04 60 40 60C40.96 60 41.7334 60.2933 42.32 60.88C42.9067 61.4666 43.2 62.24 43.2 63.2C43.2 64.16 42.9067 64.9866 42.32 65.68C41.7334 66.3733 40.96 66.72 40 66.72ZM26.72 55.04C25.2267 55.04 24 54.5333 23.04 53.52C22.08 52.5067 21.6 51.3334 21.6 50C21.6 48.6667 22.08 47.4934 23.04 46.48C24 45.4667 25.1734 44.96 26.56 44.96C27.9467 44.96 29.1467 45.4667 30.16 46.48C31.1734 47.4934 31.68 48.6667 31.68 50C31.68 51.3334 31.1734 52.5067 30.16 53.52C29.1467 54.5333 28 55.04 26.72 55.04ZM26.72 41.6C25.2267 41.6 24 41.12 23.04 40.16C22.08 39.2 21.6 38.0267 21.6 36.64C21.6 35.2533 22.08 34.08 23.04 33.12C24 32.16 25.1734 31.68 26.56 31.68C27.9467 31.68 29.1467 32.16 30.16 33.12C31.1734 34.08 31.68 35.2533 31.68 36.64C31.68 38.0267 31.1734 39.2 30.16 40.16C29.1467 41.12 28 41.6 26.72 41.6ZM23.36 80C22.0886 80 21.4529 80 20.9819 79.7215C20.692 79.55 20.45 79.308 20.2785 79.0181C20 78.5471 20 77.9114 20 76.64V76.64C20 75.3686 20 74.7328 20.2785 74.2619C20.45 73.9719 20.692 73.73 20.9819 73.5585C21.4529 73.28 22.0886 73.28 23.36 73.28H76.64C77.9114 73.28 78.5471 73.28 79.0181 73.5585C79.3081 73.73 79.55 73.9719 79.7215 74.2619C80 74.7328 80 75.3686 80 76.64V76.64C80 77.9114 80 78.5471 79.7215 79.0181C79.55 79.308 79.3081 79.55 79.0181 79.7215C78.5471 80 77.9114 80 76.64 80H23.36ZM40 40C39.04 40 38.24 39.68 37.6 39.04C36.96 38.4 36.64 37.6 36.64 36.64C36.64 35.68 36.96 34.88 37.6 34.24C38.24 33.6 39.04 33.28 40 33.28C40.96 33.28 41.7334 33.6 42.32 34.24C42.9067 34.88 43.2 35.68 43.2 36.64C43.2 37.6 42.9067 38.4 42.32 39.04C41.7334 39.68 40.96 40 40 40ZM40 53.28C39.04 53.28 38.24 52.96 37.6 52.32C36.96 51.68 36.64 50.88 36.64 49.92C36.64 48.96 36.96 48.1867 37.6 47.6C38.24 47.0134 39.04 46.72 40 46.72C40.96 46.72 41.7334 47.0134 42.32 47.6C42.9067 48.1867 43.2 48.96 43.2 49.92C43.2 50.88 42.9067 51.68 42.32 52.32C41.7334 52.96 40.96 53.28 40 53.28ZM26.72 68.32C25.2267 68.32 24 67.84 23.04 66.88C22.08 65.92 21.6 64.7466 21.6 63.36C21.6 61.9733 22.08 60.7733 23.04 59.76C24 58.7466 25.1734 58.24 26.56 58.24C27.9467 58.24 29.1467 58.7466 30.16 59.76C31.1734 60.7733 31.68 61.9733 31.68 63.36C31.68 64.7466 31.1734 65.92 30.16 66.88C29.1467 67.84 28 68.32 26.72 68.32Z" fill="black" fill-opacity="0.6"/>
</svg>
