<svg width="100" height="100" viewBox="0 0 100 100" fill="none" xmlns="http://www.w3.org/2000/svg">
<path d="M49.5504 44.7059C50.4665 44.7059 51.2555 45.0367 51.9172 45.6986L54.285 48.1434C54.9467 48.7545 55.2772 49.5188 55.2772 50.4354C55.2772 51.352 54.9466 52.1413 54.285 52.8033L28.0178 79.0073C27.3561 79.6693 26.5796 79.9999 25.6889 80C24.7983 80 24.0217 79.6692 23.3601 79.0073L20.9922 76.6384C20.3307 75.9764 20 75.1994 20 74.3084C20.0001 73.4173 20.3306 72.6404 20.9922 71.9784L47.2594 45.6986C47.8703 45.0366 48.6342 44.7059 49.5504 44.7059ZM50.3565 49.6381C49.9122 49.1935 49.191 49.1948 48.7488 49.6415L43.1656 55.2861C42.7269 55.7298 42.7291 56.4452 43.1702 56.8865C43.6147 57.3312 44.3358 57.3289 44.7779 56.8819L50.3611 51.2374C50.7995 50.7938 50.7973 50.0793 50.3565 49.6381ZM65.0416 37.5058C65.0416 38.9364 65.5222 40.1501 66.4816 41.1478C67.46 42.1453 68.6448 42.682 70.037 42.7574C68.6448 42.8327 67.46 43.3793 66.4816 44.3956C65.5222 45.412 65.0417 46.6162 65.0416 48.0089C65.0415 46.6162 64.5523 45.412 63.5741 44.3956C62.5957 43.3793 61.4109 42.8327 60.0187 42.7574C61.4109 42.7196 62.5957 42.1829 63.5741 41.1478C64.5523 40.1125 65.0416 38.8987 65.0416 37.5058ZM55.1647 33.9487C55.1648 34.8898 55.4938 35.7087 56.1522 36.4051C56.8106 37.1013 57.6195 37.468 58.5787 37.5058C57.6194 37.5435 56.8107 37.9112 56.1522 38.6075C55.4938 39.304 55.1647 40.1414 55.1647 41.1201C55.1647 40.1416 54.8353 39.3039 54.1772 38.6075C53.5187 37.9111 52.7091 37.5434 51.7495 37.5058C52.7091 37.4681 53.5187 37.1015 54.1772 36.4051C54.8355 35.7088 55.1646 34.8896 55.1647 33.9487ZM75.0047 30.5595C75.0047 31.9525 75.484 33.1575 76.4436 34.174C77.4219 35.1905 78.6077 35.7369 80 35.8122C78.6077 35.8499 77.4219 36.3767 76.4436 37.3932C75.4842 38.4096 75.0047 39.6147 75.0047 41.0075C75.0047 39.6146 74.5243 38.4096 73.5647 37.3932C72.6052 36.3767 71.4292 35.8499 70.037 35.8122C71.4292 35.7369 72.6052 35.1904 73.5647 34.174C74.5243 33.1575 75.0047 31.9525 75.0047 30.5595ZM61.7964 20C61.7964 21.8447 62.4458 23.4448 63.744 24.8001C65.0422 26.1553 66.6131 26.8709 68.4568 26.9462C67.2339 27.0215 66.1139 27.3694 65.098 27.9906C64.0822 28.6117 63.2734 29.4494 62.6715 30.5032C62.0882 31.5573 61.7964 32.7064 61.7964 33.9487C61.7964 32.0665 61.1569 30.4564 59.8775 29.1199C58.5982 27.7836 57.0272 27.0592 55.1647 26.9462C57.0272 26.8709 58.5982 26.1553 59.8775 24.8001C61.1569 23.4448 61.7964 21.8447 61.7964 20Z" fill="black" fill-opacity="0.6"/>
</svg>

