<svg width="100" height="100" viewBox="0 0 100 100" fill="none" xmlns="http://www.w3.org/2000/svg">
<path d="M60.0488 23.3445C60.0573 23.336 60.0718 23.342 60.0718 23.354V23.354C60.0718 23.366 60.0864 23.3719 60.0949 23.3635C62.3483 21.1211 65.0975 20 68.3427 20C71.5989 20 74.3558 21.1288 76.6135 23.3865C78.8712 25.6442 80 28.4011 80 31.6573C80 34.9136 78.8712 37.6705 76.6135 39.9282L65.8028 50.7389C65.1913 51.3504 65.1913 52.3417 65.8028 52.9532V52.9532C66.5409 53.6912 66.9099 54.5813 66.9099 55.6233C66.9099 56.6653 66.5409 57.5553 65.8028 58.2934C65.1081 59.0315 64.2398 59.4005 63.1978 59.4005C62.1558 59.4005 61.2658 59.0315 60.5277 58.2934L41.7066 39.4723C40.9685 38.7342 40.5995 37.8442 40.5995 36.8022C40.5995 35.7602 40.9685 34.8919 41.7066 34.1972C42.4447 33.4591 43.3347 33.0901 44.3767 33.0901C45.4187 33.0901 46.3088 33.4591 47.0468 34.1972V34.1972C47.6578 34.8082 48.6488 34.8068 49.2581 34.1942L60.0488 23.3445ZM26.4674 57.9026L37.9325 46.3848C39.1093 45.2025 39.6978 44.6113 40.4212 44.5454C40.5404 44.5345 40.6604 44.5344 40.7797 44.545C41.5033 44.6092 42.0931 45.199 43.2727 46.3786V46.3786C44.4498 47.5557 45.0383 48.1443 45.1033 48.8667C45.114 48.9858 45.114 49.1056 45.1033 49.2247C45.0383 49.947 44.4498 50.5356 43.2727 51.7127L31.8076 63.1778C31.4169 63.5685 31.2215 64.0244 31.2215 64.5454V64.7785C31.2215 66.6641 31.2215 67.6069 31.8073 68.1927C32.3931 68.7785 33.3359 68.7785 35.2215 68.7785H35.4546C35.9756 68.7785 36.4315 68.5831 36.8222 68.1924L48.3167 56.6979C49.4746 55.54 50.0536 54.961 50.764 54.89C50.8922 54.8772 51.0214 54.8768 51.1497 54.8888C51.8606 54.9555 52.4431 55.5309 53.6081 56.6817V56.6817C54.7861 57.8454 55.3752 58.4272 55.4474 59.1436C55.4604 59.2729 55.4608 59.403 55.4486 59.5324C55.3808 60.2492 54.7953 60.8346 53.6244 62.0056L42.0974 73.5326C40.2739 75.3561 38.0596 76.2678 35.4546 76.2678H31.7162C31.1151 76.2678 30.8145 76.2678 30.5311 76.3537C30.2477 76.4395 29.9976 76.6062 29.4974 76.9396L25.8161 79.3938C25.0781 79.8714 24.2532 80.0668 23.3414 79.98C22.4297 79.8931 21.6699 79.5458 21.062 78.938C20.4542 78.3301 20.1069 77.5703 20.02 76.6586C19.9332 75.7468 20.1286 74.9219 20.6062 74.1839L23.0604 70.5026C23.3938 70.0024 23.5605 69.7523 23.6463 69.4689C23.7322 69.1854 23.7322 68.8849 23.7322 68.2838V64.5454C23.7322 61.9404 24.6439 59.7261 26.4674 57.9026Z" fill="white" fill-opacity="0.6"/>
</svg>
