<svg width="100" height="100" viewBox="0 0 100 100" fill="none" xmlns="http://www.w3.org/2000/svg">
<path d="M79.04 33.44L74.3742 38.1058C73.5932 38.8868 72.3268 38.8868 71.5458 38.1058L61.8942 28.4542C61.1132 27.6732 61.1132 26.4068 61.8942 25.6258L66.56 20.96C67.2 20.32 67.9733 20 68.88 20C69.84 20 70.64 20.32 71.28 20.96L79.04 28.72C79.68 29.36 80 30.16 80 31.12C80 32.0267 79.68 32.8 79.04 33.44ZM20 68.3484C20 67.818 20.2107 67.3093 20.5858 66.9342L55.4658 32.0542C56.2468 31.2732 57.5132 31.2732 58.2942 32.0542L67.9458 41.7058C68.7268 42.4868 68.7268 43.7532 67.9458 44.5342L33.0658 79.4142C32.6907 79.7893 32.182 80 31.6516 80H22C20.8954 80 20 79.1046 20 78V68.3484Z" fill="white" fill-opacity="0.6"/>
</svg>
