<svg width="100" height="100" viewBox="0 0 100 100" fill="none" xmlns="http://www.w3.org/2000/svg">
<path d="M40 50C40 51.1956 40 51.7934 40.2474 52.2434C40.4302 52.576 40.704 52.8497 41.0366 53.0326C41.4865 53.2799 42.0844 53.2799 43.28 53.2799H46.72V46.7201H43.28C42.0844 46.7201 41.4865 46.7201 41.0366 46.9674C40.704 47.1503 40.4302 47.424 40.2474 47.7566C40 48.2066 40 48.8044 40 50V50ZM46.72 60H53.28V53.2799H46.72V60ZM46.72 46.7201H53.28V40.0001H46.72V46.7201ZM40 36.64C40 37.9115 40 38.5472 40.2785 39.0181C40.45 39.3081 40.692 39.55 40.9819 39.7215C41.4529 40.0001 42.0886 40.0001 43.36 40.0001H46.72V33.28H43.36C42.0886 33.28 41.4529 33.28 40.9819 33.5586C40.692 33.73 40.45 33.972 40.2785 34.262C40 34.7329 40 35.3686 40 36.64V36.64ZM40 63.36C40 64.6314 40 65.2671 40.2785 65.7381C40.45 66.028 40.692 66.27 40.9819 66.4415C41.4529 66.72 42.0886 66.72 43.36 66.72H46.72V60H43.36C42.0886 60 41.4529 60 40.9819 60.2785C40.692 60.45 40.45 60.6919 40.2785 60.9819C40 61.4528 40 62.0885 40 63.36V63.36ZM20 26.72C20 24.8 20.64 23.2 21.92 21.92C23.2 20.64 24.8 20 26.72 20H73.28C75.0933 20 76.6667 20.64 78 21.92C79.3333 23.2 80 24.8 80 26.72V73.28C80 75.0933 79.3333 76.6667 78 78C76.6667 79.3333 75.0933 80 73.28 80H26.72C24.8 80 23.2 79.3333 21.92 78C20.64 76.6667 20 75.0933 20 73.28V26.72ZM69.92 63.36C69.92 62.0885 69.92 61.4528 69.6415 60.9819C69.47 60.6919 69.228 60.45 68.9381 60.2785C68.4671 60 67.8314 60 66.56 60V60C65.2885 60 64.6528 60 64.1819 60.2785C63.8919 60.45 63.65 60.6919 63.4785 60.9819C63.2 61.4528 63.2 62.0885 63.2 63.36V63.36C63.2 64.6314 63.2 65.2671 63.4785 65.7381C63.65 66.028 63.8919 66.27 64.1819 66.4415C64.6528 66.72 65.2885 66.72 66.56 66.72V66.72C67.8314 66.72 68.4671 66.72 68.9381 66.4415C69.228 66.27 69.47 66.028 69.6415 65.7381C69.92 65.2671 69.92 64.6314 69.92 63.36V63.36ZM69.92 50C69.92 48.8044 69.92 48.2066 69.6726 47.7566C69.4898 47.424 69.2161 47.1503 68.8834 46.9674C68.4335 46.7201 67.8357 46.7201 66.64 46.7201H66.4799C65.2843 46.7201 64.6865 46.7201 64.2365 46.9674C63.9039 47.1503 63.6302 47.424 63.4473 47.7566C63.2 48.2066 63.2 48.8044 63.2 50V50C63.2 51.1956 63.2 51.7934 63.4473 52.2434C63.6302 52.576 63.9039 52.8497 64.2365 53.0326C64.6865 53.2799 65.2843 53.2799 66.4799 53.2799H66.64C67.8357 53.2799 68.4335 53.2799 68.8834 53.0326C69.2161 52.8497 69.4898 52.576 69.6726 52.2434C69.92 51.7934 69.92 51.1956 69.92 50V50ZM69.92 36.64C69.92 35.3686 69.92 34.7329 69.6415 34.262C69.47 33.972 69.228 33.73 68.9381 33.5586C68.4671 33.28 67.8314 33.28 66.56 33.28V33.28C65.2885 33.28 64.6528 33.28 64.1819 33.5586C63.8919 33.73 63.65 33.972 63.4785 34.262C63.2 34.7329 63.2 35.3686 63.2 36.64V36.64C63.2 37.9115 63.2 38.5472 63.4785 39.0181C63.65 39.3081 63.8919 39.55 64.1819 39.7215C64.6528 40.0001 65.2885 40.0001 66.56 40.0001V40.0001C67.8314 40.0001 68.4671 40.0001 68.9381 39.7215C69.228 39.55 69.47 39.3081 69.6415 39.0181C69.92 38.5472 69.92 37.9115 69.92 36.64V36.64ZM46.72 30.72C46.72 28.8344 46.72 27.8916 46.1343 27.3058C45.5485 26.72 44.6057 26.72 42.72 26.72H30.72C28.8344 26.72 27.8916 26.72 27.3058 27.3058C26.72 27.8916 26.72 28.8344 26.72 30.72V69.28C26.72 71.1656 26.72 72.1084 27.3058 72.6942C27.8916 73.28 28.8344 73.28 30.72 73.28H42.72C44.6057 73.28 45.5485 73.28 46.1343 72.6942C46.72 72.1084 46.72 71.1656 46.72 69.28V66.72H53.28V69.92C53.28 71.1914 53.28 71.8271 53.5585 72.2981C53.73 72.588 53.9719 72.83 54.2619 73.0015C54.7328 73.28 55.3685 73.28 56.64 73.28H56.72C57.9156 73.28 58.5135 73.28 58.9635 73.0326C59.296 72.8498 59.5697 72.5761 59.7526 72.2435C60 71.7935 60 71.1957 60 70V70C60 68.8043 60 68.2065 59.7526 67.7565C59.5697 67.4239 59.296 67.1502 58.9635 66.9674C58.5135 66.72 57.9156 66.72 56.72 66.72H53.28V60H56.64C57.9114 60 58.5471 60 59.0181 59.7214C59.308 59.55 59.55 59.308 59.7214 59.018C60 58.5471 60 57.9114 60 56.64V56.64C60 55.3685 60 54.7328 59.7214 54.2619C59.55 53.9719 59.308 53.7299 59.0181 53.5585C58.5471 53.2799 57.9114 53.2799 56.64 53.2799H53.28V46.7201H56.64C57.9114 46.7201 58.5471 46.7201 59.0181 46.4415C59.308 46.2701 59.55 46.0281 59.7214 45.7382C60 45.2672 60 44.6315 60 43.3601V43.3601C60 42.0886 60 41.4529 59.7214 40.982C59.55 40.692 59.308 40.4501 59.0181 40.2786C58.5471 40.0001 57.9114 40.0001 56.64 40.0001H53.28V33.28H56.72C57.9156 33.28 58.5135 33.28 58.9635 33.0326C59.296 32.8498 59.5697 32.5761 59.7526 32.2435C60 31.7936 60 31.1957 60 30V30C60 28.8044 60 28.2065 59.7526 27.7565C59.5697 27.4239 59.296 27.1503 58.9635 26.9674C58.5135 26.72 57.9156 26.72 56.72 26.72H56.64C55.3685 26.72 54.7328 26.72 54.2619 26.9985C53.9719 27.17 53.73 27.412 53.5585 27.7019C53.28 28.1729 53.28 28.8086 53.28 30.08V33.28H46.72V30.72Z" fill="black" fill-opacity="0.6"/>
</svg>
