<svg width="100" height="100" viewBox="0 0 100 100" fill="none" xmlns="http://www.w3.org/2000/svg">
<path d="M31.8144 51.9267L60.1831 23.8337C61.4176 22.6112 62.8743 22 64.5532 22C66.2815 22 67.7135 22.6112 68.8493 23.8337L73.2934 28.1614C74.4786 29.3839 75.0464 30.8509 74.997 32.5624C74.997 34.2249 74.4292 35.6186 73.2934 36.7433L48.0967 61.7658C47.5219 62.3366 46.6595 62.5043 45.9127 62.1906L31.4552 56.1167C30.619 55.7654 30.0892 54.879 30.4194 54.0341C30.728 53.2445 31.193 52.542 31.8144 51.9267ZM25 64.9068C25 64.5717 25.0842 64.242 25.2448 63.9479L26.5952 61.4761C27.0799 60.5888 28.1505 60.2029 29.0899 60.5767L39.9107 64.8835C41.2939 65.434 41.6122 67.2487 40.4991 68.2372L28.328 79.0448C27.0379 80.1904 25 79.2746 25 77.5493V64.9068ZM62.3311 30.2885C61.7386 30.8753 61.4423 31.6088 61.4423 32.489C61.4423 33.3203 61.7386 34.0538 62.3311 34.6895C62.9237 35.2763 63.6397 35.5697 64.4791 35.5697C65.368 35.5697 66.1087 35.2763 66.7012 34.6895C67.3432 34.0538 67.6641 33.3203 67.6641 32.489C67.6641 31.6088 67.3432 30.8753 66.7012 30.2885C66.1087 29.7017 65.368 29.4083 64.4791 29.4083C63.6397 29.4083 62.9237 29.7017 62.3311 30.2885Z" fill="black" fill-opacity="0.6"/>
</svg>
