<svg width="100" height="100" viewBox="0 0 100 100" fill="none" xmlns="http://www.w3.org/2000/svg">
<path d="M73.4349 53.7678C74.6469 53.7682 75.5125 54.3295 76.0326 55.4536C76.5521 56.5787 76.3598 57.6193 75.4502 58.5714L72.1851 61.8332C71.4031 62.6144 71.4031 63.8819 72.1852 64.6631L79.3494 71.8196C79.7822 72.2524 80 72.7929 80 73.4419C80 74.0909 79.7822 74.6314 79.3494 75.0643L75.0591 79.3501C74.5391 79.7825 73.9978 79.9995 73.4349 80C72.7851 80 72.2441 79.7825 71.8108 79.3501L64.6628 72.1038C63.8763 71.3065 62.5884 71.3103 61.8067 72.1124L58.5487 75.455C57.6386 76.3209 56.6178 76.4929 55.491 75.9734C54.3225 75.454 53.7351 74.5892 53.7347 73.3785V56.4946C53.778 55.7154 54.0611 55.0641 54.5811 54.5446C55.1012 54.0251 55.7531 53.7678 56.5331 53.7678H73.4349ZM74.4719 22.6211C75.2514 22.6211 75.9037 22.8992 76.4237 23.4613C76.9437 24.0238 77.2265 24.6961 77.2704 25.4747V42.2952C77.2698 43.5503 76.7037 44.4137 75.5775 44.8899C74.4075 45.4092 73.3662 45.2176 72.4562 44.3086L69.1933 41.0454C68.4125 40.2646 67.1467 40.2642 66.3655 41.0446L58.5487 48.8532L43.1908 64.19C42.4085 64.9712 42.4084 66.2389 43.1906 67.0202L46.4556 70.2818C47.3656 71.1909 47.583 72.2107 47.1063 73.3362C46.5865 74.5027 45.7203 75.0849 44.5088 75.0855H27.6071C26.7842 75.0855 26.1115 74.8273 25.5916 74.3084C25.0716 73.7892 24.8087 73.1175 24.8087 72.2952V55.4113C24.8088 54.156 25.3748 53.2928 26.5015 52.8166C27.6282 52.2972 28.6692 52.509 29.6226 53.4613L32.8807 56.7196C33.6634 57.5023 34.9329 57.5005 35.7133 56.7156L43.5302 48.8532L58.8881 33.5164C59.6703 32.7352 59.6704 31.4676 58.8883 30.6863L55.6232 27.4247C54.7132 26.5156 54.4959 25.4958 54.9726 24.3703C55.4924 23.2034 56.3585 22.6219 57.57 22.6211H74.4719ZM26.5649 20C27.2148 20 27.7557 20.2174 28.189 20.65L35.356 27.8094C36.1369 28.5895 37.4021 28.5895 38.1829 27.8094L41.4512 24.5447C42.3612 23.6791 43.3822 23.5074 44.5088 24.0268C45.6768 24.5461 46.2592 25.4111 46.2599 26.6214V43.3785C46.2595 44.157 46.0019 44.8296 45.4822 45.3919C44.9623 45.9541 44.2896 46.2321 43.4667 46.2322H26.5649C25.3523 46.232 24.4876 45.6708 23.9675 44.5464C23.4476 43.421 23.6396 42.3809 24.5495 41.4285L27.8147 38.1667C28.5967 37.3855 28.5967 36.118 27.8147 35.3368L20.6507 28.1804C20.2176 27.7476 20 27.2273 20 26.6214C20.0004 25.9297 20.2177 25.3682 20.6507 24.9357L24.9409 20.65C25.3742 20.2172 25.9151 20.0001 26.5649 20Z" fill="black" fill-opacity="0.6"/>
</svg>
