<svg width="100" height="100" viewBox="0 0 100 100" fill="none" xmlns="http://www.w3.org/2000/svg">
<path d="M33.5171 57.2457C33.9078 56.8688 34.1284 56.3492 34.1284 55.8063V48.6364C34.1284 46.8268 34.842 45.3874 36.2691 44.3182L66.3609 21.987C67.1763 21.329 68.1142 21 69.1743 21C70.5199 21 71.6412 21.4524 72.5382 22.3571L78.5933 28.526C79.5311 29.4307 80 30.5411 80 31.8571C80 33.0087 79.6942 33.9545 79.0826 34.6948L56.8807 65.1688C55.8614 66.5671 54.4343 67.2662 52.5994 67.2662H45.5429C45.0095 67.2662 44.4982 67.4793 44.1227 67.8581L41.896 70.1039C41.2029 70.8442 40.367 71.2143 39.3884 71.2143C38.4098 71.2143 37.5739 70.8442 36.8807 70.1039L31.315 64.4286C30.6218 63.7706 30.2752 62.9481 30.2752 61.961C30.2752 60.974 30.6218 60.1104 31.315 59.3701L33.5171 57.2457ZM20.7951 72.8182L26.2917 67.3233C27.073 66.5423 28.3395 66.5426 29.1204 67.324L34.0794 72.2863C34.8527 73.0601 34.8608 74.3116 34.0976 75.0953L32.1101 77.1364C31.58 77.7121 30.948 78 30.2141 78H22.63C21.8552 78 21.2232 77.7327 20.7339 77.1981C20.2446 76.6634 20 76.026 20 75.2857V74.7922C20 74.052 20.265 73.3939 20.7951 72.8182Z" fill="white" fill-opacity="0.6"/>
</svg>
