<svg width="100" height="100" viewBox="0 0 100 100" fill="none" xmlns="http://www.w3.org/2000/svg">
<path d="M25.76 20H57.2343C58.7429 20 60.0457 20.5714 61.1429 21.7143C62.2857 22.8114 62.8571 24.16 62.8571 25.76V28.7086C62.8571 30.2613 61.5984 31.52 60.0457 31.52V31.52C58.493 31.52 57.2343 30.2613 57.2343 28.7086V28.64C57.2343 27.0494 55.9449 25.76 54.3543 25.76H28.76C27.1031 25.76 25.76 27.1031 25.76 28.76V54.3543C25.76 55.9449 27.0494 57.2343 28.64 57.2343H28.7086C30.2613 57.2343 31.52 58.493 31.52 60.0457V60.0457C31.52 61.5984 30.2613 62.8571 28.7086 62.8571H25.76C24.16 62.8571 22.7886 62.3086 21.6457 61.2114C20.5486 60.0686 20 58.7429 20 57.2343V25.76C20 24.16 20.5486 22.8114 21.6457 21.7143C22.7886 20.5714 24.16 20 25.76 20ZM42.9029 37.1429H45.7829C47.3734 37.1429 48.6629 38.4323 48.6629 40.0229V40.0229C48.6629 41.6134 47.3734 42.9029 45.7829 42.9029V42.9029C44.1923 42.9029 42.9029 44.1923 42.9029 45.7829V45.7829C42.9029 47.3734 41.6134 48.6629 40.0229 48.6629V48.6629C38.4323 48.6629 37.1429 47.3734 37.1429 45.7829V42.9029C37.1429 41.3029 37.6914 39.9543 38.7886 38.8571C39.9314 37.7143 41.3029 37.1429 42.9029 37.1429ZM54.2857 40.0229C54.2857 38.4323 55.5751 37.1429 57.1657 37.1429H59.8571C61.514 37.1429 62.8571 38.486 62.8571 40.1429V42.9029C62.8571 44.4556 61.5984 45.7143 60.0457 45.7143H58.64C57.8636 45.7143 57.2343 45.0849 57.2343 44.3086V44.3086C57.2343 43.5322 56.6049 42.9029 55.8286 42.9029H55.76C54.9458 42.9029 54.2857 42.2428 54.2857 41.4286V40.0229ZM68.6171 40.0229C68.6171 38.4323 69.9066 37.1429 71.4971 37.1429H74.3771C75.8857 37.1429 77.1886 37.7143 78.2857 38.8571C79.4286 39.9543 80 41.3029 80 42.9029V74.3771C80 75.8857 79.4286 77.1886 78.2857 78.2857C77.1886 79.4286 75.8857 80 74.3771 80H42.9029C41.3029 80 39.9314 79.4286 38.7886 78.2857C37.6914 77.1886 37.1429 75.8857 37.1429 74.3771V71.4971C37.1429 69.9066 38.4323 68.6171 40.0229 68.6171V68.6171C41.6134 68.6171 42.9029 69.9066 42.9029 71.4971V71.4971C42.9029 73.0877 44.1923 74.3771 45.7829 74.3771H71.3771C73.034 74.3771 74.3771 73.034 74.3771 71.3771V45.7829C74.3771 44.1923 73.0877 42.9029 71.4971 42.9029V42.9029C69.9066 42.9029 68.6171 41.6134 68.6171 40.0229V40.0229ZM57.2343 54.2857C57.2343 52.733 58.493 51.4743 60.0457 51.4743V51.4743C61.5984 51.4743 62.8571 52.733 62.8571 54.2857V57.2343C62.8571 58.7429 62.2857 60.0686 61.1429 61.2114C60.0457 62.3086 58.7429 62.8571 57.2343 62.8571H54.2857C52.733 62.8571 51.4743 61.5984 51.4743 60.0457V60.0457C51.4743 58.493 52.733 57.2343 54.2857 57.2343H54.3543C55.9449 57.2343 57.2343 55.9449 57.2343 54.3543V54.2857ZM37.1429 57.1657C37.1429 55.5751 38.4323 54.2857 40.0229 54.2857H41.4286C42.2428 54.2857 42.9029 54.9458 42.9029 55.76V55.8286C42.9029 56.6049 43.5322 57.2343 44.3086 57.2343V57.2343C45.0849 57.2343 45.7143 57.8636 45.7143 58.64V60.0457C45.7143 61.5984 44.4556 62.8571 42.9029 62.8571H40.1429C38.486 62.8571 37.1429 61.514 37.1429 59.8571V57.1657Z" fill="white" fill-opacity="0.6"/>
</svg>
