<svg width="100" height="100" viewBox="0 0 100 100" fill="none" xmlns="http://www.w3.org/2000/svg">
<path d="M26.1714 20H28.64C30.2306 20 31.52 21.2894 31.52 22.88V22.88C31.52 24.4706 30.2306 25.76 28.64 25.76V25.76C27.0494 25.76 25.76 27.0494 25.76 28.64V28.64C25.76 30.2306 24.4706 31.52 22.88 31.52V31.52C21.2894 31.52 20 30.2306 20 28.64V26.1714C20 24.48 20.5943 23.04 21.7829 21.8514C23.0171 20.6171 24.48 20 26.1714 20ZM37.1429 22.88C37.1429 21.2894 38.4323 20 40.0229 20H42.8343C44.4249 20 45.7143 21.2894 45.7143 22.88V22.88C45.7143 24.4706 44.4249 25.76 42.8343 25.76H40.0229C38.4323 25.76 37.1429 24.4706 37.1429 22.88V22.88ZM51.4743 22.88C51.4743 21.2894 52.7637 20 54.3543 20H56.8229C58.5143 20 59.9314 20.6171 61.0743 21.8514C62.2629 23.04 62.8571 24.48 62.8571 26.1714V28.7086C62.8571 30.2613 61.5984 31.52 60.0457 31.52V31.52C58.493 31.52 57.2343 30.2613 57.2343 28.7086V28.64C57.2343 27.0494 55.9449 25.76 54.3543 25.76V25.76C52.7637 25.76 51.4743 24.4706 51.4743 22.88V22.88ZM20 40.0229C20 38.4323 21.2894 37.1429 22.88 37.1429V37.1429C24.4706 37.1429 25.76 38.4323 25.76 40.0229V42.8343C25.76 44.4249 24.4706 45.7143 22.88 45.7143V45.7143C21.2894 45.7143 20 44.4249 20 42.8343V40.0229ZM42.9029 37.1429H59.8571C61.514 37.1429 62.8571 38.486 62.8571 40.1429V56.8229C62.8571 58.5143 62.2629 59.9543 61.0743 61.1429C59.9314 62.2857 58.5143 62.8571 56.8229 62.8571H40.1429C38.486 62.8571 37.1429 61.514 37.1429 59.8571V42.9029C37.1429 41.3029 37.6914 39.9543 38.7886 38.8571C39.9314 37.7143 41.3029 37.1429 42.9029 37.1429ZM68.6171 40.0229C68.6171 38.4323 69.9066 37.1429 71.4971 37.1429H74.3771C75.8857 37.1429 77.1886 37.7143 78.2857 38.8571C79.4286 39.9543 80 41.3029 80 42.9029V45.8514C80 47.4041 78.7413 48.6629 77.1886 48.6629V48.6629C75.6359 48.6629 74.3771 47.4041 74.3771 45.8514V45.7829C74.3771 44.1923 73.0877 42.9029 71.4971 42.9029V42.9029C69.9066 42.9029 68.6171 41.6134 68.6171 40.0229V40.0229ZM45.9029 42.9029C44.246 42.9029 42.9029 44.246 42.9029 45.9029V54.2343C42.9029 55.8911 44.246 57.2343 45.9029 57.2343H54.2343C55.8911 57.2343 57.2343 55.8911 57.2343 54.2343V45.9029C57.2343 44.246 55.8911 42.9029 54.2343 42.9029H45.9029ZM20 54.3543C20 52.7637 21.2894 51.4743 22.88 51.4743V51.4743C24.4706 51.4743 25.76 52.7637 25.76 54.3543V54.3543C25.76 55.9449 27.0494 57.2343 28.64 57.2343H28.7086C30.2613 57.2343 31.52 58.493 31.52 60.0457V60.0457C31.52 61.5984 30.2613 62.8571 28.7086 62.8571H26.1714C24.48 62.8571 23.0171 62.2857 21.7829 61.1429C20.5943 59.9543 20 58.5143 20 56.8229V54.3543ZM74.3771 57.0971C74.3771 55.5444 75.6359 54.2857 77.1886 54.2857V54.2857C78.7413 54.2857 80 55.5444 80 57.0971V60.0457C80 61.5984 78.7413 62.8571 77.1886 62.8571V62.8571C75.6359 62.8571 74.3771 61.5984 74.3771 60.0457V57.0971ZM37.1429 71.4971C37.1429 69.9066 38.4323 68.6171 40.0229 68.6171V68.6171C41.6134 68.6171 42.9029 69.9066 42.9029 71.4971V71.4971C42.9029 73.0877 44.1923 74.3771 45.7829 74.3771H45.8514C47.4041 74.3771 48.6629 75.6359 48.6629 77.1886V77.1886C48.6629 78.7413 47.4041 80 45.8514 80H42.9029C41.3029 80 39.9314 79.4286 38.7886 78.2857C37.6914 77.1886 37.1429 75.8857 37.1429 74.3771V71.4971ZM74.3771 71.4286C74.3771 69.8759 75.6359 68.6171 77.1886 68.6171V68.6171C78.7413 68.6171 80 69.8759 80 71.4286V74.3771C80 75.8857 79.4286 77.1886 78.2857 78.2857C77.1886 79.4286 75.8857 80 74.3771 80H71.4286C69.8759 80 68.6171 78.7413 68.6171 77.1886V77.1886C68.6171 75.6359 69.8759 74.3771 71.4286 74.3771H71.4971C73.0877 74.3771 74.3771 73.0877 74.3771 71.4971V71.4286ZM54.2857 77.1886C54.2857 75.6359 55.5444 74.3771 57.0971 74.3771H60.0457C61.5984 74.3771 62.8571 75.6359 62.8571 77.1886V77.1886C62.8571 78.7413 61.5984 80 60.0457 80H57.0971C55.5444 80 54.2857 78.7413 54.2857 77.1886V77.1886Z" fill="black" fill-opacity="0.6"/>
</svg>
