<svg width="100" height="100" viewBox="0 0 100 100" fill="none" xmlns="http://www.w3.org/2000/svg">
<path d="M20 28C20 26.3431 21.3431 25 23 25H34.1429C35.7997 25 37.1429 26.3431 37.1429 28V41.2076C37.1429 41.8293 36.6389 42.3333 36.0172 42.3333V42.3333C35.2526 42.3333 34.7105 43.0791 34.9464 43.8064L39.4185 57.5924C39.8197 58.8291 40.9719 59.6667 42.2721 59.6667H43.216C44.0242 59.6667 44.7983 59.3405 45.3629 58.7621L59.0555 44.7327C59.6024 44.1723 59.9086 43.4203 59.9086 42.6373V33.824C59.9086 32.1671 61.2517 30.824 62.9086 30.824H74.0514C75.7083 30.824 77.0514 32.1671 77.0514 33.824V45.1573C77.0514 46.8142 75.7083 48.1573 74.0514 48.1573H65.2027C64.4037 48.1573 63.6376 48.4761 63.0744 49.043L49.3974 62.8105C48.8391 63.3726 48.5257 64.1326 48.5257 64.9248V74C48.5257 75.6569 47.1826 77 45.5257 77H34.3829C32.726 77 31.3829 75.6569 31.3829 74V60.7924C31.3829 60.1707 31.8868 59.6667 32.5085 59.6667V59.6667C33.2731 59.6667 33.8152 58.9209 33.5793 58.1936L29.1072 44.4076C28.706 43.1709 27.5538 42.3333 26.2536 42.3333H23C21.3431 42.3333 20 40.9902 20 39.3333V28ZM28.4655 30.824C26.8956 30.824 25.6229 32.0967 25.6229 33.6667V33.6667C25.6229 35.2366 26.8956 36.5093 28.4655 36.5093H28.5402C30.1102 36.5093 31.3829 35.2366 31.3829 33.6667V33.6667C31.3829 32.0967 30.1102 30.824 28.5402 30.824H28.4655ZM68.5486 36.5093C66.958 36.5093 65.6686 37.7988 65.6686 39.3893V39.4533C65.6686 41.0439 66.958 42.3333 68.5486 42.3333V42.3333C70.1392 42.3333 71.4286 41.0439 71.4286 39.4533V39.3893C71.4286 37.7988 70.1392 36.5093 68.5486 36.5093V36.5093ZM39.9543 65.4907C38.4016 65.4907 37.1429 66.7494 37.1429 68.3021V68.3646C37.1429 69.9173 38.4016 71.176 39.9543 71.176V71.176C41.507 71.176 42.7657 69.9173 42.7657 68.3646V68.3021C42.7657 66.7494 41.507 65.4907 39.9543 65.4907V65.4907ZM57.0971 71.176C57.0971 69.5677 58.4009 68.264 60.0091 68.264H77.088C78.6963 68.264 80 69.5677 80 71.176V71.176C80 72.7843 78.6963 74.088 77.088 74.088H60.0091C58.4009 74.088 57.0971 72.7843 57.0971 71.176V71.176Z" fill="black" fill-opacity="0.6"/>
</svg>
