<svg width="100" height="100" viewBox="0 0 100 100" fill="none" xmlns="http://www.w3.org/2000/svg">
<path d="M20 25C20 23.3431 21.3431 22 23 22H34.1429C35.7997 22 37.1429 23.3431 37.1429 25V37.9636C37.1429 38.5836 36.6402 39.0863 36.0201 39.0863V39.0863C35.2555 39.0863 34.7146 39.8338 34.9536 40.5601L39.4128 54.1104C39.8178 55.341 40.9669 56.1727 42.2624 56.1727H43.2286C44.0294 56.1727 44.797 55.8525 45.3605 55.2834L59.0404 41.4668C59.5966 40.905 59.9086 40.1465 59.9086 39.356V30.741C59.9086 29.0842 61.2517 27.741 62.9086 27.741H74.0514C75.7083 27.741 77.0514 29.0842 77.0514 30.741V41.8273C77.0514 43.4842 75.7083 44.8273 74.0514 44.8273H65.1901C64.3985 44.8273 63.639 45.1402 63.077 45.6978L49.4126 59.2566C48.845 59.8199 48.5257 60.5865 48.5257 61.3862V70.259C48.5257 71.9158 47.1826 73.259 45.5257 73.259H34.3829C32.726 73.259 31.3829 71.9158 31.3829 70.259V57.2954C31.3829 56.6754 31.8855 56.1727 32.5056 56.1727V56.1727C33.2702 56.1727 33.8111 55.4252 33.5722 54.6989L29.1129 41.1486C28.708 39.918 27.5588 39.0863 26.2633 39.0863H23C21.3431 39.0863 20 37.7432 20 36.0863V25ZM28.425 27.741C26.8774 27.741 25.6229 28.9956 25.6229 30.5432V30.5432C25.6229 32.0908 26.8774 33.3453 28.425 33.3453H28.5807C30.1283 33.3453 31.3829 32.0908 31.3829 30.5432V30.5432C31.3829 28.9956 30.1283 27.741 28.5807 27.741H28.425ZM68.5486 33.3453C66.9632 33.3453 65.6686 34.6305 65.6686 36.2158V36.2158C65.6686 37.8012 66.9632 39.0863 68.5486 39.0863V39.0863C70.1339 39.0863 71.4286 37.8012 71.4286 36.2158V36.2158C71.4286 34.6305 70.1339 33.3453 68.5486 33.3453V33.3453ZM65.6686 59.0527C65.6686 57.4621 66.958 56.1727 68.5486 56.1727V56.1727C70.1392 56.1727 71.4286 57.4621 71.4286 59.0527V61.6475C71.4286 63.3043 72.7717 64.6475 74.4286 64.6475H77.1295C78.7148 64.6475 80 65.9327 80 67.518V67.518C80 69.1033 78.7148 70.3885 77.1295 70.3885H74.4286C72.7717 70.3885 71.4286 71.7316 71.4286 73.3885V76.12C71.4286 77.7106 70.1392 79 68.5486 79V79C66.958 79 65.6686 77.7106 65.6686 76.12V73.3885C65.6686 71.7316 64.3254 70.3885 62.6686 70.3885H59.9676C58.3823 70.3885 57.0971 69.1033 57.0971 67.518V67.518C57.0971 65.9327 58.3823 64.6475 59.9676 64.6475H62.6686C64.3254 64.6475 65.6686 63.3043 65.6686 61.6475V59.0527ZM39.9543 61.9137C38.4067 61.9137 37.1429 63.1682 37.1429 64.7158V64.7158C37.1429 66.2634 38.4067 67.518 39.9543 67.518V67.518C41.5019 67.518 42.7657 66.2634 42.7657 64.7158V64.7158C42.7657 63.1682 41.5019 61.9137 39.9543 61.9137V61.9137Z" fill="black" fill-opacity="0.6"/>
</svg>
