<svg width="100" height="100" viewBox="0 0 100 100" fill="none" xmlns="http://www.w3.org/2000/svg">
<path d="M73.7494 60.6301C74.8829 59.5233 76.691 59.5183 77.8305 60.6189V60.6189C79.0183 61.7661 79.0235 63.6678 77.842 64.8214L75.9905 66.6293C74.7947 67.7969 74.7836 69.7167 75.966 70.898L77.8759 72.8063C79.0487 73.9781 79.0504 75.8819 77.8688 77.0447C77.4045 77.5016 77.0176 77.8784 76.7081 78.1752C76.1341 78.7255 75.4673 78.6827 74.9042 78.1212C72.8396 76.0621 71.3779 74.6191 70.5192 73.7922C69.9457 73.2401 69.2854 73.2792 68.7223 73.8419L65.6071 76.9543C64.4761 78.0844 62.6433 78.0844 61.5123 76.9543V76.9543C60.3891 75.8321 60.3786 74.0147 61.4889 72.8796L63.4514 70.8732C64.6012 69.6976 64.5904 67.8155 63.4271 66.6533L61.524 64.7518C60.3981 63.6268 60.3981 61.8018 61.524 60.6768V60.6768C62.6486 59.5532 64.4709 59.5532 65.5954 60.6768L67.5057 62.5854C68.6676 63.7463 70.5469 63.7571 71.722 62.6097L73.7494 60.6301ZM60.8899 30.8966C60.8899 29.2397 62.2331 27.8966 63.8899 27.8966H75.4543C77.1112 27.8966 78.4543 29.2397 78.4543 30.8966V42.4458C78.4543 44.1027 77.1112 45.4458 75.4543 45.4458H66.2146C65.4147 45.4458 64.648 45.7652 64.0848 46.333L50.0974 60.4331C49.5399 60.995 49.2272 61.7545 49.2272 62.5459V71.6478C49.2272 73.3046 47.884 74.6478 46.2272 74.6478H34.6628C33.0059 74.6478 31.6628 73.3046 31.6628 71.6478V58.2789C31.6628 57.627 32.1912 57.0985 32.8432 57.0985V57.0985C33.6466 57.0985 34.2153 56.3133 33.9647 55.5499L29.3896 41.6135C28.9853 40.3819 27.8356 39.5493 26.5393 39.5493H23C21.3431 39.5493 20 38.2061 20 36.5493V25C20 23.3431 21.3431 22 23 22H34.5644C36.2213 22 37.5644 23.3431 37.5644 25V38.3741C37.5644 39.0231 37.0382 39.5493 36.3892 39.5493V39.5493C35.5857 39.5493 35.0192 40.3375 35.2753 41.0991L39.9684 55.0548C40.3791 56.2759 41.5236 57.0985 42.812 57.0985H43.7776C44.5682 57.0985 45.3268 56.7865 45.8886 56.2302L60.0009 42.2548C60.5698 41.6914 60.8899 40.9239 60.8899 40.1232V30.8966ZM28.7847 33.6527C30.3742 33.6527 31.6628 32.3642 31.6628 30.7746V30.7746C31.6628 29.1851 30.3742 27.8966 28.7847 27.8966H28.6392C27.0497 27.8966 25.7611 29.1851 25.7611 30.7746V30.7746C25.7611 32.3642 27.0497 33.6527 28.6392 33.6527H28.7847ZM40.445 68.7512C42.0345 68.7512 43.3255 67.4627 43.3255 65.8732V65.8732C43.3255 64.2836 42.0345 62.9951 40.445 62.9951V62.9951C38.8554 62.9951 37.5644 64.2836 37.5644 65.8732V65.8732C37.5644 67.4627 38.8554 68.7512 40.445 68.7512V68.7512ZM69.7424 39.5493C71.3707 39.5493 72.6932 38.2293 72.6932 36.601V36.601C72.6932 34.9727 71.3707 33.6527 69.7424 33.6527V33.6527C68.1141 33.6527 66.7916 34.9727 66.7916 36.601V36.601C66.7916 38.2293 68.1141 39.5493 69.7424 39.5493V39.5493Z" fill="white" fill-opacity="0.6"/>
</svg>
