<svg width="100" height="100" viewBox="0 0 100 100" fill="none" xmlns="http://www.w3.org/2000/svg">
<path d="M74.3771 80H71.4286C69.8759 80 68.6171 78.7413 68.6171 77.1886V77.1886C68.6171 75.6359 69.8759 74.3771 71.4286 74.3771H71.4971C73.0877 74.3771 74.3771 73.0877 74.3771 71.4971V71.4286C74.3771 69.8759 75.6359 68.6171 77.1886 68.6171V68.6171C78.7413 68.6171 80 69.8759 80 71.4286V74.3771C80 75.8857 79.4286 77.1886 78.2857 78.2857C77.1886 79.4286 75.8857 80 74.3771 80ZM62.8571 77.1886C62.8571 78.7413 61.5984 80 60.0457 80H57.0971C55.5444 80 54.2857 78.7413 54.2857 77.1886V77.1886C54.2857 75.6359 55.5444 74.3771 57.0971 74.3771H60.0457C61.5984 74.3771 62.8571 75.6359 62.8571 77.1886V77.1886ZM48.6629 77.1886C48.6629 78.7413 47.4041 80 45.8514 80H42.9029C41.3029 80 39.9314 79.4286 38.7886 78.2857C37.6914 77.1886 37.1429 75.8857 37.1429 74.3771V71.4971C37.1429 69.9066 38.4323 68.6171 40.0229 68.6171V68.6171C41.6134 68.6171 42.9029 69.9066 42.9029 71.4971V71.4971C42.9029 73.0877 44.1923 74.3771 45.7829 74.3771H45.8514C47.4041 74.3771 48.6629 75.6359 48.6629 77.1886V77.1886ZM80 60.0457C80 61.5984 78.7413 62.8571 77.1886 62.8571V62.8571C75.6359 62.8571 74.3771 61.5984 74.3771 60.0457V57.0971C74.3771 55.5444 75.6359 54.2857 77.1886 54.2857V54.2857C78.7413 54.2857 80 55.5444 80 57.0971V60.0457ZM42.9029 59.8572C42.9029 61.514 41.5597 62.8571 39.9029 62.8571H25.76C24.16 62.8571 22.7886 62.3086 21.6457 61.2114C20.5486 60.0686 20 58.7429 20 57.2343V25.76C20 24.16 20.5486 22.8114 21.6457 21.7143C22.7886 20.5714 24.16 20 25.76 20H57.2343C58.7429 20 60.0457 20.5714 61.1429 21.7143C62.2857 22.8114 62.8571 24.16 62.8571 25.76V39.9029C62.8571 41.5597 61.514 42.9029 59.8571 42.9029H45.9029C44.246 42.9029 42.9029 44.246 42.9029 45.9029C42.9029 50.5655 42.9029 55.2169 42.9029 59.8572ZM34.1429 57.2343C35.7997 57.2343 37.1429 55.8911 37.1429 54.2343V42.9029C37.1429 41.3029 37.6914 39.9543 38.7886 38.8571C39.9314 37.7143 41.3029 37.1429 42.9029 37.1429H54.2343C55.8911 37.1429 57.2343 35.7997 57.2343 34.1429V28.76C57.2343 27.1031 55.8911 25.76 54.2343 25.76H28.76C27.1031 25.76 25.76 27.1031 25.76 28.76V54.2343C25.76 55.8911 27.1031 57.2343 28.76 57.2343H34.1429ZM80 45.8514C80 47.4041 78.7413 48.6629 77.1886 48.6629V48.6629C75.6359 48.6629 74.3771 47.4041 74.3771 45.8514V45.7829C74.3771 44.1923 73.0877 42.9029 71.4971 42.9029V42.9029C69.9066 42.9029 68.6171 41.6134 68.6171 40.0229V40.0229C68.6171 38.4323 69.9066 37.1429 71.4971 37.1429H74.3771C75.8857 37.1429 77.1886 37.7143 78.2857 38.8571C79.4286 39.9543 80 41.3029 80 42.9029V45.8514Z" fill="black" fill-opacity="0.6"/>
</svg>
