<svg width="100" height="100" viewBox="0 0 100 100" fill="none" xmlns="http://www.w3.org/2000/svg">
<path d="M56.8112 26.1039C57.6084 26.381 58.215 26.8658 58.6309 27.5584C59.0469 28.2511 59.1335 29.013 58.8909 29.8441L46.8805 71.8182C46.6378 72.5801 46.1699 73.1688 45.4767 73.5844C44.7834 74 44.0209 74.1039 43.189 73.8961C42.3917 73.619 41.7852 73.1169 41.3692 72.3896C40.9533 71.6623 40.8666 70.9177 41.1092 70.1558L53.1197 28.1818C53.3623 27.4199 53.8302 26.8312 54.5235 26.4156C55.2167 26 55.9793 25.8961 56.8112 26.1039ZM64.3501 37.3247V37.4286C64.9393 36.8052 65.6499 36.4935 66.4818 36.4935C67.3137 36.4935 68.0242 36.8052 68.6135 37.4286L79.1161 47.9221C79.7054 48.4762 80 49.1688 80 50C80 50.8312 79.7054 51.5238 79.1161 52.0779L68.6135 62.5715C68.0242 63.1948 67.3137 63.5065 66.4818 63.5065C65.6499 63.5065 64.9393 63.2121 64.3501 62.6234C63.7608 62.0347 63.4662 61.3247 63.4662 60.4935C63.4662 59.6624 63.7608 58.9351 64.3501 58.3117L72.721 50L64.3501 41.5844C63.7608 41.0303 63.4662 40.3377 63.4662 39.5065C63.4662 38.6753 63.7608 37.948 64.3501 37.3247ZM33.5182 36.4935C34.3501 36.4935 35.0607 36.7879 35.65 37.3766C36.2392 37.9654 36.5338 38.6753 36.5338 39.5065C36.5338 40.3377 36.2392 41.0303 35.65 41.5844L27.2271 50L35.65 58.3117C36.2392 58.9351 36.5338 59.6624 36.5338 60.4935C36.5338 61.3247 36.2392 62.0347 35.65 62.6234C35.0607 63.2121 34.3501 63.5065 33.5182 63.5065C32.6863 63.5065 31.9758 63.1948 31.3865 62.5715L20.8839 52.0779C20.2946 51.5238 20 50.8312 20 50C20 49.1688 20.2946 48.4416 20.8839 47.8182L31.3865 37.3247C31.9758 36.7706 32.6863 36.4935 33.5182 36.4935Z" fill="black" fill-opacity="0.6"/>
</svg>
