<svg width="100" height="100" viewBox="0 0 100 100" fill="none" xmlns="http://www.w3.org/2000/svg">
<path d="M25.76 20H57.2343C58.7429 20 60.0457 20.5714 61.1429 21.7143C62.2857 22.8114 62.8571 24.16 62.8571 25.76V34.1429C62.8571 35.7997 64.2003 37.1429 65.8571 37.1429H74.3771C75.8857 37.1429 77.1886 37.7143 78.2857 38.8571C79.4286 39.9543 80 41.3029 80 42.9029V74.3771C80 75.8857 79.4286 77.1886 78.2857 78.2857C77.1886 79.4286 75.8857 80 74.3771 80H42.9029C41.3029 80 39.9314 79.4286 38.7886 78.2857C37.6914 77.1886 37.1429 75.8857 37.1429 74.3771V65.8571C37.1429 64.2003 35.7997 62.8571 34.1429 62.8571H25.76C24.16 62.8571 22.7886 62.3086 21.6457 61.2114C20.5486 60.0686 20 58.7429 20 57.2343V25.76C20 24.16 20.5486 22.8114 21.6457 21.7143C22.7886 20.5714 24.16 20 25.76 20ZM28.76 25.76C27.1031 25.76 25.76 27.1031 25.76 28.76V54.2343C25.76 55.8911 27.1031 57.2343 28.76 57.2343H39.9029C41.5597 57.2343 42.9029 58.5774 42.9029 60.2343V71.3771C42.9029 73.034 44.246 74.3771 45.9029 74.3771H71.3771C73.034 74.3771 74.3771 73.034 74.3771 71.3771V45.9029C74.3771 44.246 73.034 42.9029 71.3771 42.9029H60.2343C58.5774 42.9029 57.2343 41.5597 57.2343 39.9029V28.76C57.2343 27.1031 55.8911 25.76 54.2343 25.76H28.76Z" fill="white" fill-opacity="0.6"/>
</svg>
