<svg width="100" height="100" viewBox="0 0 100 100" fill="none" xmlns="http://www.w3.org/2000/svg">
<path d="M64.72 61.68C65.8246 61.68 66.72 62.5754 66.72 63.68V64.72C66.72 65.8246 65.8246 66.72 64.72 66.72H52C50.8954 66.72 50 65.8246 50 64.72V63.68C50 62.5754 50.8954 61.68 52 61.68H64.72ZM71.28 73.28C72.3846 73.28 73.28 72.3846 73.28 71.28V31.5484C73.28 29.7666 71.1257 28.8743 69.8658 30.1342L30.1342 69.8658C28.8743 71.1257 29.7666 73.28 31.5484 73.28H71.28ZM30.3187 35.04C29.2141 35.04 28.32 35.9354 28.32 37.04V38C28.32 39.1046 29.2154 40 30.32 40H32.96C34.0646 40 34.96 40.8954 34.96 42V44.72C34.96 45.8246 35.8564 46.72 36.9609 46.72C37.3434 46.72 37.6898 46.72 38.0001 46.72C39.1047 46.72 40 45.8246 40 44.72V42C40 40.8954 40.8954 40 42 40H44.72C45.8246 40 46.72 39.1046 46.72 38V37.04C46.72 35.9354 45.8246 35.04 44.72 35.04H42C40.8954 35.04 40 34.1446 40 33.04V30.32C40 29.2154 39.1046 28.32 38 28.32H36.96C35.8554 28.32 34.96 29.2154 34.96 30.32V33.04C34.96 34.1446 34.0635 35.04 32.959 35.04C31.8964 35.04 31.0163 35.04 30.3187 35.04ZM73.28 20C75.1467 20 76.72 20.6667 78 22C79.3333 23.28 80 24.8533 80 26.72V73.28C80 75.1467 79.3333 76.72 78 78C76.72 79.3333 75.1467 80 73.28 80H26.72C24.8533 80 23.2533 79.3333 21.92 78C20.64 76.72 20 75.1467 20 73.28V26.72C20 24.8533 20.64 23.28 21.92 22C23.2533 20.6667 24.8533 20 26.72 20H73.28Z" fill="white" fill-opacity="0.6"/>
</svg>
