<svg width="100" height="100" viewBox="0 0 100 100" fill="none" xmlns="http://www.w3.org/2000/svg">
<path d="M55.1923 59.0144L56.2695 57.1915C57.0467 55.8763 58.9519 55.8828 59.7201 57.2033L68.181 71.7473C68.6751 72.5965 68.4834 73.6852 67.6883 74.2623C65.3985 75.9242 62.8918 77.2359 60.1683 78.1971C56.9471 79.399 53.5577 80 50 80C48.7736 80 47.5133 79.9154 46.2193 79.7462C44.8727 79.5701 44.205 78.0726 44.8833 76.8961L55.1923 59.0144ZM22.2308 61.5766C21.7124 60.3287 22.6742 59.0144 24.0255 59.0144H46.9506C48.4942 59.0144 49.4559 60.6889 48.6782 62.0222L40.1856 76.5808C39.6908 77.4291 38.6501 77.7991 37.7545 77.3962C34.1669 75.7822 30.9651 73.5251 28.149 70.625C25.6042 67.9645 23.6315 64.9484 22.2308 61.5766ZM39.5433 50L41.3224 53.05C42.1002 54.3833 41.1384 56.0577 39.5948 56.0577H22.2391C21.2757 56.0577 20.4426 55.3714 20.3107 54.417C20.1036 52.9188 20 51.4465 20 50C20 46.1538 20.6731 42.476 22.0192 38.9663C23.0387 36.3084 24.4029 33.8986 26.1118 31.7369C26.9372 30.6928 28.5238 30.8859 29.1885 32.039L39.5433 50ZM77.7756 43.9423C78.7325 43.9423 79.5623 44.6193 79.695 45.567C79.8983 47.0192 80 48.4969 80 50C80 53.8462 79.3269 57.5 77.9808 60.9615C76.9617 63.5821 75.5982 65.9959 73.8903 68.2031C73.0672 69.2668 71.4585 69.0866 70.7855 67.9223L58.6579 46.9433C57.8871 45.6099 58.8493 43.9423 60.3894 43.9423H77.7756ZM77.7667 38.4243C78.2875 39.6713 77.3258 40.9856 75.9745 40.9856H53.0494C51.5058 40.9856 50.5441 39.3111 51.3218 37.9778L59.8144 23.4192C60.3092 22.5709 61.3499 22.2008 62.2453 22.6042C65.8272 24.2183 69.0051 26.4752 71.7788 29.375C74.3625 32.0358 76.3584 35.0522 77.7667 38.4243ZM42.3025 45.4239C42.29 45.4457 42.2747 45.4657 42.2569 45.4835C42.1247 45.6157 41.9031 45.5869 41.8091 45.4253L31.819 28.2527C31.3249 27.4035 31.5166 26.315 32.311 25.7368C34.5937 24.0753 37.0766 22.764 39.7596 21.8029C43.0288 20.601 46.4423 20 50 20C51.2279 20 52.4897 20.0848 53.7854 20.2544C55.1306 20.4305 55.7986 21.9256 55.1229 23.1021L42.3025 45.4239Z" fill="black" fill-opacity="0.6"/>
</svg>
