<svg width="100" height="100" viewBox="0 0 100 100" fill="none" xmlns="http://www.w3.org/2000/svg">
<path d="M71.4193 33.912C72.156 33.1753 72.5244 32.2869 72.5244 31.2468C72.5244 30.2067 72.156 29.3183 71.4193 28.5816C70.6826 27.8449 69.7941 27.4766 68.7541 27.4766C67.714 27.4766 66.8256 27.8449 66.0888 28.5816C65.3521 29.3183 64.9837 30.2067 64.9837 31.2468C64.9837 32.2869 65.3521 33.1753 66.0888 33.912C66.8256 34.6487 67.714 35.0171 68.7541 35.0171C69.7941 35.0171 70.6826 34.6487 71.4193 33.912ZM57.5081 31.2468C57.5515 28.1266 58.6566 25.4831 60.8234 23.3163C62.9902 21.1495 65.6338 20.0444 68.7541 20.0011C71.8743 20.0444 74.5179 21.1495 76.6847 23.3163C78.8516 25.4831 79.9567 28.1266 80 31.2468C79.9567 34.367 78.8516 37.0105 76.6847 39.1773C74.5179 41.3441 71.8743 42.4492 68.7541 42.4925C65.6338 42.4492 62.9902 41.3441 60.8234 39.1773C58.6566 37.0105 57.5515 34.367 57.5081 31.2468ZM40.8667 29.1667C39.7833 28.0399 38.4615 27.4766 36.9014 27.4766C35.3413 27.4766 33.9978 28.0399 32.8711 29.1667C31.7443 30.2934 31.2026 31.6152 31.2459 33.1319V52.3732C31.2459 54.1933 30.6392 55.8618 29.4258 57.3785C28.1257 59.0686 27.4756 60.9754 27.4756 63.0989C27.519 65.6991 28.4507 67.9092 30.2709 69.7293C32.091 71.5494 34.3012 72.4595 36.9014 72.4595C39.5016 72.4595 41.7118 71.5494 43.532 69.7293C45.3521 67.9092 46.2622 65.6991 46.2622 63.0989C46.2622 60.9321 45.6121 59.0253 44.312 57.3785C43.0986 55.8618 42.4919 54.1933 42.4919 52.3732V33.1319C42.4919 31.6152 41.9502 30.2934 40.8667 29.1667ZM23.7703 33.1319C23.7703 29.535 25.0488 26.4365 27.6056 23.8363C30.1625 21.2362 33.2611 19.9577 36.9014 20.0011C40.5417 20.0011 43.6403 21.2795 46.1972 23.8363C48.7541 26.3932 50.0325 29.4917 50.0325 33.1319V52.3732V52.4382C50.0325 52.5249 50.0975 52.6332 50.2275 52.7632C52.5677 55.7967 53.7378 59.242 53.7378 63.0989C53.7378 67.7792 52.091 71.7661 48.7974 75.0597C45.5038 78.3532 41.5385 80 36.9014 80C32.221 80 28.234 78.3532 24.9404 75.0597C21.6468 71.7661 20 67.7792 20 63.0989C20 59.242 21.1701 55.7967 23.5103 52.7632C23.6403 52.6332 23.7053 52.5249 23.7053 52.4382L23.7703 52.3732V33.1319ZM42.4919 63.0989C42.4919 64.659 41.9502 66.0024 40.8667 67.1292C39.7833 68.2559 38.4615 68.7976 36.9014 68.7543C35.3413 68.7976 33.9978 68.2559 32.8711 67.1292C31.7443 66.0024 31.2026 64.659 31.2459 63.0989C31.2459 61.8855 31.5926 60.8021 32.286 59.8487C32.9794 58.8953 33.8895 58.2236 35.0163 57.8335V51.8532C35.0596 51.2898 35.2546 50.8348 35.6013 50.4881C35.948 50.1414 36.3814 49.968 36.9014 49.968C37.4215 49.968 37.8548 50.1414 38.2015 50.4881C38.5482 50.8348 38.7216 51.2898 38.7216 51.8532V57.8335C39.8483 58.2236 40.7584 58.8953 41.4518 59.8487C42.1452 60.8021 42.4919 61.8855 42.4919 63.0989Z" fill="white" fill-opacity="0.6"/>
</svg>
