<svg width="100" height="100" viewBox="0 0 100 100" fill="none" xmlns="http://www.w3.org/2000/svg">
<path d="M50.0001 63.9236C50.0001 65.0282 50.8987 65.9374 51.9957 65.8081C54.1301 65.5566 56.1401 64.8945 58.0256 63.8217C60.4884 62.4204 62.4205 60.4884 63.8218 58.0255C65.2231 55.5627 65.9237 52.8875 65.9237 50C65.9237 47.1126 65.2231 44.4374 63.8218 41.9745C62.4205 39.5117 60.4884 37.5796 58.0256 36.1784C56.1401 35.1056 54.1301 34.4434 51.9957 34.1919C50.8987 34.0627 50.0001 34.9719 50.0001 36.0764V63.9236ZM71.8496 58.2696C71.4808 58.6438 71.274 59.1481 71.274 59.6735V69.2739C71.274 70.3784 70.3786 71.2739 69.274 71.2739H59.6736C59.1481 71.2739 58.6438 71.4806 58.2696 71.8494L51.404 78.6163C50.6254 79.3837 49.3748 79.3837 48.5962 78.6163L41.7305 71.8494C41.3563 71.4806 40.852 71.2739 40.3266 71.2739H30.7261C29.6216 71.2739 28.7261 70.3784 28.7261 69.2739V59.6735C28.7261 59.1481 28.5194 58.6438 28.1506 58.2696L21.3837 51.404C20.6163 50.6253 20.6163 49.3747 21.3837 48.5961L28.1506 41.7305C28.5194 41.3563 28.7261 40.852 28.7261 40.3266V30.7261C28.7261 29.6216 29.6216 28.7261 30.7261 28.7261H40.3266C40.852 28.7261 41.3563 28.5194 41.7305 28.1505L48.5961 21.3837C49.3748 20.6163 50.6254 20.6163 51.404 21.3837L58.2696 28.1505C58.6438 28.5194 59.1481 28.7261 59.6736 28.7261H69.274C70.3786 28.7261 71.274 29.6216 71.274 30.7261V40.3266C71.274 40.852 71.4808 41.3563 71.8496 41.7305L78.6163 48.5961C79.3837 49.3747 79.3837 50.6253 78.6163 51.4039L71.8496 58.2696Z" fill="white" fill-opacity="0.6"/>
</svg>
