<svg width="100" height="100" viewBox="0 0 100 100" fill="none" xmlns="http://www.w3.org/2000/svg">
<path d="M39.4086 68.0283C39.9018 68.0283 40.3184 68.3885 40.4149 68.8722C40.7058 70.3311 41.1611 71.7294 41.8174 73.0371C42.896 75.606 44.1786 78.0952 45.8281 79.7139C45.9341 79.8178 45.8617 80 45.7132 80H29.0146C26.3704 80 24.2071 79.1583 22.5244 77.4756C20.8417 75.7929 20 73.6296 20 70.9854V70.0283C20.0003 68.924 20.8956 68.0283 22 68.0283H39.4086ZM53.5189 61.1602C53.4394 61.4262 53.3725 61.6972 53.3136 61.9713C53.3138 61.9713 53.3135 61.9715 53.3136 61.9713C53.3133 61.9713 53.3126 61.9714 53.3126 61.9711C53.3714 61.6969 53.4394 61.4262 53.5189 61.1602ZM70.9854 20C73.6296 20 75.7929 20.8417 77.4756 22.5244C79.1583 24.2071 80 26.3704 80 29.0146V29.9717C79.9997 31.076 79.1044 31.9717 78 31.9717H76.0869C74.9826 31.9717 74.0872 31.076 74.0869 29.9717V29.0146C74.0869 28.0532 73.7986 27.3072 73.2217 26.7783C72.6928 26.2014 71.9711 25.9131 71.0576 25.9131C70.1443 25.9131 69.3991 26.2017 68.8223 26.7783C68.2935 27.3072 68.0283 28.0531 68.0283 29.0146V45.2762C68.0283 45.6145 67.664 45.8288 67.3643 45.6719L67.291 45.6328L67.2168 45.5977C64.9019 44.4819 62.3722 44 59.7539 44C56.9951 44 54.3006 44.3484 51.9902 45.375L51.9824 45.3789L51.9746 45.3818C49.6708 46.4153 47.6025 47.7387 45.8662 49.4062L45.8291 49.4424L45.792 49.4795C43.9836 51.2902 42.586 53.4435 41.5605 55.8584L41.5371 55.9131C40.87 57.5384 40.4394 59.2642 40.2085 61.0635C40.1427 61.5767 39.7132 61.9717 39.1958 61.9717H31.0146C29.9103 61.9717 29.0149 61.076 29.0146 59.9717V29.0146C29.0146 26.3707 29.8557 24.2071 31.5381 22.5244C33.2207 20.8418 35.3843 20.0001 38.0283 20H70.9854ZM64.252 57.3584C64.3772 57.451 64.5076 57.5504 64.6445 57.6553C64.4435 57.5013 64.254 57.3618 64.0781 57.2344C64.1343 57.275 64.1932 57.315 64.252 57.3584Z" fill="white" fill-opacity="0.6"/>
<path d="M59.7537 49C61.7583 49 63.5223 49.3672 65.0458 50.1015C66.298 50.7568 67.3709 51.4601 68.2646 52.2114C68.6749 52.5563 68.6915 53.1694 68.3325 53.5673L65.2629 56.9698C64.9139 57.3567 64.3283 57.4073 63.903 57.1061C63.331 56.7011 62.9064 56.451 62.6292 56.3558C62.5324 56.3226 62.4333 56.2938 62.3371 56.2592C62.2062 56.212 62.0133 56.1527 61.7583 56.0812C61.3841 55.9763 61.0367 55.8976 60.7159 55.8452C60.4219 55.7971 60.1279 55.749 59.8339 55.7009C59.7805 55.6922 59.7265 55.6876 59.6725 55.6884C58.794 55.7005 57.9658 55.9102 57.1879 56.3173C56.2791 56.7369 55.5575 57.3139 55.0229 58.0482C54.5151 58.6777 54.0607 59.5694 53.6598 60.7234C53.2589 61.8773 53.0584 63.11 53.0584 64.4213C53.0584 67.3587 53.7132 69.4831 55.0229 70.7944C56.386 72.3156 58.0832 73.0761 60.1145 73.0761C61.1569 73.0761 62.079 72.8926 62.8809 72.5254C63.3841 72.264 63.8299 71.9704 64.2184 71.6447C64.694 71.2459 65.4262 71.2161 65.842 71.677L68.7732 74.926C69.1158 75.3058 69.1193 75.8857 68.7538 76.2435C67.7021 77.2731 66.4661 78.1581 65.0458 78.8985C63.5223 79.6328 61.7583 80 59.7537 80C57.8026 80 55.8916 79.6853 54.0206 79.0558C52.2833 78.4788 50.7197 77.5085 49.3299 76.1447C48.4212 75.253 47.4322 73.522 46.3631 70.9518C45.4544 69.2208 45 67.044 45 64.4213C45 61.9036 45.3876 59.7005 46.1627 57.8122C46.9645 55.9239 48.0202 54.324 49.3299 53.0127C50.5861 51.8063 52.1497 50.7834 54.0206 49.9442C55.4372 49.3147 57.3482 49 59.7537 49ZM72.9038 59.599C72.9038 59.0467 73.3515 58.599 73.9038 58.599H75.2715C75.8238 58.599 76.2715 59.0467 76.2715 59.599V61.4543C76.2715 62.0066 76.7192 62.4543 77.2715 62.4543H79C79.5523 62.4543 80 62.902 80 63.4543V64.7589C80 65.3112 79.5523 65.7589 79 65.7589H77.2715C76.7192 65.7589 76.2715 66.2066 76.2715 66.7589V68.7716C76.2715 69.3239 75.8238 69.7716 75.2715 69.7716H73.9038C73.3515 69.7716 72.9038 69.3239 72.9038 68.7716V66.7589C72.9038 66.2066 72.4561 65.7589 71.9038 65.7589H70.1753C69.623 65.7589 69.1753 65.3112 69.1753 64.7589V63.4543C69.1753 62.902 69.623 62.4543 70.1753 62.4543H71.9038C72.4561 62.4543 72.9038 62.0066 72.9038 61.4543V59.599ZM61.7182 60.3858C61.7182 59.8335 62.1659 59.3858 62.7182 59.3858H63.4444C63.9967 59.3858 64.4444 59.8335 64.4444 60.3858V61.6904C64.4444 62.2426 64.8922 62.6904 65.4444 62.6904H66.6117C67.164 62.6904 67.6117 63.1381 67.6117 63.6904V64.3655C67.6117 64.9178 67.164 65.3655 66.6117 65.3655H65.4444C64.8922 65.3655 64.4444 65.8132 64.4444 66.3655V67.8274C64.4444 68.3797 63.9967 68.8274 63.4444 68.8274H62.7182C62.1659 68.8274 61.7182 68.3797 61.7182 67.8274V66.3655C61.7182 65.8132 61.2705 65.3655 60.7182 65.3655H59.551C58.9987 65.3655 58.551 64.9178 58.551 64.3655V63.6904C58.551 63.1381 58.9987 62.6904 59.551 62.6904H60.7182C61.2705 62.6904 61.7182 62.2426 61.7182 61.6904V60.3858Z" fill="white" fill-opacity="0.7"/>
</svg>
