<svg width="100" height="100" viewBox="0 0 100 100" fill="none" xmlns="http://www.w3.org/2000/svg">
<path d="M25.9155 63.0699C25.9155 64.1746 26.8273 65.1032 27.8942 64.8165C30.1138 64.2201 31.955 62.573 33.4155 59.8767C34.8094 57.4244 36.3461 52.9047 38.0282 46.3204C39.23 41.8978 40.2167 38.6516 40.9859 36.5845C42.3318 33.22 43.8458 30.6965 45.5282 29.0141C47.5473 26.947 50.0475 25.9155 53.0281 25.9155C56.0085 25.9156 58.4868 26.947 60.4577 29.0141C60.9287 29.4598 61.3768 29.9661 61.8046 30.5315C62.5562 31.5249 63.9857 31.8025 64.9971 31.0753C69.1639 28.0789 73.4974 26.3853 78.0023 26.0004C79.1029 25.9063 80 26.8109 80 27.9155V29.9718C80 31.0764 79.1015 31.9594 78.0048 32.0911C74.1035 32.5595 70.3047 34.4076 66.6067 37.6322C66.0121 38.1507 65.8145 38.9822 66.0574 39.7327C66.6401 41.5335 67.2767 43.7519 67.9577 46.3908C69.1115 50.8618 70.1206 54.1358 70.9859 56.203C72.1387 59.1324 73.3629 61.294 74.6596 62.6878C75.6522 63.7444 76.7745 64.4504 78.0241 64.8042C79.0869 65.105 80 65.9658 80 67.0704V68.9859C80 70.0905 79.1003 71.0028 78.0056 70.8555C75.2876 70.4899 72.8975 69.3555 70.8392 67.453C68.7724 65.4823 66.9948 62.5714 65.5047 58.7265C64.5432 56.4189 63.4107 52.8085 62.1126 47.9049C62.0775 47.7764 62.0425 47.6489 62.0076 47.5223C61.5748 45.9515 59.5637 45.5854 58.648 46.933C57.68 48.3575 56.7193 49.8838 55.7688 51.5141C51.8271 57.7149 47.2347 62.5198 41.9953 65.933C37.29 68.9828 32.4457 70.6547 27.4639 70.9414C26.6097 70.9906 25.9155 71.6795 25.9155 72.5351C25.9155 73.3908 26.6092 74.0845 27.4648 74.0845H78C79.1046 74.0845 80 74.9799 80 76.0845V78C80 79.1046 79.1046 80 78 80H22C20.8954 80 20 79.1046 20 78V22C20 20.8954 20.8954 20 22 20H23.9155C25.0201 20 25.9155 20.8954 25.9155 22V63.0699ZM52.9578 31.9718C50.891 31.9718 49.1581 33.4361 47.7641 36.3673C46.7066 38.4343 45.3831 42.2814 43.7969 47.9049C42.5951 52.8085 41.5131 56.4189 40.5516 58.7265C40.4095 59.0932 40.8317 59.419 41.1363 59.1704C44.595 56.3482 47.6518 52.699 50.2876 48.1983C52.823 43.9861 55.4389 40.372 58.1293 37.3542C58.3695 37.0848 58.4506 36.6916 58.2922 36.3673C56.8026 33.4369 55.0236 31.9729 52.9578 31.9718Z" fill="black" fill-opacity="0.6"/>
</svg>
