<svg width="100" height="100" viewBox="0 0 100 100" fill="none" xmlns="http://www.w3.org/2000/svg">
<path d="M40.6061 29.625V32.4134C40.6061 33.5179 41.5015 34.4134 42.6061 34.4134H57.3921C58.4966 34.4134 59.3921 33.5179 59.3921 32.4134V29.625C59.3921 29.0128 59.067 28.7067 58.417 28.7067H41.5811C40.9311 28.7067 40.6061 29.0128 40.6061 29.625ZM33.0158 34.4134C34.1204 34.4134 35.0158 33.5179 35.0158 32.4134V29.625C34.9725 27.8321 35.6008 26.2797 36.9009 24.9678C38.201 23.6559 39.761 23 41.5811 23H58.417C60.1938 23 61.7322 23.6559 63.0323 24.9678C64.3323 26.2797 64.9824 27.8321 64.9824 29.625V32.4134C64.9824 33.5179 65.8778 34.4134 66.9824 34.4134H68.2975C69.8576 34.4134 71.1793 34.96 72.2627 36.0532L78.3731 42.2191C79.4564 43.3123 79.9981 44.646 79.9981 46.2203V53.2067C79.9981 54.3113 79.1027 55.2067 77.9981 55.2067H66.8846C65.834 55.2067 64.9824 54.355 64.9824 53.3045C64.9824 52.2549 64.6357 51.3585 63.9423 50.6151C63.2489 49.8717 62.3606 49.5 61.2772 49.5C60.2371 49.5 59.3487 49.8717 58.612 50.6151C57.8753 51.3585 57.507 52.2549 57.507 53.3045C57.507 54.355 56.6553 55.2067 55.6047 55.2067H44.3934C43.3428 55.2067 42.4912 54.355 42.4912 53.3045C42.4912 52.2549 42.1228 51.3585 41.3861 50.6151C40.6494 49.8717 39.761 49.5 38.721 49.5C37.6809 49.5 36.8142 49.8717 36.1208 50.6151C35.4275 51.3585 35.0591 52.2549 35.0158 53.3045C35.0158 54.355 34.1641 55.2067 33.1136 55.2067H22C20.8954 55.2067 20 54.3113 20 53.2067V46.2203C20 44.646 20.5417 43.3123 21.6251 42.2191L27.7354 36.0532C28.8188 34.96 30.1405 34.4134 31.7006 34.4134H33.0158ZM20 68.4567V61.0111C20 59.9066 20.8954 59.0111 22 59.0111H33.1792C34.1935 59.0111 35.0158 59.8334 35.0158 60.8478C35.0591 61.8973 35.4275 62.7937 36.1208 63.5371C36.8142 64.2805 37.6809 64.6522 38.721 64.6522C39.761 64.6522 40.6494 64.2805 41.3861 63.5371C42.1228 62.7937 42.4912 61.8973 42.4912 60.8478C42.4912 59.8334 43.3135 59.0111 44.3278 59.0111H55.6703C56.6847 59.0111 57.507 59.8334 57.507 60.8478C57.507 61.8973 57.8753 62.7937 58.612 63.5371C59.3487 64.2805 60.2371 64.6522 61.2772 64.6522C62.3606 64.6522 63.2489 64.2805 63.9423 63.5371C64.6357 62.7937 64.9824 61.8973 64.9824 60.8478C64.9824 59.8334 65.8046 59.0111 66.819 59.0111H77.9981C79.1027 59.0111 79.9981 59.9066 79.9981 61.0111V68.4567C80.0415 70.512 79.3264 72.283 77.853 73.7698C76.3796 75.2566 74.6029 76 72.5227 76H27.4754C25.4386 76 23.6835 75.2566 22.2101 73.7698C20.7367 72.283 20 70.512 20 68.4567Z" fill="white" fill-opacity="0.6"/>
</svg>
