<svg width="100" height="100" viewBox="0 0 100 100" fill="none" xmlns="http://www.w3.org/2000/svg">
<path d="M47.4072 68.5254C47.4072 68.94 46.9167 69.1866 46.5467 68.9995C45.182 68.3093 43.5044 68.2183 41.9746 69.0176L41.7402 69.1475L38.7598 70.9033C36.6036 72.1735 35.4975 75.1052 36.9707 77.6377C37.0811 77.8274 37.1947 78.0128 37.3114 78.1937C37.7842 78.9265 37.294 80 36.4219 80H29.0146C26.3704 80 24.2071 79.1583 22.5244 77.4756C20.8417 75.7929 20 73.6296 20 70.9854V70.0283C20.0003 68.924 20.8956 68.0283 22 68.0283H46.9101C47.1847 68.0283 47.4072 68.2509 47.4072 68.5254ZM58.6401 79.5494C58.7437 79.4171 58.9415 79.4085 59.0571 79.5305C59.0908 79.566 59.1246 79.6013 59.1586 79.6364C59.2889 79.7708 59.2019 80 59.0146 80H58.8502C58.6227 80 58.4997 79.7285 58.6401 79.5494ZM62.7383 77.5146C62.712 77.4924 62.6843 77.4718 62.6582 77.4492L62.4062 77.2227C62.5144 77.3232 62.6259 77.4196 62.7383 77.5146ZM46.5537 74.5596C46.5464 74.5548 46.5385 74.5508 46.5312 74.5459L46.4258 74.4688C46.4672 74.5008 46.5099 74.5308 46.5537 74.5596ZM70.9854 20C73.6296 20 75.7929 20.8417 77.4756 22.5244C79.1583 24.2071 80 26.3704 80 29.0146V29.9717C79.9997 31.076 79.1044 31.9717 78 31.9717H76.0869C74.9826 31.9717 74.0872 31.076 74.0869 29.9717V29.0146C74.0869 28.0532 73.7986 27.3072 73.2217 26.7783C72.6928 26.2014 71.9711 25.9131 71.0576 25.9131C70.1443 25.9131 69.3991 26.2017 68.8223 26.7783C68.2935 27.3072 68.0283 28.0531 68.0283 29.0146V47.2775C68.0283 47.7771 67.6585 48.1961 67.1685 48.2939C65.05 48.7169 63.0968 49.6195 61.4551 51.1318C61.1754 51.3895 60.7037 51.2868 60.5251 50.9511C59.685 49.3718 58.024 48.2959 56.1104 48.2959H52.4072C49.6459 48.2959 47.4074 50.5347 47.4072 53.2959V60.9717C47.4072 61.524 46.9595 61.9717 46.4072 61.9717H31.0146C29.9103 61.9717 29.0149 61.076 29.0146 59.9717V29.0146C29.0146 26.3707 29.8557 24.2071 31.5381 22.5244C33.2207 20.8418 35.3843 20.0001 38.0283 20H70.9854Z" fill="white" fill-opacity="0.6"/>
<path d="M48.5553 80C51.157 80 53.2333 79.284 54.7842 77.8519C56.3352 76.4198 57.1107 74.2963 57.1107 71.4815V53.2963C57.1107 52.744 56.663 52.2963 56.1107 52.2963H52.4071C51.8548 52.2963 51.4071 52.744 51.4071 53.2963V71.4074C51.4071 73.7778 50.3815 74.963 48.3302 74.963C47.4296 75.0123 46.7292 74.7901 46.2289 74.2963C45.8901 73.9619 45.5398 73.5143 45.1781 72.9534C44.8737 72.4814 44.2543 72.3088 43.7704 72.5939L40.79 74.3495C40.343 74.6128 40.1671 75.1777 40.4279 75.6261C42.1242 78.542 44.8333 80 48.5553 80ZM61.0274 73.7543C60.5583 74.0157 60.3754 74.6043 60.6556 75.0624C62.6691 78.3541 65.9652 80 70.5441 80C73.3458 80 75.6223 79.3086 77.3734 77.9259C79.1245 76.5432 80 74.6173 80 72.1481C80 69.9259 79.3996 68.1728 78.1989 66.8889C76.9981 65.6049 75.0719 64.4198 72.4203 63.3333L70.9944 62.7407C69.6435 62.2469 68.718 61.7531 68.2176 61.2593C67.7173 60.7654 67.4672 60.1235 67.4672 59.3333C67.4672 58.642 67.7173 58.0494 68.2176 57.5556C68.718 57.0617 69.3934 56.8395 70.2439 56.8889C71.4147 56.8889 72.4226 57.4195 73.2676 58.4806C73.6192 58.922 74.242 59.0859 74.7205 58.7868L77.5278 57.0318C77.9855 56.7457 78.1381 56.1442 77.8262 55.7036C76.0779 53.2346 73.5505 52 70.2439 52C67.6923 52 65.666 52.6914 64.1651 54.0741C62.6642 55.4568 61.9137 57.2346 61.9137 59.4074C61.9137 61.5802 62.4891 63.3086 63.6398 64.5926C64.7905 65.8765 66.4916 66.9877 68.743 67.9259L70.1689 68.5185C71.7198 69.1111 72.7955 69.6543 73.3959 70.1481C73.9962 70.642 74.2964 71.3333 74.2964 72.2222C74.2464 73.1111 73.8712 73.8025 73.1707 74.2963C72.4703 74.7901 71.5447 75.037 70.394 75.037C68.3407 75.037 66.6689 74.171 65.3786 72.439C65.0552 72.0049 64.4641 71.8394 63.9912 72.1029L61.0274 73.7543Z" fill="white" fill-opacity="0.7"/>
</svg>
