<svg width="100" height="100" viewBox="0 0 100 100" fill="none" xmlns="http://www.w3.org/2000/svg">
<path d="M20 20H43.1116V20.3011C43.1116 22.1581 43.7892 23.7641 45.1442 25.1192C46.4993 26.4743 48.1304 27.1518 50.0376 27.1518C51.9447 27.1016 53.5508 26.4241 54.8557 25.1192C56.1606 23.8143 56.8381 22.2083 56.8883 20.3011V20H80V80H20V20ZM33.9272 52.2961L38.5194 73.601H42.5094L45.6712 59.1468H45.7465L48.6825 73.601H52.5972L57.6412 52.2961H53.8018L50.6398 66.9762L47.7038 52.2961H43.9397L40.7026 66.8256H40.6273L37.9171 52.2961H33.9272ZM62.1581 52.2961L57.0389 73.601H61.0288L62.0828 68.8582H69.1594L70.5144 73.601H74.655L68.4065 52.2961H62.1581ZM64.5671 57.5659H66.2233L68.1807 65.3952H62.8356L64.5671 57.5659Z" fill="black" fill-opacity="0.6"/>
</svg>
