<svg width="100" height="100" viewBox="0 0 100 100" fill="none" xmlns="http://www.w3.org/2000/svg">
<path d="M27.8985 36.9677C29.3655 38.4348 30.099 39.1683 30.4579 39.8703C30.7882 40.5162 30.8513 40.7147 30.9548 41.4327C31.0673 42.2131 30.7994 43.7778 30.2635 46.9072C30.0736 48.0159 29.9747 49.1556 29.9747 50.3184C29.9749 61.3924 38.9517 70.3699 50.0255 70.3701C52.0841 70.3701 54.0701 70.0593 55.9394 69.4826C57.8982 68.8782 60.1027 69.1729 61.5522 70.6224C63.9279 72.9981 63.1174 77.0069 59.8508 77.7929C56.6928 78.5527 53.4006 78.9639 50.0255 78.9639C31.0058 78.9637 14.6089 65.937 10.0792 50.8574C9.97357 50.5059 9.97365 50.1328 10.0792 49.7812C11.4548 45.2015 13.9251 40.811 17.231 36.9173C18.7388 35.1414 19.4926 34.2534 20.8068 33.8096C21.6144 33.5369 22.7883 33.4891 23.6154 33.6952C24.9613 34.0305 25.9404 35.0096 27.8985 36.9677ZM50.0255 21.6738C69.0455 21.6738 85.4432 34.7013 89.9728 49.7812C90.0783 50.1328 90.0784 50.5059 89.9728 50.8574C88.728 55.0012 86.5867 58.9895 83.7412 62.5952C82.0853 64.6936 81.2574 65.7427 79.7434 66.1953C79.0845 66.3923 78.1268 66.4485 77.4494 66.33C75.8929 66.0576 74.7741 64.9387 72.5365 62.7009C71.0199 61.1841 70.2616 60.4258 69.8957 59.6797C69.652 59.1827 69.6045 59.0447 69.4911 58.503C69.3207 57.6896 69.5222 56.0593 69.9251 52.7986C70.0255 51.986 70.0772 51.1582 70.0772 50.3184C70.0771 39.2443 61.0995 30.2666 50.0255 30.2666C48.2507 30.2666 46.5298 30.4972 44.8911 30.93C43.0069 31.4277 40.9324 31.0964 39.5543 29.7183C37.1606 27.3246 38.0313 23.2861 41.3432 22.5855C44.1499 21.9917 47.0556 21.6738 50.0255 21.6738ZM50.7235 59.7927C51.4675 60.5367 51.0797 61.7773 50.0274 61.7773C43.6995 61.7773 38.5696 56.6473 38.5694 50.3193C38.5694 49.2663 39.8087 48.878 40.5534 49.6226L50.7235 59.7927ZM50.0274 38.8613C56.3554 38.8614 61.4855 43.9912 61.4855 50.3193C61.4854 50.8275 60.8808 51.0457 60.5215 50.6864L49.6599 39.824C49.3004 39.4644 49.5189 38.8613 50.0274 38.8613Z" fill="black" fill-opacity="0.5"/>
<path d="M78.9329 72.8791L27.8904 21.8357C26.3243 20.2696 23.7851 20.2696 22.219 21.8357C20.6529 23.4019 20.6529 25.9411 22.219 27.5072L73.2615 78.5506C74.8276 80.1167 77.3668 80.1167 78.9329 78.5506C80.499 76.9845 80.499 74.4452 78.9329 72.8791Z" fill="black" fill-opacity="0.6"/>
</svg>
