<svg width="100" height="100" viewBox="0 0 100 100" fill="none" xmlns="http://www.w3.org/2000/svg">
<path d="M27.8984 36.9677C29.3654 38.4348 30.0989 39.1683 30.4578 39.8703C30.7881 40.5162 30.8512 40.7147 30.9547 41.4327C31.0672 42.2131 30.7993 43.7778 30.2634 46.9072C30.0735 48.0159 29.9746 49.1556 29.9746 50.3184C29.9748 61.3924 38.9516 70.3699 50.0254 70.3701C52.084 70.3701 54.07 70.0593 55.9393 69.4826C57.8981 68.8782 60.1026 69.1729 61.5521 70.6224V70.6224C63.9278 72.9981 63.1173 77.0069 59.8507 77.7929C56.6927 78.5527 53.4005 78.9639 50.0254 78.9639C31.0057 78.9637 14.6088 65.937 10.0791 50.8574C9.97351 50.5059 9.97359 50.1328 10.0791 49.7812C11.4547 45.2015 13.925 40.811 17.2309 36.9173C18.7387 35.1414 19.4926 34.2534 20.8067 33.8096C21.6143 33.5369 22.7882 33.4891 23.6153 33.6952C24.9612 34.0305 25.9403 35.0096 27.8984 36.9677V36.9677ZM50.0254 21.6738C69.0454 21.6738 85.4431 34.7013 89.9727 49.7812C90.0782 50.1328 90.0783 50.5059 89.9727 50.8574C88.7279 55.0012 86.5866 58.9895 83.7411 62.5952C82.0852 64.6936 81.2573 65.7427 79.7433 66.1953C79.0844 66.3923 78.1267 66.4485 77.4493 66.33C75.8928 66.0576 74.774 64.9387 72.5364 62.7009V62.7009C71.0198 61.1841 70.2615 60.4258 69.8956 59.6797C69.6519 59.1827 69.6044 59.0447 69.491 58.503C69.3206 57.6896 69.5221 56.0593 69.925 52.7986C70.0254 51.986 70.0771 51.1582 70.0771 50.3184C70.077 39.2443 61.0994 30.2666 50.0254 30.2666C48.2506 30.2666 46.5297 30.4972 44.891 30.93C43.0068 31.4277 40.9323 31.0964 39.5542 29.7183V29.7183C37.1605 27.3246 38.0312 23.2861 41.3431 22.5855C44.1498 21.9917 47.0555 21.6739 50.0254 21.6738ZM50.7234 59.7927C51.4674 60.5367 51.0796 61.7773 50.0273 61.7773V61.7773C43.6994 61.7773 38.5695 56.6473 38.5693 50.3193V50.3193C38.5693 49.2663 39.8086 48.878 40.5533 49.6226L50.7234 59.7927ZM50.0273 38.8613C56.3553 38.8614 61.4854 43.9912 61.4854 50.3193V50.3193C61.4853 50.8275 60.8807 51.0457 60.5214 50.6864L49.6598 39.824C49.3003 39.4644 49.5188 38.8613 50.0273 38.8613V38.8613Z" fill="white" fill-opacity="0.5"/>
<rect width="80.2062" height="8.02062" rx="4.01031" transform="matrix(0.707101 0.707113 -0.707101 0.707113 25.0547 19)" fill="white" fill-opacity="0.6"/>
</svg>
