<svg width="100" height="100" viewBox="0 0 100 100" fill="none" xmlns="http://www.w3.org/2000/svg">
<path d="M36.1812 70.0006C38.5086 71.0708 40 73.3981 40 75.9599C40 80.7475 35.0368 83.9221 30.6904 81.9144L12.167 73.3582C10.7226 72.6649 10.0001 71.5382 10 69.9783C10 68.4182 10.7224 67.2908 12.167 66.5974L16.3139 64.6968C18.9633 63.4825 22.0105 63.4844 24.6583 64.702L36.1812 70.0006ZM36.1812 50.066C38.5086 51.1363 40 53.4636 40 56.0253C40 60.8129 35.0368 63.9875 30.6904 61.9798L12.167 53.4236C10.7224 52.7302 10 51.5738 10 49.9558C10.0001 48.4537 10.7226 47.3562 12.167 46.6629L16.3139 44.7622C18.9633 43.5479 22.0105 43.5498 24.6583 44.7674L36.1812 50.066ZM46.3164 10.7801C48.8011 9.73998 51.2567 9.73998 53.6836 10.7801L87.833 26.5545C89.2776 27.2479 90 28.4034 90 30.0213C90 31.6392 89.2776 32.7947 87.833 33.4881L75.7318 39.078C74.4172 39.6853 72.9864 39.9998 71.5383 39.9998H50C49.5464 39.9998 49.0998 40.03 48.6621 40.0885C42.8458 40.8662 36.0037 44.4989 30.6765 42.0381L12.167 33.4881C10.7224 32.7947 10 31.6392 10 30.0213C10 28.4034 10.7224 27.2479 12.167 26.5545L46.3164 10.7801Z" fill="black" fill-opacity="0.5"/>
<path d="M68.2974 45C70.5676 45 72.6036 45.253 74.4054 45.7589C76.2432 46.2287 77.7928 46.9334 79.054 47.873C80.3153 48.7765 81.2883 49.8968 81.973 51.234C82.6577 52.5711 83 54.0709 83 55.7332C83 58.4437 82.4775 60.7385 81.4324 62.6177C80.3874 64.4969 78.9459 66.0147 77.1081 67.1712C75.2703 68.3276 73.1081 69.1588 70.6217 69.6648C68.1352 70.1707 65.4325 70.4237 62.5136 70.4237H61.9812C61.0569 70.4237 60.253 71.057 60.0367 71.9557L57.7471 81.468C57.5308 82.3666 56.727 83 55.8027 83H51.5318C50.24 83 49.2871 81.7937 49.5861 80.537L57.5096 47.2415C57.6928 46.4719 58.3119 45.8796 59.0924 45.7508C60.5684 45.5073 61.9791 45.3293 63.3244 45.2168C65.0901 45.0723 66.7478 45 68.2974 45ZM67.5946 52.1013C66.982 52.1013 66.4595 52.1194 66.0271 52.1555V52.1555C65.2536 52.2201 64.6097 52.7756 64.4324 53.5313L62.6167 61.27C62.3707 62.3185 63.1663 63.3224 64.2433 63.3224V63.3224C65.7568 63.3224 67.1262 63.214 68.3514 62.9971C69.6127 62.7442 70.6757 62.3466 71.5405 61.8046C72.4414 61.2625 73.1261 60.5758 73.5946 59.7447C74.0991 58.8773 74.3513 57.8293 74.3513 56.6006C74.3513 54.9743 73.7567 53.8179 72.5675 53.1312C71.4144 52.4446 69.7568 52.1013 67.5946 52.1013Z" fill="#E56D17"/>
</svg>
