<svg width="100" height="100" viewBox="0 0 100 100" fill="none" xmlns="http://www.w3.org/2000/svg">
<path d="M36.1812 70.0008C38.5086 71.071 40 73.3983 40 75.9601C40 80.7477 35.0368 83.9223 30.6904 81.9146L12.167 73.3584C10.7226 72.6651 10.0001 71.5384 10 69.9785C10 68.4184 10.7224 67.291 12.167 66.5977L16.3139 64.697C18.9633 63.4827 22.0105 63.4846 24.6583 64.7022L36.1812 70.0008ZM36.1812 50.0662C38.5086 51.1365 40 53.4638 40 56.0255C40 60.8131 35.0368 63.9877 30.6904 61.98L12.167 53.4238C10.7224 52.7304 10 51.574 10 49.9561C10.0001 48.4539 10.7226 47.3564 12.167 46.6631L16.3139 44.7624C18.9633 43.5481 22.0105 43.55 24.6583 44.7676L36.1812 50.0662ZM46.3164 10.7803C48.8011 9.74019 51.2567 9.74019 53.6836 10.7803L87.833 26.5547C89.2776 27.2481 90 28.4036 90 30.0215C90 31.6394 89.2776 32.7949 87.833 33.4883L75.7318 39.0782C74.4172 39.6855 72.9864 40 71.5383 40H50C49.5464 40 49.0998 40.0302 48.6621 40.0887C42.8458 40.8664 36.0037 44.4991 30.6765 42.0383L12.167 33.4883C10.7224 32.7949 10 31.6394 10 30.0215C10 28.4036 10.7224 27.2481 12.167 26.5547L46.3164 10.7803Z" fill="white" fill-opacity="0.5"/>
<path d="M67.2974 44C69.5676 44 71.6036 44.253 73.4054 44.7589C75.2432 45.2287 76.7928 45.9334 78.054 46.873C79.3153 47.7765 80.2883 48.8968 80.973 50.234C81.6577 51.5711 82 53.0709 82 54.7332C82 57.4437 81.4775 59.7385 80.4324 61.6177C79.3874 63.4969 77.9459 65.0147 76.1081 66.1712C74.2703 67.3276 72.1081 68.1588 69.6217 68.6648C67.1352 69.1707 64.4325 69.4237 61.5136 69.4237H60.9812C60.0569 69.4237 59.253 70.057 59.0367 70.9557L56.7471 80.468C56.5308 81.3666 55.727 82 54.8027 82H50.5318C49.24 82 48.2871 80.7937 48.5861 79.537L56.5096 46.2415C56.6928 45.4719 57.3119 44.8796 58.0924 44.7508C59.5684 44.5073 60.9791 44.3293 62.3244 44.2168C64.0901 44.0723 65.7478 44 67.2974 44ZM66.5946 51.1013C65.982 51.1013 65.4595 51.1194 65.0271 51.1555V51.1555C64.2536 51.2201 63.6097 51.7756 63.4324 52.5313L61.6167 60.27C61.3707 61.3185 62.1663 62.3224 63.2433 62.3224V62.3224C64.7568 62.3224 66.1262 62.214 67.3514 61.9971C68.6127 61.7442 69.6757 61.3466 70.5405 60.8046C71.4414 60.2625 72.1261 59.5758 72.5946 58.7447C73.0991 57.8773 73.3513 56.8293 73.3513 55.6006C73.3513 53.9743 72.7567 52.8179 71.5675 52.1312C70.4144 51.4446 68.7568 51.1013 66.5946 51.1013Z" fill="#E08855"/>
</svg>
