<svg width="100" height="100" viewBox="0 0 100 100" fill="none" xmlns="http://www.w3.org/2000/svg">
<path d="M36.1812 70.0008C38.5086 71.071 40 73.3983 40 75.9601V75.9601C40 80.7477 35.0368 83.9223 30.6904 81.9146L12.167 73.3584C10.7226 72.6651 10.0001 71.5384 10 69.9785C10 68.4184 10.7224 67.291 12.167 66.5977L16.3139 64.697C18.9633 63.4827 22.0105 63.4846 24.6583 64.7022L36.1812 70.0008ZM36.1812 50.0662C38.5086 51.1365 40 53.4638 40 56.0255V56.0255C40 60.8131 35.0368 63.9877 30.6904 61.98L12.167 53.4238C10.7224 52.7304 10 51.574 10 49.9561C10.0001 48.4539 10.7226 47.3564 12.167 46.6631L16.3139 44.7624C18.9633 43.5481 22.0105 43.55 24.6583 44.7676L36.1812 50.0662ZM46.3164 10.7803C48.8011 9.74019 51.2567 9.74019 53.6836 10.7803L87.833 26.5547C89.2776 27.2481 90 28.4036 90 30.0215C90 31.6394 89.2776 32.7949 87.833 33.4883L75.7318 39.0782C74.4172 39.6855 72.9864 40 71.5383 40H50C49.5464 40 49.0998 40.0302 48.6621 40.0887C42.8458 40.8664 36.0037 44.4991 30.6765 42.0383L12.167 33.4883C10.7224 32.7949 10 31.6394 10 30.0215C10 28.4036 10.7224 27.2481 12.167 26.5547L46.3164 10.7803Z" fill="white" fill-opacity="0.5"/>
<path d="M51.5641 50.1508C52.7357 48.9792 54.6352 48.9792 55.8067 50.1508L64.9991 59.3431L74.1915 50.1508C75.3631 48.9792 77.2626 48.9792 78.4341 50.1508L79.8484 51.565C81.0199 52.7365 81.0199 54.636 79.8484 55.8076L70.656 65L79.8484 74.1924C81.0199 75.364 81.0199 77.2635 79.8484 78.435L78.4341 79.8492C77.2626 81.0208 75.3631 81.0208 74.1915 79.8492L64.9991 70.6569L55.8067 79.8492C54.6352 81.0208 52.7357 81.0208 51.5641 79.8492L50.1499 78.435C48.9783 77.2635 48.9783 75.364 50.1499 74.1924L59.3423 65L50.1499 55.8076C48.9783 54.636 48.9783 52.7365 50.1499 51.565L51.5641 50.1508Z" fill="#DB5C5C"/>
</svg>
