<svg width="100" height="100" viewBox="0 0 100 100" fill="none" xmlns="http://www.w3.org/2000/svg">
<path d="M36.1812 70.0008C38.5086 71.071 40 73.3983 40 75.9601C40 80.7477 35.0368 83.9223 30.6904 81.9146L12.167 73.3584C10.7226 72.6651 10.0001 71.5384 10 69.9785C10 68.4184 10.7224 67.291 12.167 66.5977L16.3139 64.697C18.9633 63.4827 22.0105 63.4846 24.6583 64.7022L36.1812 70.0008ZM36.1812 50.0662C38.5086 51.1365 40 53.4638 40 56.0255C40 60.8131 35.0368 63.9877 30.6904 61.98L12.167 53.4238C10.7224 52.7304 10 51.574 10 49.9561C10.0001 48.4539 10.7226 47.3564 12.167 46.6631L16.3139 44.7624C18.9633 43.5481 22.0105 43.55 24.6583 44.7676L36.1812 50.0662ZM46.3164 10.7803C48.8011 9.74019 51.2567 9.74019 53.6836 10.7803L87.833 26.5547C89.2776 27.2481 90 28.4036 90 30.0215C90 31.6394 89.2776 32.7949 87.833 33.4883L75.7318 39.0782C74.4172 39.6855 72.9864 40 71.5383 40H50C49.5464 40 49.0998 40.0302 48.6621 40.0887C42.8458 40.8664 36.0037 44.4991 30.6765 42.0383L12.167 33.4883C10.7224 32.7949 10 31.6394 10 30.0215C10 28.4036 10.7224 27.2481 12.167 26.5547L46.3164 10.7803Z" fill="white" fill-opacity="0.5"/>
<path d="M74.5665 79.2586C74.6805 80.1119 74.2389 80.9508 73.4409 81.2736C72.3664 81.7082 71.2139 82.0735 69.9836 82.3693C68.2349 82.7898 66.1016 83 63.5836 83C61.4153 83 59.4218 82.6496 57.6033 81.9488C55.8197 81.213 54.2809 80.1793 52.9869 78.8479C51.7279 77.5164 50.7486 75.9046 50.0492 74.0124C49.3497 72.0853 49 69.9304 49 67.5477C49 64.8147 49.4721 62.0991 50.4164 59.4011C51.3956 56.7031 52.812 54.3029 54.6656 52.2006C56.5541 50.0632 58.8448 48.3287 61.5377 46.9972C64.2655 45.6657 67.3956 45 70.9279 45C72.6066 45 74.2503 45.1927 75.859 45.5781C76.985 45.8422 78.1437 46.2459 79.3353 46.7894C80.2907 47.2253 80.6586 48.3671 80.2182 49.3205L78.9445 52.0777C78.4647 53.1165 77.2177 53.5271 76.1603 53.0898C75.4359 52.7903 74.7584 52.5639 74.1279 52.4108C72.9738 52.1305 71.7323 51.9903 70.4033 51.9903C68.4098 51.9903 66.6087 52.3933 65 53.1992C63.4262 54.0051 62.0623 55.1088 60.9082 56.5104C59.789 57.8769 58.9322 59.4712 58.3377 61.2932C57.7432 63.1153 57.4459 65.0424 57.4459 67.0747C57.4459 70.1581 58.1104 72.4006 59.4393 73.8022C60.8033 75.2038 62.7442 75.9046 65.2623 75.9046C66.9409 75.9046 68.4797 75.7294 69.8786 75.379C70.3791 75.2567 70.8667 75.1216 71.3415 74.9737C72.6248 74.5741 74.0455 75.3592 74.2235 76.6914L74.5665 79.2586Z" fill="#24A394"/>
</svg>
