<svg width="100" height="100" viewBox="0 0 100 100" fill="none" xmlns="http://www.w3.org/2000/svg">
<path d="M36.1812 70.0006C38.5086 71.0708 40 73.3981 40 75.9598V75.9598C40 80.7475 35.0368 83.9221 30.6904 81.9144L12.167 73.3582C10.7226 72.6649 10.0001 71.5382 10 69.9783C10 68.4182 10.7224 67.2908 12.167 66.5974L16.3139 64.6968C18.9633 63.4825 22.0105 63.4844 24.6583 64.702L36.1812 70.0006ZM36.1812 50.066C38.5086 51.1363 40 53.4636 40 56.0253V56.0253C40 60.8129 35.0368 63.9875 30.6904 61.9798L12.167 53.4236C10.7224 52.7302 10 51.5738 10 49.9558C10.0001 48.4537 10.7226 47.3562 12.167 46.6629L16.3139 44.7622C18.9633 43.5479 22.0105 43.5498 24.6583 44.7674L36.1812 50.066ZM46.3164 10.7801C48.8011 9.73998 51.2567 9.73998 53.6836 10.7801L87.833 26.5545C89.2776 27.2479 90 28.4034 90 30.0213C90 31.6392 89.2776 32.7947 87.833 33.4881L75.7318 39.078C74.4172 39.6853 72.9864 39.9998 71.5383 39.9998H50C49.5464 39.9998 49.0998 40.03 48.6621 40.0885C42.8458 40.8662 36.0037 44.4989 30.6765 42.0381L12.167 33.4881C10.7224 32.7947 10 31.6392 10 30.0213C10 28.4034 10.7224 27.2479 12.167 26.5545L46.3164 10.7801Z" fill="black" fill-opacity="0.5"/>
<path d="M51.5641 50.1508C52.7357 48.9792 54.6352 48.9792 55.8067 50.1508L64.9991 59.3431L74.1915 50.1508C75.3631 48.9792 77.2626 48.9792 78.4341 50.1508L79.8484 51.565C81.0199 52.7365 81.0199 54.636 79.8484 55.8076L70.656 65L79.8484 74.1924C81.0199 75.364 81.0199 77.2635 79.8484 78.435L78.4341 79.8492C77.2626 81.0208 75.3631 81.0208 74.1915 79.8492L64.9991 70.6569L55.8067 79.8492C54.6352 81.0208 52.7357 81.0208 51.5641 79.8492L50.1499 78.435C48.9783 77.2635 48.9783 75.364 50.1499 74.1924L59.3423 65L50.1499 55.8076C48.9783 54.636 48.9783 52.7365 50.1499 51.565L51.5641 50.1508Z" fill="#DB3B4B"/>
</svg>
