<svg width="100" height="100" viewBox="0 0 100 100" fill="none" xmlns="http://www.w3.org/2000/svg">
<path d="M56.9875 36.8364V42.4919H60.6667C62.7322 42.4485 64.4965 43.1636 65.9595 44.6371C67.4226 46.1105 68.1541 47.8873 68.1541 49.9675V72.4594C68.1541 74.5395 67.4226 76.3164 65.9595 77.7898C64.4965 79.2633 62.7322 80 60.6667 80H23.4229C21.4004 80 19.6577 79.2633 18.1946 77.7898C16.7315 76.3164 16 74.5395 16 72.4594V49.9675C16 47.8873 16.7315 46.1105 18.1946 44.6371C19.6577 43.1636 21.4004 42.4485 23.4229 42.4919H49.5V36.8364C49.543 32.1994 51.1997 28.234 54.4701 24.9404C57.7405 21.6468 61.6779 20 66.2823 20C70.8866 20 74.824 21.6468 78.0944 24.9404C81.3648 28.234 83 32.1994 83 36.8364V42.4919C83 43.532 82.6557 44.4204 81.9672 45.1571C81.2787 45.8938 80.3966 46.2622 79.3208 46.2622C78.2881 46.2622 77.4059 45.8938 76.6744 45.1571C75.9428 44.4204 75.5771 43.532 75.5771 42.4919V36.8364C75.5771 34.2362 74.6734 32.026 72.8661 30.2059C71.0588 28.3857 68.8642 27.4756 66.2823 27.4756C63.7004 27.4756 61.5058 28.3857 59.6985 30.2059C57.8911 32.026 56.9875 34.2362 56.9875 36.8364Z" fill="black" fill-opacity="0.5"/>
</svg>
