<svg width="100" height="100" viewBox="0 0 100 100" fill="none" xmlns="http://www.w3.org/2000/svg">
<path d="M36.1812 70.0006C38.5086 71.0708 40 73.3981 40 75.9599C40 80.7475 35.0368 83.9221 30.6904 81.9144L12.167 73.3582C10.7226 72.6649 10.0001 71.5382 10 69.9783C10 68.4182 10.7224 67.2908 12.167 66.5974L16.3139 64.6968C18.9633 63.4825 22.0105 63.4844 24.6583 64.702L36.1812 70.0006ZM36.1812 50.066C38.5086 51.1363 40 53.4636 40 56.0253C40 60.8129 35.0368 63.9875 30.6904 61.9798L12.167 53.4236C10.7224 52.7302 10 51.5738 10 49.9558C10.0001 48.4537 10.7226 47.3562 12.167 46.6629L16.3139 44.7622C18.9633 43.5479 22.0105 43.5498 24.6583 44.7674L36.1812 50.066ZM46.3164 10.7801C48.8011 9.73998 51.2567 9.73998 53.6836 10.7801L87.833 26.5545C89.2776 27.2479 90 28.4034 90 30.0213C90 31.6392 89.2776 32.7947 87.833 33.4881L75.7318 39.078C74.4172 39.6853 72.9864 39.9998 71.5383 39.9998H50C49.5464 39.9998 49.0998 40.03 48.6621 40.0885C42.8458 40.8662 36.0037 44.4989 30.6765 42.0381L12.167 33.4881C10.7224 32.7947 10 31.6392 10 30.0213C10 28.4034 10.7224 27.2479 12.167 26.5545L46.3164 10.7801Z" fill="black" fill-opacity="0.5"/>
<path d="M54.0597 83C53.0986 83 52.2728 82.3165 52.0981 81.3713C51.6174 78.7722 51.1493 76.0981 50.6937 73.3492C50.1792 70.0226 49.683 66.7143 49.2052 63.4242C48.7274 60.1342 48.3047 56.9355 47.9372 53.8283C47.6655 51.5043 47.424 49.2902 47.2125 47.186C47.0947 46.0135 48.0181 45 49.1965 45H54.3098C55.3733 45 56.2505 45.8322 56.3095 46.8941C56.3948 48.4294 56.4891 50.0462 56.5926 51.7446C56.7764 54.1207 56.9785 56.5334 57.1991 58.9827C57.4196 61.3954 57.6401 63.8081 57.8606 66.2208C57.894 66.5287 57.9273 66.8342 57.9607 67.1372C58.1687 69.0283 60.622 69.5448 61.5674 67.8938C61.7995 67.4885 62.034 67.0771 62.271 66.6595C63.5942 64.393 64.9173 62.0351 66.2404 59.5859C67.6003 57.1366 68.9234 54.6691 70.2098 52.1833C71.3171 50.1029 72.3472 48.0866 73.3001 46.1342C73.6378 45.4423 74.3384 45 75.1083 45H79.6746C81.1826 45 82.1474 46.6048 81.4347 47.9337C80.4836 49.707 79.4801 51.5621 78.4242 53.4993C76.7703 56.5334 74.9878 59.6772 73.0766 62.9307C71.2022 66.1842 69.1991 69.5108 67.0674 72.9105C65.1524 75.9847 63.1454 79.0588 61.0462 82.133C60.6751 82.6765 60.0587 83 59.4005 83H54.0597Z" fill="#039BA1"/>
</svg>
