<svg width="100" height="100" viewBox="0 0 100 100" fill="none" xmlns="http://www.w3.org/2000/svg">
<path d="M36.1812 70.0006C38.5086 71.0708 40 73.3981 40 75.9598V75.9598C40 80.7475 35.0368 83.9221 30.6904 81.9144L12.167 73.3582C10.7226 72.6649 10.0001 71.5382 10 69.9783C10 68.4182 10.7224 67.2908 12.167 66.5974L16.3139 64.6968C18.9633 63.4825 22.0105 63.4844 24.6583 64.702L36.1812 70.0006ZM36.1812 50.066C38.5086 51.1363 40 53.4636 40 56.0253V56.0253C40 60.8129 35.0368 63.9875 30.6904 61.9798L12.167 53.4236C10.7224 52.7302 10 51.5738 10 49.9558C10.0001 48.4537 10.7226 47.3562 12.167 46.6629L16.3139 44.7622C18.9633 43.5479 22.0105 43.5498 24.6583 44.7674L36.1812 50.066ZM46.3164 10.7801C48.8011 9.73998 51.2567 9.73998 53.6836 10.7801L87.833 26.5545C89.2776 27.2479 90 28.4034 90 30.0213C90 31.6392 89.2776 32.7947 87.833 33.4881L75.7318 39.078C74.4172 39.6853 72.9864 39.9998 71.5383 39.9998H50C49.5464 39.9998 49.0998 40.03 48.6621 40.0885C42.8458 40.8662 36.0037 44.4989 30.6765 42.0381L12.167 33.4881C10.7224 32.7947 10 31.6392 10 30.0213C10 28.4034 10.7224 27.2479 12.167 26.5545L46.3164 10.7801Z" fill="black" fill-opacity="0.5"/>
<path d="M47.1664 56.2089C45.6112 57.7623 45.6112 60.2808 47.1664 61.8342L62.1842 76.835C63.6908 78.3398 66.1041 78.3868 67.6674 76.976C67.7177 76.9305 67.7672 76.8835 67.8158 76.835L82.8336 61.8342C84.3888 60.2808 84.3888 57.7623 82.8336 56.2089C81.2786 54.6556 78.7379 55.0429 76.945 55.0429H64.9984H53.0518C51.05 55.0429 48.7215 54.6556 47.1664 56.2089Z" fill="#FFAF0F"/>
</svg>
