<svg width="100" height="100" viewBox="0 0 100 100" fill="none" xmlns="http://www.w3.org/2000/svg">
<path d="M36.1812 70.0006C38.5086 71.0708 40 73.3981 40 75.9599C40 80.7475 35.0368 83.9221 30.6904 81.9144L12.167 73.3582C10.7226 72.6649 10.0001 71.5382 10 69.9783C10 68.4182 10.7224 67.2908 12.167 66.5974L16.3139 64.6968C18.9633 63.4825 22.0105 63.4844 24.6583 64.702L36.1812 70.0006ZM36.1812 50.066C38.5086 51.1363 40 53.4636 40 56.0253C40 60.8129 35.0368 63.9875 30.6904 61.9798L12.167 53.4236C10.7224 52.7302 10 51.5738 10 49.9558C10.0001 48.4537 10.7226 47.3562 12.167 46.6629L16.3139 44.7622C18.9633 43.5479 22.0105 43.5498 24.6583 44.7674L36.1812 50.066ZM46.3164 10.7801C48.8011 9.73998 51.2567 9.73998 53.6836 10.7801L87.833 26.5545C89.2776 27.2479 90 28.4034 90 30.0213C90 31.6392 89.2776 32.7947 87.833 33.4881L75.7318 39.078C74.4172 39.6853 72.9864 39.9998 71.5383 39.9998H50C49.5464 39.9998 49.0998 40.03 48.6621 40.0885C42.8458 40.8662 36.0037 44.4989 30.6765 42.0381L12.167 33.4881C10.7224 32.7947 10 31.6392 10 30.0213C10 28.4034 10.7224 27.2479 12.167 26.5545L46.3164 10.7801Z" fill="black" fill-opacity="0.5"/>
<path d="M75.5665 79.2586C75.6805 80.1119 75.2389 80.9508 74.4409 81.2736C73.3664 81.7082 72.2139 82.0735 70.9836 82.3693C69.2349 82.7898 67.1016 83 64.5836 83C62.4153 83 60.4218 82.6496 58.6033 81.9488C56.8197 81.213 55.2809 80.1793 53.9869 78.8479C52.7279 77.5164 51.7486 75.9046 51.0492 74.0124C50.3497 72.0853 50 69.9304 50 67.5477C50 64.8147 50.4721 62.0991 51.4164 59.4011C52.3956 56.7031 53.812 54.3029 55.6656 52.2006C57.5541 50.0632 59.8448 48.3287 62.5377 46.9972C65.2655 45.6657 68.3956 45 71.9279 45C73.6066 45 75.2503 45.1927 76.859 45.5781C77.985 45.8422 79.1437 46.2459 80.3353 46.7894C81.2907 47.2253 81.6586 48.3671 81.2182 49.3205L79.9445 52.0777C79.4647 53.1165 78.2177 53.5271 77.1603 53.0898C76.4359 52.7903 75.7584 52.5639 75.1279 52.4108C73.9738 52.1305 72.7323 51.9903 71.4033 51.9903C69.4098 51.9903 67.6087 52.3933 66 53.1992C64.4262 54.0051 63.0623 55.1088 61.9082 56.5104C60.789 57.8769 59.9322 59.4712 59.3377 61.2932C58.7432 63.1153 58.4459 65.0424 58.4459 67.0747C58.4459 70.1581 59.1104 72.4006 60.4393 73.8022C61.8033 75.2038 63.7442 75.9046 66.2623 75.9046C67.9409 75.9046 69.4797 75.7294 70.8786 75.379C71.3791 75.2567 71.8667 75.1216 72.3415 74.9737C73.6248 74.5741 75.0455 75.3592 75.2235 76.6914L75.5665 79.2586Z" fill="#039BA1"/>
</svg>
