<svg width="100" height="100" viewBox="0 0 100 100" fill="none" xmlns="http://www.w3.org/2000/svg">
<path d="M50.0255 21.6738C69.0455 21.6738 85.4432 34.7013 89.9728 49.7812C90.0783 50.1328 90.0784 50.5059 89.9728 50.8574C85.443 65.9371 69.0453 78.9639 50.0255 78.9639C31.0058 78.9637 14.6089 65.937 10.0792 50.8574C9.97357 50.5059 9.97365 50.1328 10.0792 49.7812C14.6087 34.7014 31.0055 21.674 50.0255 21.6738ZM50.0255 30.2666C38.9517 30.2668 29.9749 39.2444 29.9747 50.3184C29.9749 61.3924 38.9517 70.3699 50.0255 70.3701C61.0995 70.3701 70.0771 61.3925 70.0772 50.3184C70.0771 39.2443 61.0995 30.2666 50.0255 30.2666ZM50.0274 38.8613C56.3554 38.8614 61.4855 43.9912 61.4855 50.3193C61.4853 56.6473 56.3553 61.7773 50.0274 61.7773C43.6995 61.7773 38.5696 56.6473 38.5694 50.3193C38.5694 43.9912 43.6994 38.8614 50.0274 38.8613Z" fill="black" fill-opacity="0.5"/>
</svg>
