<svg width="100" height="100" viewBox="0 0 100 100" fill="none" xmlns="http://www.w3.org/2000/svg">
<path d="M36.1812 70.0008C38.5086 71.071 40 73.3983 40 75.9601C40 80.7477 35.0368 83.9223 30.6904 81.9146L12.167 73.3584C10.7226 72.6651 10.0001 71.5384 10 69.9785C10 68.4184 10.7224 67.291 12.167 66.5977L16.3139 64.697C18.9633 63.4827 22.0105 63.4846 24.6583 64.7022L36.1812 70.0008ZM36.1812 50.0662C38.5086 51.1365 40 53.4638 40 56.0255C40 60.8131 35.0368 63.9877 30.6904 61.98L12.167 53.4238C10.7224 52.7304 10 51.574 10 49.9561C10.0001 48.4539 10.7226 47.3564 12.167 46.6631L16.3139 44.7624C18.9633 43.5481 22.0105 43.55 24.6583 44.7676L36.1812 50.0662ZM46.3164 10.7803C48.8011 9.74019 51.2567 9.74019 53.6836 10.7803L87.833 26.5547C89.2776 27.2481 90 28.4036 90 30.0215C90 31.6394 89.2776 32.7949 87.833 33.4883L75.7318 39.0782C74.4172 39.6855 72.9864 40 71.5383 40H50C49.5464 40 49.0998 40.0302 48.6621 40.0887C42.8458 40.8664 36.0037 44.4991 30.6765 42.0383L12.167 33.4883C10.7224 32.7949 10 31.6394 10 30.0215C10 28.4036 10.7224 27.2481 12.167 26.5547L46.3164 10.7803Z" fill="white" fill-opacity="0.5"/>
<path d="M61.5537 83C59.435 83 57.2632 82.9108 55.0385 82.7324C53.6041 82.6174 52.2578 82.4578 50.9996 82.2538C49.8957 82.0748 49.2109 80.9836 49.4681 79.8953L57.1782 47.2729C57.359 46.5083 57.97 45.9165 58.7451 45.7878C60.3676 45.5183 62.0454 45.3271 63.7784 45.2141C66.0032 45.0714 68.0337 45 69.87 45C71.9888 45 73.8074 45.2319 75.3259 45.6958C76.8796 46.1239 78.1332 46.7127 79.0867 47.462C80.0754 48.2113 80.7994 49.1033 81.2584 50.138C81.7528 51.1371 82 52.2075 82 53.3493C82 54.1343 81.9117 54.9549 81.7352 55.8113C81.5939 56.6676 81.2761 57.5239 80.7817 58.3803C80.3226 59.2009 79.6693 59.9859 78.8218 60.7352V60.7352C77.7278 61.7445 77.7124 63.8719 78.6294 65.0443C78.7965 65.2578 78.9489 65.4806 79.0867 65.7127C79.8283 66.9258 80.199 68.2817 80.199 69.7803C80.199 71.493 79.8636 73.1521 79.1926 74.7577C78.5217 76.3277 77.4446 77.7371 75.9615 78.9859C74.4784 80.1991 72.5538 81.1803 70.1878 81.9296C67.8218 82.6432 64.9438 83 61.5537 83ZM62.3944 66.3014C61.4671 66.3014 60.6615 66.9388 60.4481 67.8412L59.0158 73.8994C58.7535 75.0086 59.4731 76.102 60.6087 76.199C60.6235 76.2003 60.6384 76.2016 60.6533 76.2028C61.5361 76.2385 62.3483 76.2563 63.0898 76.2563C64.1492 76.2563 65.191 76.185 66.215 76.0423C67.2744 75.8638 68.2102 75.5606 69.0224 75.1324C69.87 74.7042 70.5586 74.1155 71.0883 73.3662C71.618 72.6169 71.8829 71.6535 71.8829 70.4761C71.8829 69.9765 71.7769 69.477 71.565 68.9775C71.3885 68.4779 71.0883 68.0319 70.6646 67.6394C70.2408 67.2469 69.6758 66.9258 68.9694 66.6761C68.2985 66.4263 67.4863 66.3014 66.5329 66.3014H62.3944ZM62.9241 57.583C62.6299 58.838 63.5823 60.0394 64.8713 60.0394H67.5393C69.6581 60.0394 71.2296 59.5756 72.2536 58.6479C73.313 57.7202 73.8427 56.6141 73.8427 55.3296C73.8427 54.6516 73.6838 54.0808 73.366 53.6169C73.0835 53.1174 72.695 52.7249 72.2007 52.4394C71.7063 52.154 71.1413 51.9577 70.5056 51.8507C69.87 51.708 69.2167 51.6366 68.5457 51.6366C67.8041 51.6366 67.0096 51.6723 66.1621 51.7437C65.9547 51.7524 65.76 51.7622 65.5781 51.7731C64.7738 51.8211 64.1355 52.4147 63.9516 53.1992L62.9241 57.583Z" fill="#E08855"/>
</svg>
