<svg width="100" height="100" viewBox="0 0 100 100" fill="none" xmlns="http://www.w3.org/2000/svg">
<path d="M33.0545 36.8364V42.4919H51.9455V36.8364C51.9455 34.2362 51.0272 32.026 49.1906 30.2059C47.354 28.3857 45.1238 27.4756 42.5 27.4756C39.8762 27.4756 37.646 28.3857 35.8094 30.2059C33.9728 32.026 33.0545 34.2362 33.0545 36.8364ZM25.4455 42.4919V36.8364C25.4455 32.1994 27.1073 28.234 30.4307 24.9404C33.7541 21.6468 37.7772 20 42.5 20C47.2228 20 51.2459 21.6468 54.5693 24.9404C57.8927 28.234 59.5545 32.1994 59.5545 36.8364V42.4919H61.3911C63.4901 42.4485 65.283 43.1636 66.7698 44.6371C68.2566 46.1105 69 47.8873 69 49.9675V72.4594C69 74.5395 68.2566 76.3164 66.7698 77.7898C65.283 79.2633 63.4901 80 61.3911 80H23.6089C21.5099 80 19.717 79.2633 18.2302 77.7898C16.7434 76.3164 16 74.5395 16 72.4594V49.9675C16 47.8873 16.7434 46.1105 18.2302 44.6371C19.717 43.1636 21.5099 42.4485 23.6089 42.4919H25.4455Z" fill="black" fill-opacity="0.5"/>
</svg>
