<svg width="28" height="28" viewBox="0 0 28 28" fill="none" xmlns="http://www.w3.org/2000/svg">
<path d="M21.3397 21.4836C21.6335 21.1847 21.6819 20.7219 21.4398 20.3797C20.8882 19.6005 20.1729 18.9588 19.2936 18.4546C18.2015 17.8283 17.0184 17.5152 15.7443 17.5152H12.2557C11.0018 17.5152 9.82882 17.8283 8.73673 18.4546C7.85905 18.9579 7.13812 19.5982 6.57394 20.3756C6.32459 20.7191 6.36997 21.189 6.66835 21.491C7.53851 22.3715 8.55155 23.0664 9.70748 23.5758C11.0827 24.1819 12.5186 24.4849 14.0152 24.4849C15.532 24.4849 16.9679 24.1819 18.3229 23.5758C19.465 23.065 20.4706 22.3676 21.3397 21.4836ZM0 14C0 10.1212 1.37523 6.81821 4.12568 4.09092C6.87613 1.36364 10.1726 0 14.0152 0C17.8779 0 21.1744 1.36364 23.9047 4.09092C26.6349 6.81821 28 10.1212 28 14C28 17.8384 26.6349 21.1314 23.9047 23.8789C21.1744 26.6263 17.8779 28 14.0152 28C10.1726 28 6.87613 26.6263 4.12568 23.8789C1.37523 21.1314 0 17.8384 0 14ZM11.2243 13.697C11.9928 14.4647 12.9231 14.8485 14.0152 14.8485C15.1073 14.8485 16.0376 14.4647 16.8061 13.697C17.5746 12.9293 17.9487 12 17.9285 10.9091C17.9487 9.85862 17.5746 8.94953 16.8061 8.18185C16.0376 7.41417 15.1073 7.03033 14.0152 7.03033C12.9231 7.03033 11.9928 7.41417 11.2243 8.18185C10.4558 8.94953 10.0715 9.85862 10.0715 10.9091C10.0715 12 10.4558 12.9293 11.2243 13.697Z" fill="black" fill-opacity="0.5"/>
</svg>
