<svg width="28" height="28" viewBox="0 0 28 28" fill="none" xmlns="http://www.w3.org/2000/svg">
<path d="M14 0C21.732 0 28 6.26801 28 14C28 21.732 21.732 28 14 28C6.26801 28 0 21.732 0 14C0 6.26801 6.26801 0 14 0ZM11.3125 8C10.6567 8 10.125 8.53168 10.125 9.1875V9.375H7.1875C6.53168 9.375 6 9.90668 6 10.5625C6.00004 11.2183 6.5317 11.75 7.1875 11.75H11.9258C11.6967 12.4471 11.2624 13.4142 10.4434 14.5459C10.331 14.3539 10.2305 14.1641 10.1406 13.9844C9.98579 13.6747 9.86877 13.4043 9.79297 13.2148C9.75561 13.1215 9.728 13.0476 9.70996 12.998C9.70738 12.991 9.70559 12.984 9.70312 12.9766C9.70165 12.9721 9.70096 12.9691 9.69922 12.9639L9.68555 12.9268V12.9248C9.47352 12.3104 8.80463 11.9795 8.18652 12.1855C7.59408 12.3832 7.26228 13.0026 7.41113 13.5986V13.6748L7.4541 13.7461L7.47266 13.7998L7.47559 13.8027C7.47664 13.8056 7.47789 13.8079 7.47852 13.8096C7.5043 13.8805 7.54139 13.978 7.58887 14.0967C7.6844 14.3355 7.82619 14.668 8.01562 15.0469C8.2161 15.4478 8.47857 15.9124 8.80078 16.3828C8.43805 16.7077 8.10683 16.9593 7.82227 17.1475C7.48942 17.3675 7.21794 17.5068 7.04102 17.5889C6.9531 17.6296 6.8895 17.656 6.85352 17.6699C6.83941 17.6754 6.82645 17.6808 6.81934 17.6836H6.81738C6.20071 17.886 5.85978 18.5477 6.05566 19.1689V19.1699C6.24487 19.7675 6.86312 20.1089 7.46289 19.9658H7.48047L7.55566 19.9414L7.55469 19.9404L7.58301 19.9326L7.58984 19.9287C7.59394 19.9273 7.5987 19.9265 7.60352 19.9248C7.62498 19.9173 7.66207 19.904 7.70703 19.8867C7.79109 19.8543 7.90472 19.8078 8.04199 19.7441L8.04297 19.7432C8.31839 19.6153 8.69235 19.4187 9.13086 19.1289C9.51558 18.8746 9.94378 18.5458 10.4004 18.1357C11.0611 18.6693 11.7621 19.0754 12.3281 19.3584C12.7068 19.5478 13.0385 19.6896 13.2773 19.7852C13.3962 19.8327 13.4945 19.8697 13.5654 19.8955C13.5748 19.8989 13.6028 19.9088 13.625 19.917L13.6279 19.9189L13.6826 19.9375L13.6865 19.9385L13.7119 19.9473L13.7383 19.9531L13.874 19.9824L13.8965 19.9873L13.9199 19.9902C14.0125 20.0015 14.1049 20.0005 14.1953 19.9902C14.7103 20.0524 15.2244 19.7707 15.4336 19.2686L16.2754 17.249H19.2734L20.1152 19.2686C20.3674 19.8738 21.0635 20.1605 21.6689 19.9082C22.2739 19.656 22.5606 18.9608 22.3086 18.3555L21.1621 15.6055L18.8711 10.1055C18.6865 9.66245 18.2532 9.375 17.7744 9.375C17.3547 9.37504 16.9715 9.59575 16.7588 9.94727L16.75 9.96191L16.7422 9.97754L16.6953 10.0693L16.6855 10.0869L16.6777 10.1055L16.5947 10.3027C16.4762 9.77207 16.0039 9.37516 15.4375 9.375H12.5V9.1875C12.5 8.53174 11.9682 8.0001 11.3125 8ZM14.3867 15.6055L13.6553 17.3594C13.5716 17.3204 13.4823 17.2802 13.3906 17.2344C12.9548 17.0164 12.4683 16.7335 12.0234 16.3936C12.1034 16.2928 12.1856 16.19 12.2656 16.082C13.3807 14.5764 13.9578 13.2484 14.2539 12.2666C14.3099 12.0807 14.3545 11.9079 14.3906 11.75H15.4375C15.6697 11.7499 15.8854 11.6817 16.0684 11.5664L14.3867 15.6055ZM18.2861 14.875H17.2637L17.7744 13.6484L18.2861 14.875ZM6.5498 10.8184C6.54715 10.8118 6.54347 10.8055 6.54102 10.7988L6.51367 10.7012C6.52198 10.7417 6.53469 10.7807 6.5498 10.8184ZM16.1143 10.4404L16.125 10.5625C16.125 10.516 16.1192 10.4707 16.1104 10.4268C16.1113 10.4314 16.1134 10.4358 16.1143 10.4404ZM11.9893 9.06543L12 9.1875C12 9.14097 11.9942 9.09569 11.9854 9.05176C11.9863 9.05638 11.9884 9.06077 11.9893 9.06543Z" fill="black" fill-opacity="0.5"/>
</svg>
