<svg width="28" height="28" viewBox="0 0 28 28" fill="none" xmlns="http://www.w3.org/2000/svg">
<path d="M14 0C21.732 0 28 6.26801 28 14C28 21.732 21.732 28 14 28C6.26801 28 0 21.732 0 14C0 6.26801 6.26801 0 14 0ZM17.1059 8.6763C18.0394 7.74284 17.6425 6.19104 16.3518 6.46826C15.5336 6.644 14.7549 7.04976 14.1191 7.68555C13.1668 8.63794 12.7304 9.91113 12.8102 11.1574C12.8597 11.9307 12.7176 12.7463 12.1696 13.2943L7.74707 17.7168C7.00012 18.4637 7.00023 19.6748 7.74731 20.4216V20.4216C8.49421 21.1683 9.7049 21.1681 10.4517 20.4214L14.8747 15.9984C15.4227 15.4504 16.2382 15.3082 17.0116 15.3579C18.2578 15.438 19.531 15.0022 20.4834 14.0498C21.1191 13.4141 21.5248 12.6354 21.7006 11.8172C21.9778 10.5265 20.426 10.1294 19.4923 11.0628L19.3692 11.1858C18.7101 11.8447 17.6416 11.8445 16.9828 11.1854V11.1854C16.324 10.5264 16.3241 9.45812 16.983 8.79923L17.1059 8.6763Z" fill="white" fill-opacity="0.5"/>
</svg>
