<svg width="100" height="100" viewBox="0 0 100 100" fill="none" xmlns="http://www.w3.org/2000/svg">
<path d="M20 23C20 21.3431 21.3431 20 23 20H35.0288C36.6857 20 38.0288 21.3431 38.0288 23V30.4294C38.0288 31.0568 38.2255 31.6684 38.5912 32.1782L41.8908 36.7776C42.4543 37.563 43.3617 38.0288 44.3284 38.0288H57.0382C57.9663 38.0288 58.8422 37.5993 59.4104 36.8654L61.3433 34.3686C61.7503 33.8429 61.9712 33.197 61.9712 32.5321V26.0289C61.9712 24.372 63.3143 23.0288 64.9712 23.0288H77C78.6569 23.0288 80 24.372 80 26.0288V38.0577C80 39.7146 78.6569 41.0577 77 41.0577H76.7554C75.2336 41.0577 73.953 42.197 73.7758 43.7084L71.9724 59.0904C71.7926 60.624 72.991 61.9712 74.5351 61.9712V61.9712C75.9602 61.9712 77.1154 63.1264 77.1154 64.5514V77C77.1154 78.6569 75.7722 80 74.1154 80H61.9712C60.378 80 59.0865 78.7085 59.0865 77.1154V77.1154C59.0865 75.5223 57.7951 74.2308 56.2019 74.2308H46.8269C45.2338 74.2308 43.9423 75.5223 43.9423 77.1154V77.1154C43.9423 78.7085 42.6508 80 41.0577 80H28.9135C27.2566 80 25.9135 78.6569 25.9135 77V64.1587C25.9135 62.9505 26.8929 61.9712 28.101 61.9712V61.9712C29.4493 61.9712 30.4766 60.7632 30.2602 59.4324L27.1885 40.5472C26.9523 39.0953 25.6983 38.0288 24.2274 38.0288H23C21.3431 38.0288 20 36.6857 20 35.0288V23ZM28.9423 25.9135C27.2855 25.9135 25.9135 27.2855 25.9135 28.9423V28.9423C25.9135 30.5992 27.2855 31.9712 28.9423 31.9712V31.9712C30.5992 31.9712 31.9712 30.5992 31.9712 28.9423V28.9423C31.9712 27.2855 30.5992 25.9135 28.9423 25.9135V25.9135ZM70.9856 29.0865C69.3526 29.0865 68.0288 30.4103 68.0288 32.0433V32.0433C68.0288 33.6762 69.3526 35 70.9856 35H71.1298C72.7628 35 74.0865 33.6762 74.0865 32.0433V32.0433C74.0865 30.4103 72.7628 29.0865 71.1298 29.0865H70.9856ZM34.6865 38.0288C33.7905 38.0288 33.1061 38.8288 33.2447 39.714L36.3336 59.4354C36.5622 60.8952 37.8198 61.9712 39.2975 61.9712H40.9423C42.5992 61.9712 43.9423 63.3143 43.9423 64.9712V65.1731C43.9423 66.8299 45.2855 68.1731 46.9423 68.1731H56.0865C57.7434 68.1731 59.0865 66.8299 59.0865 65.1731V64.9712C59.0865 63.3143 60.4297 61.9712 62.0865 61.9712H62.9081C64.4298 61.9712 65.7105 60.8319 65.8877 59.3205L67.6759 44.0681C67.8638 42.4654 66.6115 41.0577 64.9979 41.0577V41.0577C64.1788 41.0577 63.404 41.43 62.8924 42.0697L59.7439 46.0052C59.3184 46.5371 59.0865 47.1981 59.0865 47.8793V53.0577C59.0865 54.7146 57.7434 56.0577 56.0865 56.0577H44.0577C42.4008 56.0577 41.0577 54.7145 41.0577 53.0577V46.7874C41.0577 46.1567 40.859 45.5421 40.4897 45.0309L35.8696 38.6338C35.5952 38.2539 35.1551 38.0288 34.6865 38.0288V38.0288ZM50.0721 43.9423C48.4392 43.9423 47.1154 45.2661 47.1154 46.899V47.0433C47.1154 48.6762 48.4392 50 50.0721 50V50C51.7051 50 53.0288 48.6762 53.0288 47.0433V46.899C53.0288 45.2661 51.7051 43.9423 50.0721 43.9423V43.9423ZM35 68.0288C33.3431 68.0288 31.9712 69.4008 31.9712 71.0577V71.0577C31.9712 72.7145 33.3431 74.0865 35 74.0865V74.0865C36.6569 74.0865 38.0288 72.7145 38.0288 71.0577V71.0577C38.0288 69.4008 36.6569 68.0288 35 68.0288V68.0288ZM68.101 68.0288C66.468 68.0288 65.1442 69.3526 65.1442 70.9856V71.1298C65.1442 72.7628 66.468 74.0865 68.101 74.0865V74.0865C69.7339 74.0865 71.0577 72.7628 71.0577 71.1298V70.9856C71.0577 69.3526 69.7339 68.0288 68.101 68.0288V68.0288Z" fill="white" fill-opacity="0.6"/>
</svg>
