<svg width="100" height="100" viewBox="0 0 100 100" fill="none" xmlns="http://www.w3.org/2000/svg">
<path d="M20 29C20 27.3431 21.3431 26 23 26H35.0288C36.6857 26 38.0288 27.3611 38.0288 29.018V29.018C38.0288 30.6748 39.372 32.0359 41.0288 32.0359H58.9712C60.628 32.0359 61.9712 30.6748 61.9712 29.018V29.018C61.9712 27.3611 63.3143 26 64.9712 26H77C78.6569 26 80 27.3431 80 29V41.0073C80 42.6403 78.6762 43.9641 77.0433 43.9641V43.9641C75.4103 43.9641 74.0865 45.2878 74.0865 46.9208V53.0792C74.0865 54.7122 75.4103 56.0359 77.0433 56.0359V56.0359C78.6762 56.0359 80 57.3597 80 58.9927V71C80 72.6569 78.6569 74 77 74H64.9712C63.3143 74 61.9712 72.6389 61.9712 70.982V70.982C61.9712 69.3252 60.628 67.9641 58.9712 67.9641H41.0288C39.372 67.9641 38.0288 69.3252 38.0288 70.982V70.982C38.0288 72.6389 36.6857 74 35.0288 74H23C21.3431 74 20 72.6569 20 71V58.9927C20 57.3597 21.3238 56.0359 22.9567 56.0359V56.0359C24.5897 56.0359 25.9135 54.7122 25.9135 53.0792V46.9208C25.9135 45.2878 24.5897 43.9641 22.9567 43.9641V43.9641C21.3238 43.9641 20 42.6403 20 41.0073V29ZM64.9173 43.9641C63.2902 43.9641 61.9712 42.6451 61.9712 41.018V41.018C61.9712 39.3909 60.6521 38.0719 59.025 38.0719H40.975C39.3479 38.0719 38.0288 39.3909 38.0288 41.018V41.018C38.0288 42.6451 36.7098 43.9641 35.0827 43.9641H34.9712C33.3143 43.9641 31.9712 45.3072 31.9712 46.9641V53.0359C31.9712 54.6928 33.3143 56.0359 34.9712 56.0359H35.0827C36.7098 56.0359 38.0288 57.3549 38.0288 58.982V58.982C38.0288 60.6091 39.3479 61.9281 40.975 61.9281H59.025C60.6521 61.9281 61.9712 60.6091 61.9712 58.982V58.982C61.9712 57.3549 63.2902 56.0359 64.9173 56.0359H65.0288C66.6857 56.0359 68.0288 54.6928 68.0288 53.0359V46.9641C68.0288 45.3072 66.6857 43.9641 65.0288 43.9641H64.9173ZM28.9423 32.0359C27.2855 32.0359 25.9135 33.397 25.9135 35.0539V35.0539C25.9135 36.7107 27.2855 38.0719 28.9423 38.0719V38.0719C30.5992 38.0719 31.9712 36.7107 31.9712 35.0539V35.0539C31.9712 33.397 30.5992 32.0359 28.9423 32.0359V32.0359ZM71.0577 32.0359C69.4008 32.0359 68.0288 33.397 68.0288 35.0539V35.0539C68.0288 36.7107 69.4008 38.0719 71.0577 38.0719V38.0719C72.7145 38.0719 74.0865 36.7107 74.0865 35.0539V35.0539C74.0865 33.397 72.7145 32.0359 71.0577 32.0359V32.0359ZM28.9423 61.9281C27.2855 61.9281 25.9135 63.2893 25.9135 64.9461V64.9461C25.9135 66.603 27.2855 67.9641 28.9423 67.9641V67.9641C30.5992 67.9641 31.9712 66.603 31.9712 64.9461V64.9461C31.9712 63.2893 30.5992 61.9281 28.9423 61.9281V61.9281ZM71.0577 61.9281C69.4008 61.9281 68.0288 63.2893 68.0288 64.9461V64.9461C68.0288 66.603 69.4008 67.9641 71.0577 67.9641V67.9641C72.7145 67.9641 74.0865 66.603 74.0865 64.9461V64.9461C74.0865 63.2893 72.7145 61.9281 71.0577 61.9281V61.9281Z" fill="black" fill-opacity="0.6"/>
</svg>
