<svg width="100" height="100" viewBox="0 0 100 100" fill="none" xmlns="http://www.w3.org/2000/svg">
<path d="M47.7644 38.7723H52.2358V34.25H47.7644V38.7723ZM46.9845 29H53.0157C54.2635 29 55.3207 29.4505 56.1873 30.3515C57.0538 31.2525 57.4871 32.3094 57.4871 33.5223V33.8862H68.6135C69.7573 31.6337 71.5424 30.5074 73.9688 30.5074C75.6326 30.5074 77.0537 31.0966 78.2322 32.2748C79.4107 33.453 80 34.8738 80 36.5372C80 38.1659 79.4107 39.5694 78.2322 40.7476C77.0537 41.9258 75.6326 42.5149 73.9688 42.5149C71.5424 42.5149 69.7573 41.3887 68.6135 39.1362H62.3223C65.1299 40.9728 67.4003 43.3813 69.1334 46.3615C70.8665 49.3417 71.8544 52.5645 72.097 56.0298H72.513C73.7608 56.0298 74.818 56.463 75.6846 57.3294C76.5511 58.1957 76.9844 59.2526 76.9844 60.5002V66.5299C76.9844 67.7774 76.5511 68.8344 75.6846 69.7005C74.818 70.5668 73.7608 71 72.513 71H66.4818C65.2339 71 64.1767 70.5668 63.3102 69.7005C62.4436 68.8344 62.0103 67.7774 62.0103 66.5299V60.5002C62.0103 59.2526 62.4436 58.1957 63.3102 57.3294C64.1767 56.463 65.2339 56.0298 66.4818 56.0298H66.7937C66.5164 52.911 65.4592 50.1041 63.6221 47.609C61.7852 45.1139 59.4802 43.26 56.7072 42.0471C55.806 43.3639 54.5755 44.0224 53.0157 44.0224H46.9845C45.39 44.0224 44.1422 43.3639 43.241 42.0471C40.4333 43.26 38.1283 45.1139 36.3259 47.609C34.5234 50.1041 33.4836 52.911 33.2063 56.0298H33.5182C34.7661 56.0298 35.8233 56.463 36.6898 57.3294C37.5564 58.1957 37.9896 59.2526 37.9896 60.5002V66.5299C37.9896 67.7774 37.5564 68.8344 36.6898 69.7005C35.8233 70.5668 34.7661 71 33.5182 71H27.487C26.2392 71 25.182 70.5668 24.3154 69.7005C23.4489 68.8344 23.0156 67.7774 23.0156 66.5299V60.5002C23.0156 59.2526 23.4489 58.1957 24.3154 57.3294C25.182 56.463 26.2392 56.0298 27.487 56.0298H27.903C28.1456 52.5645 29.1335 49.3417 30.8666 46.3615C32.5997 43.3813 34.8701 40.9728 37.6777 39.1362H31.3865C30.8666 40.1412 30.1213 40.9555 29.1508 41.5793C28.1803 42.203 27.1231 42.5149 25.9792 42.5149C24.3501 42.5149 22.9463 41.9258 21.7678 40.7476C20.5893 39.5694 20 38.1659 20 36.5372C20 34.8738 20.5893 33.453 21.7678 32.2748C22.9463 31.0966 24.3501 30.5074 25.9792 30.5074C27.1231 30.5074 28.1803 30.8193 29.1508 31.4431C30.1213 32.0669 30.8666 32.8812 31.3865 33.8862H42.5131V33.5223C42.5131 32.3094 42.9463 31.2525 43.8129 30.3515C44.6794 29.4505 45.7366 29 46.9845 29ZM28.2669 61.2799V65.7502H32.7383V61.2799H28.2669ZM67.2617 65.7502H71.7331V61.2799H67.2617V65.7502Z" fill="black" fill-opacity="0.6"/>
</svg>
