<svg width="100" height="100" viewBox="0 0 100 100" fill="none" xmlns="http://www.w3.org/2000/svg">
<path d="M41.0577 24C41.0577 22.3431 42.4008 21 44.0577 21H56.0865C57.7434 21 59.0865 22.3431 59.0865 24V38.1643C59.0865 38.6342 58.7056 39.0152 58.2356 39.0152V39.0152C57.5844 39.0152 57.1746 39.7168 57.4945 40.2841L67.745 58.4586C68.2768 59.4015 69.2754 59.9848 70.358 59.9848H77C78.6569 59.9848 80 61.328 80 62.9848V75C80 76.6569 78.6569 78 77 78H64.9256C63.2939 78 61.9712 76.6772 61.9712 75.0455V75.0455C61.9712 73.4138 60.6484 72.091 59.0167 72.091H40.9833C39.3516 72.091 38.0288 73.4138 38.0288 75.0455V75.0455C38.0288 76.6772 36.7061 78 35.0744 78H23C21.3431 78 20 76.6569 20 75V62.9848C20 61.328 21.3431 59.9848 23 59.9848H29.642C30.7246 59.9848 31.7232 59.4015 32.255 58.4586L42.5502 40.2048C42.8501 39.673 42.4659 39.0152 41.8554 39.0152V39.0152C41.4148 39.0152 41.0577 38.658 41.0577 38.2175V24ZM50.0721 27.0531C48.4404 27.0531 47.1154 28.3759 47.1154 30.0076V30.0076C47.1154 31.6393 48.4404 32.9621 50.0721 32.9621V32.9621C51.7038 32.9621 53.0288 31.6393 53.0288 30.0076V30.0076C53.0288 28.3759 51.7038 27.0531 50.0721 27.0531V27.0531ZM52.6182 43.8402C51.4731 41.7929 48.5269 41.7929 47.3818 43.8402L38.4106 59.8788C38.1603 60.3263 38.0288 60.8305 38.0288 61.3433V63.0379C38.0288 64.6948 39.372 66.0379 41.0288 66.0379H58.9712C60.628 66.0379 61.9712 64.6948 61.9712 63.0379V61.3433C61.9712 60.8305 61.8397 60.3263 61.5894 59.8788L52.6182 43.8402ZM28.9423 66.0379C27.2855 66.0379 25.9135 67.4076 25.9135 69.0645V69.0645C25.9135 70.7213 27.2855 72.091 28.9423 72.091V72.091C30.5992 72.091 31.9712 70.7213 31.9712 69.0645V69.0645C31.9712 67.4076 30.5992 66.0379 28.9423 66.0379V66.0379ZM71.0577 66.0379C69.4008 66.0379 68.0288 67.4076 68.0288 69.0645V69.0645C68.0288 70.7213 69.4008 72.091 71.0577 72.091V72.091C72.7145 72.091 74.0865 70.7213 74.0865 69.0645V69.0645C74.0865 67.4076 72.7145 66.0379 71.0577 66.0379V66.0379Z" fill="black" fill-opacity="0.6"/>
</svg>
