<svg width="100" height="100" viewBox="0 0 100 100" fill="none" xmlns="http://www.w3.org/2000/svg">
<path d="M34.9707 20C36.6276 20 37.9707 21.3627 37.9707 23.0195C37.9709 24.6761 39.3141 26.0379 40.9707 26.0381H58.8369C60.4935 26.0379 61.8367 24.6761 61.8369 23.0195C61.8369 21.3627 63.1801 20 64.8369 20H76.8076C78.4645 20 79.8076 21.3431 79.8076 23V35.0234C79.8076 36.6004 78.5691 37.888 77.0117 37.9668L76.709 37.9746C75.1517 38.0534 73.9133 39.3412 73.9131 40.918V59.0811C73.9131 60.658 75.1516 61.9456 76.709 62.0244L77.0117 62.0322C78.5691 62.111 79.8076 63.3986 79.8076 64.9756V76.999C79.8076 78.6559 78.4645 79.999 76.8076 79.999H64.8369C63.2319 79.999 61.9213 78.7209 61.8408 77.1348L61.833 76.8262C61.7529 75.2398 60.442 73.9611 58.8369 73.9609H40.9707C39.3656 73.9611 38.0547 75.2399 37.9746 76.8262L37.9668 77.1348C37.8864 78.7209 36.5757 79.999 34.9707 79.999H23C21.3431 79.999 20 78.6559 20 76.999V64.9756C20 63.3986 21.2385 62.111 22.7959 62.0322L23.0986 62.0244C24.656 61.9456 25.8945 60.658 25.8945 59.0811V40.918C25.8944 39.3412 24.6559 38.0534 23.0986 37.9746L22.7959 37.9668C21.2385 37.888 20 36.6004 20 35.0234V23C20 21.3431 21.3431 20 23 20H34.9707ZM28.9141 67.9229C27.2572 67.9229 25.8945 69.2855 25.8945 70.9424C25.8948 72.599 27.2574 73.9609 28.9141 73.9609C30.5706 73.9607 31.9324 72.5989 31.9326 70.9424C31.9326 69.2857 30.5707 67.9231 28.9141 67.9229ZM70.8936 67.9229C69.2369 67.9231 67.875 69.2857 67.875 70.9424C67.8753 72.5989 69.2371 73.9607 70.8936 73.9609C72.5503 73.9609 73.9128 72.599 73.9131 70.9424C73.9131 69.2855 72.5504 67.9229 70.8936 67.9229ZM40.918 32.0762C39.2905 32.0763 37.9709 33.396 37.9707 35.0234C37.9707 36.6512 36.6512 37.9707 35.0234 37.9707H34.9326C33.2759 37.9708 31.9328 39.3141 31.9326 40.9707V59.0283C31.9326 60.6851 33.2758 62.0282 34.9326 62.0283H35.0234C36.6004 62.0283 37.888 63.2668 37.9668 64.8242L37.9746 65.127C38.0534 66.6842 39.3412 67.9227 40.918 67.9229H58.8896C60.4664 67.9227 61.7542 66.6842 61.833 65.127L61.8408 64.8242C61.9196 63.2668 63.2072 62.0283 64.7842 62.0283H64.875C66.5318 62.0282 67.875 60.6851 67.875 59.0283V40.9707C67.8748 39.3141 66.5317 37.9708 64.875 37.9707H64.7842C63.1565 37.9707 61.8369 36.6512 61.8369 35.0234C61.8367 33.396 60.5171 32.0763 58.8896 32.0762H40.918ZM58.8896 37.9707C60.5171 37.9709 61.8367 39.2905 61.8369 40.918C61.8369 42.5456 60.5172 43.8651 58.8896 43.8652H55.9229C54.2661 43.8653 52.923 45.2086 52.9229 46.8652V58.8896C52.9227 60.5172 51.6032 61.8369 49.9756 61.8369C48.348 61.8369 47.0285 60.5172 47.0283 58.8896V46.8652C47.0282 45.2085 45.6851 43.8652 44.0283 43.8652H40.918C39.2904 43.8651 37.9707 42.5456 37.9707 40.918C37.9709 39.2905 39.2905 37.9709 40.918 37.9707H58.8896ZM28.9141 26.0381C27.2572 26.0381 25.8945 27.4008 25.8945 29.0576C25.8946 30.7144 27.2573 32.0762 28.9141 32.0762C30.5707 32.0759 31.9325 30.7142 31.9326 29.0576C31.9326 27.4009 30.5707 26.0383 28.9141 26.0381ZM70.8936 26.0381C69.2369 26.0383 67.875 27.4009 67.875 29.0576C67.8751 30.7142 69.237 32.0759 70.8936 32.0762C72.5503 32.0762 73.913 30.7144 73.9131 29.0576C73.9131 27.4008 72.5504 26.0381 70.8936 26.0381Z" fill="white" fill-opacity="0.6"/>
</svg>
