<svg width="100" height="100" viewBox="0 0 100 100" fill="none" xmlns="http://www.w3.org/2000/svg">
<path d="M43.6854 79.4819C40.9803 80.4413 37.5592 80.0682 33.422 78.3626C31.2169 77.5939 28.611 76.3265 25.6043 74.5603C24.677 74.0156 24.3737 72.8253 24.9039 71.8897L26.1588 69.6752C26.7304 68.6665 28.0357 68.3565 29.0158 68.976C30.6979 70.0392 32.1136 70.8496 33.2628 71.4071C35.8619 72.633 38.0366 73.2459 39.7869 73.2459C40.6356 73.2459 41.1129 73.166 41.219 73.0061C41.3251 72.8462 41.219 72.3931 40.9008 71.6469C40.4816 70.6466 39.4673 69.3862 37.8577 67.8658C37.8198 67.83 37.7979 67.7798 37.7979 67.7276C37.7979 67.6776 37.7786 67.6301 37.7432 67.5948C36.2531 66.1097 33.8314 64.1825 30.4782 61.8132C28.1974 60.2143 26.5001 58.9884 25.3862 58.1356C23.5828 56.5366 22.0711 54.9643 20.8512 53.4186C18.2521 50.0075 17.43 46.9428 18.3847 44.2245C18.9152 42.4656 20.0025 41.2131 21.6468 40.4669C23.0789 39.9339 24.7762 39.8273 26.7388 40.1471C29.7091 40.5735 32.8385 41.5062 36.1271 42.9453C38.5043 43.9691 40.8306 45.1465 43.106 46.4776C44.0524 47.0312 44.3388 48.2557 43.7669 49.1912L42.434 51.3717C41.8529 52.3221 40.6089 52.6115 39.6414 52.0592C37.5389 50.8591 35.2271 49.7399 32.7059 48.7016L31.4329 48.142C28.5687 46.7562 26.6061 46.1699 25.5453 46.3831C24.8027 46.5963 24.5906 47.076 24.9088 47.8222C25.121 48.1953 25.5984 48.8615 26.3409 49.8209C26.4025 49.8828 26.5004 50.0814 26.5552 50.1494C28.6015 52.6912 31.1557 54.9269 34.2176 56.8564C36.8166 58.6686 38.7791 60.1343 40.1052 61.2536C42.3329 63.0125 44.0567 64.8246 45.2767 66.6901C47.027 68.982 47.9022 71.3272 47.9022 73.7256C47.7961 76.4439 46.3906 78.3626 43.6854 79.4819ZM80.6048 27.3993C80.552 27.4778 80.4892 27.5488 80.4224 27.6159L78.5191 29.5285C77.7373 30.3141 76.4657 30.3141 75.6838 29.5285L71.504 25.3283C70.7275 24.548 70.7275 23.287 71.504 22.5067L73.4208 20.5805C73.4876 20.5134 73.5585 20.4502 73.6366 20.3966C74.0225 20.1322 74.4083 20 74.7942 20C75.2284 20 75.6407 20.1323 76.0311 20.3969C76.1094 20.4501 76.1803 20.5134 76.2471 20.5805L80.5226 24.8769C80.8409 25.25 81 25.6764 81 26.1561C81 26.5925 80.8683 27.007 80.6048 27.3993ZM47.9022 47.2087C47.9022 46.68 48.1116 46.1727 48.4846 45.7979L66.8524 27.3407C67.6343 26.5551 68.9059 26.5551 69.6877 27.3407L73.7085 31.381C74.4849 32.1613 74.4849 33.4223 73.7085 34.2026L55.3309 52.6695C54.9556 53.0467 54.4454 53.2587 53.9133 53.2587H49.9022C48.7977 53.2587 47.9022 52.3633 47.9022 51.2587V47.2087Z" fill="black" fill-opacity="0.6"/>
</svg>
