<svg width="100" height="100" viewBox="0 0 100 100" fill="none" xmlns="http://www.w3.org/2000/svg">
<mask id="path-1-outside-1_1462_120" maskUnits="userSpaceOnUse" x="16" y="58" width="42" height="24" fill="black">
<rect fill="white" x="16" y="58" width="42" height="24"/>
<path d="M22.514 73.544C22.8832 73.544 23.2524 73.5195 23.6216 73.4705C23.9908 73.4051 24.3199 73.2988 24.6089 73.1516C24.8978 73.0045 25.1306 72.8001 25.3071 72.5385C25.4998 72.2605 25.5961 71.909 25.5961 71.4838C25.5961 71.1568 25.5078 70.8789 25.3312 70.6499C25.1546 70.4047 24.9299 70.1839 24.657 69.9877C24.3841 69.7915 24.0791 69.6117 23.742 69.4482C23.4049 69.2847 23.0678 69.1048 22.7307 68.9086C22.2973 68.647 21.888 68.369 21.5027 68.0747C21.1175 67.7804 20.7884 67.4534 20.5155 67.0936C20.2426 66.7176 20.0259 66.3088 19.8654 65.8673C19.7048 65.4095 19.6246 64.8863 19.6246 64.2977C19.6246 63.5455 19.761 62.8506 20.0339 62.2129C20.3229 61.5589 20.7402 60.9948 21.286 60.5206C21.8478 60.0465 22.5461 59.6786 23.3808 59.4169C24.2156 59.139 25.1948 59 26.3184 59C26.8321 59 27.3298 59.0491 27.8113 59.1472C28.2929 59.2289 28.7424 59.3352 29.1597 59.466C29.5771 59.5968 29.9543 59.7521 30.2914 59.932V59.932C30.8146 60.1742 30.9681 60.8087 30.6883 61.3128L30.4284 61.7812C30.0018 62.55 28.9736 62.7617 28.1484 62.4582V62.4582C27.5705 62.2456 26.9445 62.1394 26.2703 62.1394C25.9011 62.1394 25.5479 62.1721 25.2108 62.2375C24.8737 62.3029 24.5768 62.4173 24.3199 62.5808C24.0631 62.728 23.8544 62.9242 23.6939 63.1695C23.5494 63.4147 23.4772 63.7172 23.4772 64.0769C23.4772 64.4039 23.5333 64.6819 23.6457 64.9108C23.7741 65.1234 23.9347 65.3114 24.1273 65.4749C24.3199 65.6384 24.5447 65.7856 24.8015 65.9164C25.0583 66.0472 25.3312 66.1862 25.6202 66.3333C26.1178 66.5949 26.5994 66.8729 27.0649 67.1672C27.5304 67.4615 27.9397 67.8049 28.2929 68.1973C28.6461 68.5734 28.927 69.0067 29.1357 69.4972C29.3443 69.9877 29.4487 70.5682 29.4487 71.2386C29.4487 72.1706 29.2801 72.9799 28.943 73.6667C28.6059 74.3534 28.1324 74.9257 27.5224 75.3835C26.9124 75.8413 26.182 76.1765 25.3312 76.3891C24.4965 76.618 23.5655 76.7324 22.5381 76.7324C21.8639 76.7324 21.2298 76.6752 20.6359 76.5608C20.058 76.4463 19.5283 76.3155 19.0467 76.1683C18.5812 76.0048 18.1718 75.8331 17.8187 75.6533V75.6533C17.3384 75.397 17.1964 74.8021 17.4567 74.3241L18.2001 72.9587C18.4085 72.5759 18.9038 72.4542 19.2875 72.6611V72.6611C19.5604 72.8083 19.8654 72.9472 20.2025 73.078C20.5556 73.2088 20.9248 73.3233 21.3101 73.4214C21.6953 73.5032 22.0967 73.544 22.514 73.544ZM35.1515 76.3891C34.2375 76.3891 33.4363 75.7702 33.2403 74.8774C32.9623 73.611 32.7043 72.21 32.4662 70.6745C32.2138 69.0336 32.0198 67.278 31.8844 65.4079C31.8088 64.3642 32.6447 63.4883 33.6911 63.4883V63.4883C34.6841 63.4883 35.4956 64.28 35.535 65.2722C35.5393 65.3793 35.5437 65.4878 35.5483 65.5975C35.5804 66.3497 35.6205 67.11 35.6687 67.8785C35.7169 68.647 35.773 69.3991 35.8373 70.1349V70.1349C35.9005 70.844 36.7646 71.0537 37.1348 70.4456C37.1676 70.3918 37.2006 70.3372 37.2338 70.2821C37.6833 69.5626 38.1167 68.8105 38.5341 68.0256C38.9514 67.2408 39.3367 66.456 39.6898 65.6711C39.8338 65.3444 39.9645 65.03 40.0818 64.7277C40.3631 64.003 41.0423 63.4883 41.8197 63.4883V63.4883C43.0336 63.4883 43.8735 64.6911 43.3666 65.7941C43.1731 66.2151 42.9669 66.6401 42.7478 67.0691C42.1378 68.2954 41.4797 69.4809 40.7734 70.6254C40.0671 71.77 39.3447 72.841 38.6063 73.8384C38.1033 74.5329 37.6236 75.1561 37.1673 75.7079C36.8036 76.1477 36.2573 76.3891 35.6866 76.3891H35.1515ZM54.5199 74.7703C54.2791 75.8331 53.9581 76.7488 53.5567 77.5173C53.1715 78.3021 52.6819 78.948 52.0879 79.4549C51.5101 79.9781 50.8118 80.3623 49.9931 80.6076C49.1744 80.8692 48.2193 81 47.1277 81C46.1164 81 45.2657 80.9019 44.5754 80.7057C44.4061 80.6616 44.2407 80.6145 44.0792 80.5645C43.2799 80.3171 42.9471 79.4182 43.2685 78.6457V78.6457C43.6141 77.815 44.5824 77.4481 45.4421 77.7135V77.7135C45.988 77.877 46.6542 77.9588 47.4408 77.9588C48.4681 77.9588 49.2386 77.7217 49.7523 77.2475C50.282 76.7897 50.6272 76.1929 50.7877 75.4571V75.4571C50.8265 75.2693 50.6286 75.1159 50.4503 75.1863C50.2574 75.2625 50.0568 75.3282 49.8486 75.3835C49.4955 75.4816 49.1182 75.5307 48.7169 75.5307C47.9625 75.5307 47.3123 75.4162 46.7666 75.1873C46.2208 74.942 45.7713 74.6068 45.4182 74.1817C45.0811 73.7566 44.8242 73.2579 44.6476 72.6856C44.4871 72.097 44.4069 71.4593 44.4069 70.7726C44.4069 69.5299 44.6316 68.4344 45.081 67.4861C45.5305 66.5214 46.1245 65.7202 46.8629 65.0825C47.6173 64.4448 48.4761 63.9625 49.4393 63.6355C50.4185 63.3084 51.4378 63.1449 52.4973 63.1449C53.2678 63.1449 54.0303 63.2267 54.7848 63.3902C55.0239 63.442 55.2614 63.5029 55.4973 63.5728C56.3992 63.84 56.8474 64.8038 56.6335 65.7198L54.5199 74.7703ZM52.697 67.2999C52.8262 66.752 52.4824 66.2107 51.9194 66.2107V66.2107C51.3094 66.2107 50.7636 66.3252 50.282 66.5541C49.8005 66.7666 49.3831 67.0609 49.03 67.437C48.6929 67.8131 48.428 68.2709 48.2354 68.8105C48.0588 69.3337 47.9705 69.8978 47.9705 70.5028C47.9705 70.7971 47.9946 71.0751 48.0427 71.3367C48.0909 71.5819 48.1792 71.8027 48.3076 71.9989C48.436 72.1787 48.6126 72.3259 48.8373 72.4404C49.0621 72.5548 49.343 72.612 49.6801 72.612C49.9048 72.612 50.2018 72.5712 50.571 72.4894C50.7705 72.4471 50.9593 72.3762 51.1374 72.2768C51.4724 72.0898 51.6532 71.7267 51.7413 71.3532L52.697 67.2999Z"/>
</mask>
<path d="M22.514 73.544C22.8832 73.544 23.2524 73.5195 23.6216 73.4705C23.9908 73.4051 24.3199 73.2988 24.6089 73.1516C24.8978 73.0045 25.1306 72.8001 25.3071 72.5385C25.4998 72.2605 25.5961 71.909 25.5961 71.4838C25.5961 71.1568 25.5078 70.8789 25.3312 70.6499C25.1546 70.4047 24.9299 70.1839 24.657 69.9877C24.3841 69.7915 24.0791 69.6117 23.742 69.4482C23.4049 69.2847 23.0678 69.1048 22.7307 68.9086C22.2973 68.647 21.888 68.369 21.5027 68.0747C21.1175 67.7804 20.7884 67.4534 20.5155 67.0936C20.2426 66.7176 20.0259 66.3088 19.8654 65.8673C19.7048 65.4095 19.6246 64.8863 19.6246 64.2977C19.6246 63.5455 19.761 62.8506 20.0339 62.2129C20.3229 61.5589 20.7402 60.9948 21.286 60.5206C21.8478 60.0465 22.5461 59.6786 23.3808 59.4169C24.2156 59.139 25.1948 59 26.3184 59C26.8321 59 27.3298 59.0491 27.8113 59.1472C28.2929 59.2289 28.7424 59.3352 29.1597 59.466C29.5771 59.5968 29.9543 59.7521 30.2914 59.932V59.932C30.8146 60.1742 30.9681 60.8087 30.6883 61.3128L30.4284 61.7812C30.0018 62.55 28.9736 62.7617 28.1484 62.4582V62.4582C27.5705 62.2456 26.9445 62.1394 26.2703 62.1394C25.9011 62.1394 25.5479 62.1721 25.2108 62.2375C24.8737 62.3029 24.5768 62.4173 24.3199 62.5808C24.0631 62.728 23.8544 62.9242 23.6939 63.1695C23.5494 63.4147 23.4772 63.7172 23.4772 64.0769C23.4772 64.4039 23.5333 64.6819 23.6457 64.9108C23.7741 65.1234 23.9347 65.3114 24.1273 65.4749C24.3199 65.6384 24.5447 65.7856 24.8015 65.9164C25.0583 66.0472 25.3312 66.1862 25.6202 66.3333C26.1178 66.5949 26.5994 66.8729 27.0649 67.1672C27.5304 67.4615 27.9397 67.8049 28.2929 68.1973C28.6461 68.5734 28.927 69.0067 29.1357 69.4972C29.3443 69.9877 29.4487 70.5682 29.4487 71.2386C29.4487 72.1706 29.2801 72.9799 28.943 73.6667C28.6059 74.3534 28.1324 74.9257 27.5224 75.3835C26.9124 75.8413 26.182 76.1765 25.3312 76.3891C24.4965 76.618 23.5655 76.7324 22.5381 76.7324C21.8639 76.7324 21.2298 76.6752 20.6359 76.5608C20.058 76.4463 19.5283 76.3155 19.0467 76.1683C18.5812 76.0048 18.1718 75.8331 17.8187 75.6533V75.6533C17.3384 75.397 17.1964 74.8021 17.4567 74.3241L18.2001 72.9587C18.4085 72.5759 18.9038 72.4542 19.2875 72.6611V72.6611C19.5604 72.8083 19.8654 72.9472 20.2025 73.078C20.5556 73.2088 20.9248 73.3233 21.3101 73.4214C21.6953 73.5032 22.0967 73.544 22.514 73.544ZM35.1515 76.3891C34.2375 76.3891 33.4363 75.7702 33.2403 74.8774C32.9623 73.611 32.7043 72.21 32.4662 70.6745C32.2138 69.0336 32.0198 67.278 31.8844 65.4079C31.8088 64.3642 32.6447 63.4883 33.6911 63.4883V63.4883C34.6841 63.4883 35.4956 64.28 35.535 65.2722C35.5393 65.3793 35.5437 65.4878 35.5483 65.5975C35.5804 66.3497 35.6205 67.11 35.6687 67.8785C35.7169 68.647 35.773 69.3991 35.8373 70.1349V70.1349C35.9005 70.844 36.7646 71.0537 37.1348 70.4456C37.1676 70.3918 37.2006 70.3372 37.2338 70.2821C37.6833 69.5626 38.1167 68.8105 38.5341 68.0256C38.9514 67.2408 39.3367 66.456 39.6898 65.6711C39.8338 65.3444 39.9645 65.03 40.0818 64.7277C40.3631 64.003 41.0423 63.4883 41.8197 63.4883V63.4883C43.0336 63.4883 43.8735 64.6911 43.3666 65.7941C43.1731 66.2151 42.9669 66.6401 42.7478 67.0691C42.1378 68.2954 41.4797 69.4809 40.7734 70.6254C40.0671 71.77 39.3447 72.841 38.6063 73.8384C38.1033 74.5329 37.6236 75.1561 37.1673 75.7079C36.8036 76.1477 36.2573 76.3891 35.6866 76.3891H35.1515ZM54.5199 74.7703C54.2791 75.8331 53.9581 76.7488 53.5567 77.5173C53.1715 78.3021 52.6819 78.948 52.0879 79.4549C51.5101 79.9781 50.8118 80.3623 49.9931 80.6076C49.1744 80.8692 48.2193 81 47.1277 81C46.1164 81 45.2657 80.9019 44.5754 80.7057C44.4061 80.6616 44.2407 80.6145 44.0792 80.5645C43.2799 80.3171 42.9471 79.4182 43.2685 78.6457V78.6457C43.6141 77.815 44.5824 77.4481 45.4421 77.7135V77.7135C45.988 77.877 46.6542 77.9588 47.4408 77.9588C48.4681 77.9588 49.2386 77.7217 49.7523 77.2475C50.282 76.7897 50.6272 76.1929 50.7877 75.4571V75.4571C50.8265 75.2693 50.6286 75.1159 50.4503 75.1863C50.2574 75.2625 50.0568 75.3282 49.8486 75.3835C49.4955 75.4816 49.1182 75.5307 48.7169 75.5307C47.9625 75.5307 47.3123 75.4162 46.7666 75.1873C46.2208 74.942 45.7713 74.6068 45.4182 74.1817C45.0811 73.7566 44.8242 73.2579 44.6476 72.6856C44.4871 72.097 44.4069 71.4593 44.4069 70.7726C44.4069 69.5299 44.6316 68.4344 45.081 67.4861C45.5305 66.5214 46.1245 65.7202 46.8629 65.0825C47.6173 64.4448 48.4761 63.9625 49.4393 63.6355C50.4185 63.3084 51.4378 63.1449 52.4973 63.1449C53.2678 63.1449 54.0303 63.2267 54.7848 63.3902C55.0239 63.442 55.2614 63.5029 55.4973 63.5728C56.3992 63.84 56.8474 64.8038 56.6335 65.7198L54.5199 74.7703ZM52.697 67.2999C52.8262 66.752 52.4824 66.2107 51.9194 66.2107V66.2107C51.3094 66.2107 50.7636 66.3252 50.282 66.5541C49.8005 66.7666 49.3831 67.0609 49.03 67.437C48.6929 67.8131 48.428 68.2709 48.2354 68.8105C48.0588 69.3337 47.9705 69.8978 47.9705 70.5028C47.9705 70.7971 47.9946 71.0751 48.0427 71.3367C48.0909 71.5819 48.1792 71.8027 48.3076 71.9989C48.436 72.1787 48.6126 72.3259 48.8373 72.4404C49.0621 72.5548 49.343 72.612 49.6801 72.612C49.9048 72.612 50.2018 72.5712 50.571 72.4894C50.7705 72.4471 50.9593 72.3762 51.1374 72.2768C51.4724 72.0898 51.6532 71.7267 51.7413 71.3532L52.697 67.2999Z" fill="white"/>
<path d="M22.514 73.544C22.8832 73.544 23.2524 73.5195 23.6216 73.4705C23.9908 73.4051 24.3199 73.2988 24.6089 73.1516C24.8978 73.0045 25.1306 72.8001 25.3071 72.5385C25.4998 72.2605 25.5961 71.909 25.5961 71.4838C25.5961 71.1568 25.5078 70.8789 25.3312 70.6499C25.1546 70.4047 24.9299 70.1839 24.657 69.9877C24.3841 69.7915 24.0791 69.6117 23.742 69.4482C23.4049 69.2847 23.0678 69.1048 22.7307 68.9086C22.2973 68.647 21.888 68.369 21.5027 68.0747C21.1175 67.7804 20.7884 67.4534 20.5155 67.0936C20.2426 66.7176 20.0259 66.3088 19.8654 65.8673C19.7048 65.4095 19.6246 64.8863 19.6246 64.2977C19.6246 63.5455 19.761 62.8506 20.0339 62.2129C20.3229 61.5589 20.7402 60.9948 21.286 60.5206C21.8478 60.0465 22.5461 59.6786 23.3808 59.4169C24.2156 59.139 25.1948 59 26.3184 59C26.8321 59 27.3298 59.0491 27.8113 59.1472C28.2929 59.2289 28.7424 59.3352 29.1597 59.466C29.5771 59.5968 29.9543 59.7521 30.2914 59.932V59.932C30.8146 60.1742 30.9681 60.8087 30.6883 61.3128L30.4284 61.7812C30.0018 62.55 28.9736 62.7617 28.1484 62.4582V62.4582C27.5705 62.2456 26.9445 62.1394 26.2703 62.1394C25.9011 62.1394 25.5479 62.1721 25.2108 62.2375C24.8737 62.3029 24.5768 62.4173 24.3199 62.5808C24.0631 62.728 23.8544 62.9242 23.6939 63.1695C23.5494 63.4147 23.4772 63.7172 23.4772 64.0769C23.4772 64.4039 23.5333 64.6819 23.6457 64.9108C23.7741 65.1234 23.9347 65.3114 24.1273 65.4749C24.3199 65.6384 24.5447 65.7856 24.8015 65.9164C25.0583 66.0472 25.3312 66.1862 25.6202 66.3333C26.1178 66.5949 26.5994 66.8729 27.0649 67.1672C27.5304 67.4615 27.9397 67.8049 28.2929 68.1973C28.6461 68.5734 28.927 69.0067 29.1357 69.4972C29.3443 69.9877 29.4487 70.5682 29.4487 71.2386C29.4487 72.1706 29.2801 72.9799 28.943 73.6667C28.6059 74.3534 28.1324 74.9257 27.5224 75.3835C26.9124 75.8413 26.182 76.1765 25.3312 76.3891C24.4965 76.618 23.5655 76.7324 22.5381 76.7324C21.8639 76.7324 21.2298 76.6752 20.6359 76.5608C20.058 76.4463 19.5283 76.3155 19.0467 76.1683C18.5812 76.0048 18.1718 75.8331 17.8187 75.6533V75.6533C17.3384 75.397 17.1964 74.8021 17.4567 74.3241L18.2001 72.9587C18.4085 72.5759 18.9038 72.4542 19.2875 72.6611V72.6611C19.5604 72.8083 19.8654 72.9472 20.2025 73.078C20.5556 73.2088 20.9248 73.3233 21.3101 73.4214C21.6953 73.5032 22.0967 73.544 22.514 73.544ZM35.1515 76.3891C34.2375 76.3891 33.4363 75.7702 33.2403 74.8774C32.9623 73.611 32.7043 72.21 32.4662 70.6745C32.2138 69.0336 32.0198 67.278 31.8844 65.4079C31.8088 64.3642 32.6447 63.4883 33.6911 63.4883V63.4883C34.6841 63.4883 35.4956 64.28 35.535 65.2722C35.5393 65.3793 35.5437 65.4878 35.5483 65.5975C35.5804 66.3497 35.6205 67.11 35.6687 67.8785C35.7169 68.647 35.773 69.3991 35.8373 70.1349V70.1349C35.9005 70.844 36.7646 71.0537 37.1348 70.4456C37.1676 70.3918 37.2006 70.3372 37.2338 70.2821C37.6833 69.5626 38.1167 68.8105 38.5341 68.0256C38.9514 67.2408 39.3367 66.456 39.6898 65.6711C39.8338 65.3444 39.9645 65.03 40.0818 64.7277C40.3631 64.003 41.0423 63.4883 41.8197 63.4883V63.4883C43.0336 63.4883 43.8735 64.6911 43.3666 65.7941C43.1731 66.2151 42.9669 66.6401 42.7478 67.0691C42.1378 68.2954 41.4797 69.4809 40.7734 70.6254C40.0671 71.77 39.3447 72.841 38.6063 73.8384C38.1033 74.5329 37.6236 75.1561 37.1673 75.7079C36.8036 76.1477 36.2573 76.3891 35.6866 76.3891H35.1515ZM54.5199 74.7703C54.2791 75.8331 53.9581 76.7488 53.5567 77.5173C53.1715 78.3021 52.6819 78.948 52.0879 79.4549C51.5101 79.9781 50.8118 80.3623 49.9931 80.6076C49.1744 80.8692 48.2193 81 47.1277 81C46.1164 81 45.2657 80.9019 44.5754 80.7057C44.4061 80.6616 44.2407 80.6145 44.0792 80.5645C43.2799 80.3171 42.9471 79.4182 43.2685 78.6457V78.6457C43.6141 77.815 44.5824 77.4481 45.4421 77.7135V77.7135C45.988 77.877 46.6542 77.9588 47.4408 77.9588C48.4681 77.9588 49.2386 77.7217 49.7523 77.2475C50.282 76.7897 50.6272 76.1929 50.7877 75.4571V75.4571C50.8265 75.2693 50.6286 75.1159 50.4503 75.1863C50.2574 75.2625 50.0568 75.3282 49.8486 75.3835C49.4955 75.4816 49.1182 75.5307 48.7169 75.5307C47.9625 75.5307 47.3123 75.4162 46.7666 75.1873C46.2208 74.942 45.7713 74.6068 45.4182 74.1817C45.0811 73.7566 44.8242 73.2579 44.6476 72.6856C44.4871 72.097 44.4069 71.4593 44.4069 70.7726C44.4069 69.5299 44.6316 68.4344 45.081 67.4861C45.5305 66.5214 46.1245 65.7202 46.8629 65.0825C47.6173 64.4448 48.4761 63.9625 49.4393 63.6355C50.4185 63.3084 51.4378 63.1449 52.4973 63.1449C53.2678 63.1449 54.0303 63.2267 54.7848 63.3902C55.0239 63.442 55.2614 63.5029 55.4973 63.5728C56.3992 63.84 56.8474 64.8038 56.6335 65.7198L54.5199 74.7703ZM52.697 67.2999C52.8262 66.752 52.4824 66.2107 51.9194 66.2107V66.2107C51.3094 66.2107 50.7636 66.3252 50.282 66.5541C49.8005 66.7666 49.3831 67.0609 49.03 67.437C48.6929 67.8131 48.428 68.2709 48.2354 68.8105C48.0588 69.3337 47.9705 69.8978 47.9705 70.5028C47.9705 70.7971 47.9946 71.0751 48.0427 71.3367C48.0909 71.5819 48.1792 71.8027 48.3076 71.9989C48.436 72.1787 48.6126 72.3259 48.8373 72.4404C49.0621 72.5548 49.343 72.612 49.6801 72.612C49.9048 72.612 50.2018 72.5712 50.571 72.4894C50.7705 72.4471 50.9593 72.3762 51.1374 72.2768C51.4724 72.0898 51.6532 71.7267 51.7413 71.3532L52.697 67.2999Z" stroke="white" mask="url(#path-1-outside-1_1462_120)"/>
<mask id="path-2-inside-2_1462_120" fill="white">
<path d="M73.5137 20.4277C75.43 19.6284 77.1067 19.9487 78.5439 21.3877C80.0345 22.88 80.3805 24.5584 79.582 26.4238L64.8507 62.3873C64.0195 64.4165 61 63.822 61 61.6292V61C61 59.8954 60.1046 59 59 59H51.957C50.8525 59 49.957 58.1046 49.957 57V54.0078C49.9568 51.799 48.1658 50.008 45.957 50.0078H24.6436C23.5256 50.0078 22.5402 49.6616 21.6885 48.9688C20.8369 48.276 20.3048 47.3968 20.0918 46.3311C19.8789 45.1585 20.038 44.0922 20.5703 43.1328C21.1027 42.1735 21.8752 41.5069 22.8867 41.1338L73.5137 20.4277Z"/>
</mask>
<path d="M73.5137 20.4277C75.43 19.6284 77.1067 19.9487 78.5439 21.3877C80.0345 22.88 80.3805 24.5584 79.582 26.4238L64.8507 62.3873C64.0195 64.4165 61 63.822 61 61.6292V61C61 59.8954 60.1046 59 59 59H51.957C50.8525 59 49.957 58.1046 49.957 57V54.0078C49.9568 51.799 48.1658 50.008 45.957 50.0078H24.6436C23.5256 50.0078 22.5402 49.6616 21.6885 48.9688C20.8369 48.276 20.3048 47.3968 20.0918 46.3311C19.8789 45.1585 20.038 44.0922 20.5703 43.1328C21.1027 42.1735 21.8752 41.5069 22.8867 41.1338L73.5137 20.4277Z" fill="white" fill-opacity="0.5"/>
<path d="M73.5137 20.4277L75.785 25.9812L75.8042 25.9733L75.8234 25.9653L73.5137 20.4277ZM78.5439 21.3877L82.7891 17.1475L82.7891 17.1475L78.5439 21.3877ZM79.582 26.4238L74.0661 24.0627L74.0476 24.106L74.0298 24.1495L79.582 26.4238ZM49.957 54.0078L55.957 54.0078L55.957 54.0071L49.957 54.0078ZM45.957 50.0078L45.9576 44.0078H45.957V50.0078ZM21.6885 48.9688L17.9021 53.6232L17.9023 53.6233L21.6885 48.9688ZM20.0918 46.3311L14.1884 47.4032L14.1978 47.4551L14.2081 47.5069L20.0918 46.3311ZM20.5703 43.1328L15.3239 40.2216L15.3239 40.2216L20.5703 43.1328ZM22.8867 41.1338L24.9631 46.7631L25.0612 46.7269L25.158 46.6873L22.8867 41.1338ZM64.8507 62.3873L70.403 64.6616L64.8507 62.3873ZM73.5137 20.4277L75.8234 25.9653C75.9331 25.9196 75.6288 26.066 75.0834 25.9619C74.5278 25.8559 74.2646 25.5936 74.2988 25.6279L78.5439 21.3877L82.7891 17.1475C81.386 15.7429 79.5659 14.6009 77.3335 14.1748C75.1114 13.7506 73.0106 14.1366 71.2039 14.8901L73.5137 20.4277ZM78.5439 21.3877L74.2988 25.6278C74.4084 25.7375 74.1579 25.525 74.0449 24.9772C73.9278 24.4091 74.0741 24.044 74.0661 24.0627L79.582 26.4238L85.0979 28.785C85.8884 26.9382 86.261 24.8012 85.7978 22.5545C85.3389 20.3281 84.1701 18.5302 82.7891 17.1475L78.5439 21.3877ZM79.582 26.4238L74.0298 24.1495L59.2985 60.113L64.8507 62.3873L70.403 64.6616L85.1343 28.6981L79.582 26.4238ZM61 61.6292H67V61H61H55V61.6292H61ZM59 59V53H51.957V59V65H59V59ZM49.957 57H55.957V54.0078H49.957H43.957V57H49.957ZM49.957 54.0078L55.957 54.0071C55.9564 48.4853 51.4798 44.0083 45.9576 44.0078L45.957 50.0078L45.9565 56.0078C44.8519 56.0077 43.9572 55.1127 43.957 54.0085L49.957 54.0078ZM45.957 50.0078V44.0078H24.6436V50.0078V56.0078H45.957V50.0078ZM24.6436 50.0078V44.0078C24.7139 44.0078 24.8652 44.0206 25.0561 44.0877C25.2485 44.1553 25.3918 44.2468 25.4747 44.3142L21.6885 48.9688L17.9023 53.6233C19.8462 55.2045 22.1753 56.0078 24.6436 56.0078V50.0078ZM21.6885 48.9688L25.4748 44.3143C25.5469 44.3729 25.6694 44.4941 25.7836 44.6828C25.8982 44.8722 25.9535 45.0454 25.9755 45.1552L20.0918 46.3311L14.2081 47.5069C14.6974 49.9552 15.9798 52.0594 17.9021 53.6232L21.6885 48.9688ZM20.0918 46.3311L25.9952 45.259C25.9939 45.2514 26.0129 45.3566 25.9856 45.5392C25.9573 45.7286 25.8931 45.9064 25.8167 46.044L20.5703 43.1328L15.3239 40.2216C14.0583 42.5024 13.7511 44.9953 14.1884 47.4032L20.0918 46.3311ZM20.5703 43.1328L25.8167 46.0441C25.7661 46.1353 25.6563 46.2941 25.4688 46.4559C25.28 46.6188 25.0932 46.7151 24.9631 46.7631L22.8867 41.1338L20.8104 35.5045C18.4255 36.3842 16.5402 38.0297 15.3239 40.2216L20.5703 43.1328ZM22.8867 41.1338L25.158 46.6873L75.785 25.9812L73.5137 20.4277L71.2423 14.8743L20.6154 35.5803L22.8867 41.1338ZM51.957 59V53C54.1662 53 55.957 54.7909 55.957 57H49.957H43.957C43.957 61.4183 47.5388 65 51.957 65V59ZM61 61H67C67 56.5817 63.4183 53 59 53V59V65C56.7909 65 55 63.2091 55 61H61ZM64.8507 62.3873L59.2985 60.113C60.961 56.0544 67 57.2436 67 61.6292H61H55C55 70.4005 67.0781 72.7786 70.403 64.6616L64.8507 62.3873Z" fill="white" fill-opacity="0.6" mask="url(#path-2-inside-2_1462_120)"/>
</svg>
