<svg width="100" height="100" viewBox="0 0 100 100" fill="none" xmlns="http://www.w3.org/2000/svg">
<path d="M77 37.976C78.6569 37.976 80 39.3191 80 40.976V52.976C80 54.6329 78.6569 55.976 77 55.976H73.9291C72.7248 55.976 71.6545 56.7062 71.0825 57.7661C69.7671 60.2036 67.9674 62.3909 65.6834 64.328C63.4012 66.2637 60.8537 67.7934 58.0411 68.9173C56.8259 69.4029 55.9712 70.5455 55.9712 71.8541V74C55.9712 75.6569 54.6281 77 52.9712 77H40.9856C39.3288 77 37.9856 75.6569 37.9856 74V71.8423C37.9856 70.5394 37.1383 69.3997 35.9287 68.9155C31.495 67.1407 27.8401 64.4595 24.964 60.872C21.6547 56.744 20 52.136 20 47.048C20 42.728 21.223 38.72 23.6691 35.024C26.1151 31.328 29.3765 28.4 33.4532 26.24C37.53 24.08 42.0144 23 46.9065 23C52.5659 23 57.6499 24.368 62.1583 27.104C66.0706 29.4783 69.0439 32.5212 71.0781 36.2329C71.647 37.271 72.7047 37.976 73.8885 37.976H77ZM63.0901 55.976C62.496 55.976 62.0144 55.4944 62.0144 54.9003V39.0434C62.0144 38.4539 62.4923 37.976 63.0818 37.976V37.976C63.926 37.976 64.4219 37.0497 63.8847 36.3984C62.2609 34.4295 60.1507 32.7954 57.554 31.496C54.2926 29.864 50.7434 29.048 46.9065 29.048C43.0695 29.048 39.5683 29.84 36.4029 31.424C33.2374 33.008 30.7194 35.192 28.8489 37.976C26.9784 40.76 26.0432 43.784 26.0432 47.048C26.0432 50.6 27.1463 53.816 29.3525 56.696C31.0534 58.9163 33.1533 60.7372 35.6524 62.1587C36.7234 62.7679 37.9856 61.9448 37.9856 60.7126V60.7126C37.9856 59.7668 38.7524 59 39.6983 59H54.2181C55.1863 59 55.9712 59.7849 55.9712 60.7532V60.7532C55.9712 61.9874 57.2146 62.8315 58.3013 62.2463C60.5315 61.0452 62.403 59.4852 63.9158 57.5661C64.4395 56.9018 63.936 55.976 63.0901 55.976V55.976ZM67.9137 46.976C67.9137 48.6063 69.2353 49.928 70.8657 49.928H71.0048C72.6352 49.928 73.9568 48.6063 73.9568 46.976V46.976C73.9568 45.3457 72.6352 44.024 71.0048 44.024H70.8657C69.2353 44.024 67.9137 45.3457 67.9137 46.976V46.976ZM44.0288 68.1464C44.0288 69.7754 45.3494 71.096 46.9784 71.096V71.096C48.6075 71.096 49.9281 69.7754 49.9281 68.1464V67.9976C49.9281 66.3686 48.6075 65.048 46.9784 65.048V65.048C45.3494 65.048 44.0288 66.3686 44.0288 67.9976V68.1464Z" fill="white" fill-opacity="0.6"/>
</svg>
