<svg width="100" height="100" viewBox="0 0 100 100" fill="none" xmlns="http://www.w3.org/2000/svg">
<path d="M60 23C60 21.3431 61.3431 20 63 20H77C78.6569 20 80 21.3431 80 23V37C80 38.6569 78.6569 40 77 40H65.8826C65.087 40 64.3239 40.3161 63.7613 40.8787L40.8787 63.7613C40.3161 64.3239 40 65.087 40 65.8826V77C40 78.6569 38.6569 80 37 80H23C21.3431 80 20 78.6569 20 77V63C20 61.3431 21.3431 60 23 60H33.9574C34.753 60 35.5161 59.6839 36.0787 59.1213L59.1213 36.0787C59.6839 35.5161 60 34.753 60 33.9574V23ZM69.72 26.72C68.0631 26.72 66.72 28.0631 66.72 29.72V30.28C66.72 31.9369 68.0631 33.28 69.72 33.28H70.28C71.9369 33.28 73.28 31.9369 73.28 30.28V29.72C73.28 28.0631 71.9369 26.72 70.28 26.72H69.72ZM29.72 66.72C28.0631 66.72 26.72 68.0631 26.72 69.72V70.28C26.72 71.9369 28.0631 73.28 29.72 73.28H30.28C31.9369 73.28 33.28 71.9369 33.28 70.28V69.72C33.28 68.0631 31.9369 66.72 30.28 66.72H29.72Z" fill="black" fill-opacity="0.6"/>
</svg>
