<svg width="100" height="100" viewBox="0 0 100 100" fill="none" xmlns="http://www.w3.org/2000/svg">
<path d="M25.76 20H57.2343C58.7429 20 60.0457 20.5714 61.1429 21.7143C62.2857 22.8114 62.8571 24.16 62.8571 25.76V28.7086C62.8571 30.2613 61.5984 31.52 60.0457 31.52V31.52C58.493 31.52 57.2343 30.2613 57.2343 28.7086V28.64C57.2343 27.0494 55.9449 25.76 54.3543 25.76H28.76C27.1031 25.76 25.76 27.1031 25.76 28.76V54.2343C25.76 55.8911 27.1031 57.2343 28.76 57.2343H54.2343C55.8911 57.2343 57.2343 55.8911 57.2343 54.2343V51.4743C57.2343 49.9216 58.493 48.6629 60.0457 48.6629V48.6629C61.5984 48.6629 62.8571 49.9216 62.8571 51.4743V57.2343C62.8571 58.7429 62.2857 60.0686 61.1429 61.2114C60.0457 62.3086 58.7429 62.8571 57.2343 62.8571H25.76C24.16 62.8571 22.7886 62.3086 21.6457 61.2114C20.5486 60.0686 20 58.7429 20 57.2343V25.76C20 24.16 20.5486 22.8114 21.6457 21.7143C22.7886 20.5714 24.16 20 25.76 20ZM42.9029 37.1429H74.3771C75.8857 37.1429 77.1886 37.7143 78.2857 38.8571C79.4286 39.9543 80 41.3029 80 42.9029V74.3771C80 75.8857 79.4286 77.1886 78.2857 78.2857C77.1886 79.4286 75.8857 80 74.3771 80H42.9029C41.3029 80 39.9314 79.4286 38.7886 78.2857C37.6914 77.1886 37.1429 75.8857 37.1429 74.3771V71.4971C37.1429 69.9066 38.4323 68.6171 40.0229 68.6171V68.6171C41.6134 68.6171 42.9029 69.9066 42.9029 71.4971V71.4971C42.9029 73.0877 44.1923 74.3771 45.7829 74.3771H71.3771C73.034 74.3771 74.3771 73.034 74.3771 71.3771V45.9029C74.3771 44.246 73.034 42.9029 71.3771 42.9029H45.9029C44.246 42.9029 42.9029 44.246 42.9029 45.9029V48.5943C42.9029 50.1849 41.6134 51.4743 40.0229 51.4743V51.4743C38.4323 51.4743 37.1429 50.1849 37.1429 48.5943V42.9029C37.1429 41.3029 37.6914 39.9543 38.7886 38.8571C39.9314 37.7143 41.3029 37.1429 42.9029 37.1429Z" fill="black" fill-opacity="0.6"/>
</svg>
