<svg width="100" height="100" viewBox="0 0 100 100" fill="none" xmlns="http://www.w3.org/2000/svg">
<path d="M73.28 19.6797C75.1467 19.6797 76.72 20.3424 78 21.6678C79.3333 22.9401 80 24.504 80 26.3595V72.6405C80 74.496 79.3333 76.0599 78 77.3322C76.72 78.6576 75.1467 79.3203 73.28 79.3203H58.72C57.6154 79.3203 56.72 78.4248 56.72 77.3203V55.0258C56.72 53.1551 59.0593 52.3084 60.2567 53.7458L69.7433 65.1344C70.9407 66.5718 73.28 65.7251 73.28 63.8543V28.3595C73.28 27.2549 72.3846 26.3595 71.28 26.3595H58.72C57.6154 26.3595 56.72 25.464 56.72 24.3595V21.6797C56.72 20.5752 57.6154 19.6797 58.72 19.6797H73.28ZM41.28 69.3802C42.3846 69.3802 43.28 68.4847 43.28 67.3802V55.0258C43.28 53.155 40.9407 52.3084 39.7433 53.7458L29.4523 66.1001C28.3671 67.4028 29.2935 69.3802 30.989 69.3802H41.28ZM41.28 19.6797C42.3846 19.6797 43.28 18.7843 43.28 17.6797V15C43.28 13.8954 44.1754 13 45.28 13H48C49.1046 13 50 13.8954 50 15V84C50 85.1046 49.1046 86 48 86H45.28C44.1754 86 43.28 85.1046 43.28 84V81.3203C43.28 80.2157 42.3846 79.3203 41.28 79.3203H26.72C24.8533 79.3203 23.2533 78.6576 21.92 77.3322C20.64 76.0599 20 74.496 20 72.6405V26.3595C20 24.504 20.64 22.9401 21.92 21.6678C23.2533 20.3424 24.8533 19.6797 26.72 19.6797H41.28Z" fill="white" fill-opacity="0.6"/>
</svg>
