<svg width="100" height="100" viewBox="0 0 100 100" fill="none" xmlns="http://www.w3.org/2000/svg">
<path d="M25.9135 20H53.101C53.9922 20 54.4379 20 54.7916 20.1395C55.3069 20.3428 55.7149 20.7508 55.9182 21.2661C56.0577 21.6198 56.0577 22.0655 56.0577 22.9567V22.9567C56.0577 23.848 56.0577 24.2937 55.9182 24.6473C55.7149 25.1627 55.3069 25.5707 54.7916 25.774C54.4379 25.9135 53.9922 25.9135 53.101 25.9135H29.9135C28.0278 25.9135 27.085 25.9135 26.4992 26.4993C25.9135 27.085 25.9135 28.0278 25.9135 29.9135V53.101C25.9135 53.9922 25.9135 54.4379 25.774 54.7916C25.5707 55.3069 25.1627 55.7149 24.6473 55.9182C24.2937 56.0577 23.848 56.0577 22.9567 56.0577V56.0577C22.0655 56.0577 21.6198 56.0577 21.2661 55.9182C20.7508 55.7149 20.3428 55.3069 20.1395 54.7916C20 54.4379 20 53.9922 20 53.101V25.9135C20 24.375 20.601 23.0048 21.8029 21.8029C23.0048 20.601 24.375 20 25.9135 20ZM38.0288 31.9712H65C65.959 31.9712 66.4385 31.9712 66.8151 32.1322C67.2884 32.3345 67.6655 32.7116 67.8678 33.1849C68.0288 33.5615 68.0288 34.041 68.0288 35V35C68.0288 35.959 68.0288 36.4385 67.8678 36.8151C67.6655 37.2884 67.2884 37.6655 66.8151 37.8678C66.4385 38.0288 65.959 38.0288 65 38.0288H42.0288C40.1432 38.0288 39.2004 38.0288 38.6146 38.6146C38.0288 39.2004 38.0288 40.1432 38.0288 42.0288V65C38.0288 65.959 38.0288 66.4385 37.8678 66.8151C37.6655 67.2884 37.2884 67.6655 36.8151 67.8678C36.4385 68.0288 35.959 68.0288 35 68.0288V68.0288C34.041 68.0288 33.5615 68.0288 33.1849 67.8678C32.7116 67.6655 32.3345 67.2884 32.1322 66.8151C31.9712 66.4385 31.9712 65.959 31.9712 65V38.0288C31.9712 36.3942 32.5721 34.976 33.774 33.774C34.976 32.5721 36.3942 31.9712 38.0288 31.9712ZM50 43.9423H74.0865C75.7212 43.9423 77.1154 44.5433 78.2692 45.7452C79.4231 46.9471 80 48.3654 80 50V74.0865C80 75.7212 79.4231 77.1154 78.2692 78.2692C77.1154 79.4231 75.7212 80 74.0865 80H50C48.3654 80 46.9471 79.4231 45.7452 78.2692C44.5433 77.1154 43.9423 75.7212 43.9423 74.0865V50C43.9423 48.3654 44.5433 46.9471 45.7452 45.7452C46.9471 44.5433 48.3654 43.9423 50 43.9423ZM62.2703 54.1252C59.5348 52.3088 58.167 51.4006 57.1123 51.9663C56.0577 52.532 56.0577 54.1738 56.0577 57.4575V66.5793C56.0577 69.8821 56.0577 71.5335 57.1172 72.098C58.1768 72.6625 59.5474 71.7414 62.2887 69.8993L69.1164 65.3111C71.3647 63.8002 72.4889 63.0448 72.4859 61.9756C72.483 60.9064 71.3547 60.1572 69.098 58.6588L62.2703 54.1252Z" fill="white" fill-opacity="0.6"/>
</svg>
