<svg width="40" height="40" viewBox="0 0 40 40" fill="none" xmlns="http://www.w3.org/2000/svg">
<path fill-rule="evenodd" clip-rule="evenodd" d="M32.0813 30.142C31.4205 29.547 30.4039 29.623 29.7543 30.2302C27.2523 32.5686 23.8917 34 20.1969 34C14.1517 34 9.00135 30.1684 7.04195 24.8013C6.60627 23.6079 7.59986 22.4644 8.86953 22.5088L9.27253 22.5228C10.1481 22.5534 10.883 23.1602 11.2383 23.9609C12.7622 27.3948 16.2016 29.7898 20.2004 29.7898C22.5464 29.7898 24.7 28.9654 26.3871 27.5905C27.2187 26.9127 27.1187 25.6738 26.3214 24.9559L26.2383 24.8811C24.9141 23.6888 25.6925 21.4908 27.4719 21.3975L32.3034 21.1443C33.4065 21.0865 34.3475 21.9338 34.4053 23.0369L34.712 28.8872C34.7855 30.2906 33.1256 31.0823 32.0813 30.142V30.142ZM8.32744 9.84601C8.98702 10.4399 10.0015 10.3647 10.6506 9.7594C13.1515 7.4271 16.5075 6 20.1969 6C26.1302 6 31.2014 9.69101 33.2397 14.9022C33.7082 16.1 32.7121 17.271 31.4267 17.2261L31.0186 17.2119C30.1622 17.1819 29.4383 16.5999 29.0736 15.8244C27.5079 12.4949 24.1233 10.1898 20.2004 10.1898C17.8539 10.1898 15.7 11.0145 14.0128 12.3898C13.1813 13.0676 13.2813 14.3064 14.0786 15.0242L14.1729 15.1092C15.4971 16.3015 14.7187 18.4995 12.9394 18.5928L8.10783 18.846C7.00478 18.9038 6.06371 18.0565 6.0059 16.9534L5.69912 11.0997C5.62564 9.69757 7.28403 8.90655 8.32744 9.84601V9.84601Z" fill="black" fill-opacity="0.5"/>
</svg>
