<svg width="40" height="40" viewBox="0 0 40 40" fill="none" xmlns="http://www.w3.org/2000/svg">
<path d="M31.9373 21.1435C33.1243 21.0815 34.137 21.9934 34.1992 23.1805L34.4976 28.873C34.5711 30.2755 32.9116 31.0676 31.868 30.1279C31.2077 29.5334 30.1922 29.6086 29.543 30.2151C27.0425 32.5522 23.6837 33.9831 19.9911 33.9831C18.2018 33.9831 16.4913 33.6466 14.9188 33.034C13.6335 32.5333 13.4484 30.8951 14.4237 29.9197L14.5059 29.8375C15.1621 29.1813 16.1588 29.0432 17.0437 29.3228C17.9748 29.6169 18.9659 29.7758 19.9942 29.7758C22.3274 29.7758 24.471 28.9601 26.1534 27.598C27.0005 26.9122 26.8982 25.6525 26.0882 24.9231C24.7431 23.7117 25.5344 21.479 27.3421 21.3842L31.9373 21.1435ZM8.96031 22.5089C9.90246 22.5418 10.692 23.1956 11.0845 24.0528C11.0985 24.0834 11.0929 24.1191 11.0691 24.1429L9.76744 25.4441C8.87018 26.3409 7.36214 26.154 6.91076 24.9683C6.42434 23.6904 7.49394 22.458 8.86046 22.5056L8.96031 22.5089ZM19.9911 6C21.654 6 23.249 6.29076 24.7283 6.82363C26.0439 7.29752 26.2513 8.9603 25.2623 9.94894L25.1807 10.0306C24.5415 10.6695 23.5768 10.8182 22.7083 10.5683C21.8465 10.3203 20.9358 10.1874 19.9942 10.1874C17.6624 10.1875 15.5211 11.0025 13.8393 12.3631C12.9901 13.0501 13.0917 14.3123 13.9034 15.0432C15.2515 16.2572 14.4591 18.4945 12.6474 18.5895L8.06272 18.8302C6.87563 18.8923 5.86307 17.9803 5.80086 16.7932L5.50236 11.0965C5.42896 9.69531 7.08617 8.9048 8.12893 9.84369C8.78806 10.4371 9.802 10.3623 10.4507 9.7575C12.95 7.42663 16.304 6.00003 19.9911 6ZM30.0723 14.2711C30.9692 13.3743 32.4763 13.5427 32.9547 14.7174C33.4766 15.9994 32.4042 17.261 31.0208 17.2126L30.9168 17.2094C29.9952 17.1772 29.2175 16.5491 28.8157 15.7191C28.7787 15.6428 28.791 15.5525 28.851 15.4925L30.0723 14.2711Z" fill="black" fill-opacity="0.5"/>
<path d="M27.8873 8.5971L8.10021 28.3842C7.25958 29.2248 7.25958 30.5877 8.10021 31.4283C8.94083 32.269 10.3037 32.269 11.1444 31.4283L30.9314 11.6413C31.7721 10.8006 31.7721 9.43772 30.9314 8.5971C30.0908 7.75647 28.7279 7.75648 27.8873 8.5971Z" fill="#DB3B4B" fill-opacity="0.7"/>
</svg>
