<svg width="40" height="40" viewBox="0 0 40 40" fill="none" xmlns="http://www.w3.org/2000/svg">
<path fill-rule="evenodd" clip-rule="evenodd" d="M17.4531 8.00591C17.4531 7.45036 17.9035 7 18.459 7V7C18.6991 7 18.9313 7.08589 19.1136 7.24215L32.2268 18.4815C33.1581 19.2796 33.1581 20.7204 32.2268 21.5185L19.1136 32.7578C18.9313 32.9141 18.6991 33 18.459 33V33C17.9035 33 17.4531 32.5496 17.4531 31.9941V8.00591Z" fill="black" fill-opacity="0.5"/>
<path d="M10.7276 7H7.63672C6.53215 7 5.63672 7.89543 5.63672 9V31C5.63672 32.1046 6.53215 33 7.63672 33H10.7276C11.8322 33 12.7276 32.1046 12.7276 31V9C12.7276 7.89543 11.8322 7 10.7276 7Z" fill="black" fill-opacity="0.5"/>
</svg>
