<svg width="40" height="40" viewBox="0 0 40 40" fill="none" xmlns="http://www.w3.org/2000/svg">
<path fill-rule="evenodd" clip-rule="evenodd" d="M5.63672 8.00591C5.63672 7.45036 6.08708 7 6.64262 7V7C6.88274 7 7.11493 7.08589 7.29724 7.24215L20.4104 18.4815C21.3417 19.2796 21.3417 20.7204 20.4104 21.5185L7.29724 32.7578C7.11493 32.9141 6.88274 33 6.64262 33V33C6.08708 33 5.63672 32.5496 5.63672 31.9941V8.00591Z" fill="white" fill-opacity="0.5"/>
<path d="M28.9091 7H32C33.1046 7 34 7.89543 34 9V31C34 32.1046 33.1046 33 32 33H28.9091C27.8045 33 26.9091 32.1046 26.9091 31V9C26.9091 7.89543 27.8045 7 28.9091 7Z" fill="white" fill-opacity="0.5"/>
</svg>
