<svg width="40" height="40" viewBox="0 0 40 40" fill="none" xmlns="http://www.w3.org/2000/svg">
<path fill-rule="evenodd" clip-rule="evenodd" d="M34.3633 8.00591C34.3633 7.45036 33.9129 7 33.3574 7V7C33.1173 7 32.8851 7.08589 32.7028 7.24215L19.5896 18.4815C18.6583 19.2796 18.6583 20.7204 19.5896 21.5185L32.7028 32.7578C32.8851 32.9141 33.1173 33 33.3574 33V33C33.9129 33 34.3633 32.5496 34.3633 31.9941V8.00591Z" fill="black" fill-opacity="0.5"/>
<path d="M11.0909 7H8C6.89543 7 6 7.89543 6 9V31C6 32.1046 6.89543 33 8 33H11.0909C12.1955 33 13.0909 32.1046 13.0909 31V9C13.0909 7.89543 12.1955 7 11.0909 7Z" fill="black" fill-opacity="0.5"/>
</svg>
