<svg width="40" height="40" viewBox="0 0 40 40" fill="none" xmlns="http://www.w3.org/2000/svg">
<path d="M15.5011 8H12C10.8954 8 10 8.89543 10 10V30C10 31.1046 10.8954 32 12 32H15.5011C16.6057 32 17.5011 31.1046 17.5011 30V10C17.5011 8.89543 16.6057 8 15.5011 8Z" fill="#F2C55C" fill-opacity="0.5"/>
<path d="M28.0011 8H24.5C23.3954 8 22.5 8.89543 22.5 10V30C22.5 31.1046 23.3954 32 24.5 32H28.0011C29.1057 32 30.0011 31.1046 30.0011 30V10C30.0011 8.89543 29.1057 8 28.0011 8Z" fill="#F2C55C" fill-opacity="0.5"/>
</svg>
