<svg width="40" height="40" viewBox="0 0 40 40" fill="none" xmlns="http://www.w3.org/2000/svg">
<path d="M18.7107 6.27302C19.5804 5.90899 20.4399 5.90899 21.2893 6.27302L33.2416 11.7942C33.7472 12.0368 34 12.4413 34 13.0076C34 13.5739 33.7472 13.9783 33.2416 14.221L21.2893 19.7421C20.4399 20.1062 19.5804 20.1062 18.7107 19.7421L6.7584 14.221C6.2528 13.9783 6 13.5739 6 13.0076C6 12.4413 6.2528 12.0368 6.7584 11.7942L18.7107 6.27302ZM30.3294 17.4973L33.2416 18.8321C33.7472 19.0747 34 19.459 34 19.9848C34 20.5511 33.7472 20.9556 33.2416 21.1983L21.2893 26.7194C20.4399 27.1239 19.5804 27.1239 18.7107 26.7194L6.7584 21.1983C6.2528 20.9556 6 20.5511 6 19.9848C6 19.459 6.2528 19.0747 6.7584 18.8321L9.67064 17.4973L17.9827 21.3196C19.3377 21.9263 20.6826 21.9263 22.0173 21.3196L30.3294 17.4973ZM22.0173 28.2969L30.3294 24.4745L33.2416 25.8093C33.7472 26.052 34 26.4464 34 26.9924C34 27.5385 33.7472 27.9328 33.2416 28.1755L21.2893 33.6966C20.4399 34.1011 19.5804 34.1011 18.7107 33.6966L6.7584 28.1755C6.2528 27.9328 6 27.5385 6 26.9924C6 26.4464 6.2528 26.052 6.7584 25.8093L9.67064 24.4745L17.9827 28.2969C19.3377 28.9036 20.6826 28.9036 22.0173 28.2969Z" fill="black" fill-opacity="0.5"/>
</svg>
