<svg width="40" height="40" viewBox="0 0 40 40" fill="none" xmlns="http://www.w3.org/2000/svg">
<path fill-rule="evenodd" clip-rule="evenodd" d="M22.5469 8.00591C22.5469 7.45036 22.0965 7 21.541 7V7C21.3009 7 21.0687 7.08589 20.8864 7.24215L7.77315 18.4815C6.84188 19.2796 6.84188 20.7204 7.77315 21.5185L20.8864 32.7578C21.0687 32.9141 21.3009 33 21.541 33V33C22.0965 33 22.5469 32.5496 22.5469 31.9941V8.00591Z" fill="white" fill-opacity="0.5"/>
<path d="M29.2724 7H32.3633C33.4679 7 34.3633 7.89543 34.3633 9V31C34.3633 32.1046 33.4679 33 32.3633 33H29.2724C28.1678 33 27.2724 32.1046 27.2724 31V9C27.2724 7.89543 28.1678 7 29.2724 7Z" fill="white" fill-opacity="0.5"/>
</svg>
