<svg width="40" height="40" viewBox="0 0 40 40" fill="none" xmlns="http://www.w3.org/2000/svg">
<path d="M18.7107 6.27302C19.5804 5.90899 20.4399 5.90899 21.2893 6.27302L33.2416 11.7942C33.7472 12.0368 34 12.4413 34 13.0076C34 13.5739 33.7472 13.9783 33.2416 14.221L21.2893 19.7421C20.4399 20.1062 19.5804 20.1062 18.7107 19.7421L6.7584 14.221C6.2528 13.9783 6 13.5739 6 13.0076C6 12.4413 6.2528 12.0368 6.7584 11.7942L18.7107 6.27302Z" fill="white" fill-opacity="0.7"/>
<path d="M30.3294 17.5L33.2416 18.8348C33.7472 19.0774 34 19.4617 34 19.9875C34 20.5538 33.7472 20.9583 33.2416 21.201L21.2893 26.7221C20.4399 27.1266 19.5804 27.1266 18.7107 26.7221L6.7584 21.201C6.2528 20.9583 6 20.5538 6 19.9875C6 19.4617 6.2528 19.0774 6.7584 18.8348L9.67064 17.5L17.9827 21.3223C19.3377 21.929 20.6826 21.929 22.0173 21.3223L30.3294 17.5ZM22.0173 28.2996L30.3294 24.4772L33.2416 25.812C33.7472 26.0547 34 26.4491 34 26.9951C34 27.5412 33.7472 27.9355 33.2416 28.1782L21.2893 33.6993C20.4399 34.1038 19.5804 34.1038 18.7107 33.6993L6.7584 28.1782C6.2528 27.9355 6 27.5412 6 26.9951C6 26.4491 6.2528 26.0547 6.7584 25.812L9.67064 24.4772L17.9827 28.2996C19.3377 28.9063 20.6826 28.9063 22.0173 28.2996Z" fill="white" fill-opacity="0.2"/>
</svg>
