<svg width="40" height="40" viewBox="0 0 40 40" fill="none" xmlns="http://www.w3.org/2000/svg">
<path d="M21.3404 6.06731V6.06731C21.3404 6.03129 21.3716 6.00317 21.4075 6.00698C23.5842 6.23853 25.5848 6.93172 27.4092 8.08655C29.2523 9.23078 30.747 10.7228 31.8933 12.5625C33.0622 14.4023 33.7365 16.4215 33.9163 18.6202C34.186 21.1106 33.8039 23.4888 32.77 25.7548C31.736 27.9984 30.2075 29.8606 28.1846 31.3414C26.4583 32.5859 24.5437 33.3974 22.4408 33.776C21.8562 33.8812 21.3404 33.4151 21.3404 32.8211V31.9898C21.3404 31.4849 21.718 31.0641 22.2131 30.9655C24.3832 30.5333 26.2726 29.5144 27.8812 27.9087C29.7018 26.0914 30.7919 23.9151 31.1516 21.3798C31.3763 19.3606 31.0954 17.4311 30.3087 15.5914C29.5445 13.7516 28.3644 12.2372 26.7686 11.0481C25.4033 10.0116 23.8817 9.31991 22.2038 8.97311C21.7129 8.87165 21.3404 8.4525 21.3404 7.95121V6.06731ZM11.965 31.5223C11.4704 31.177 11.4453 30.469 11.8832 30.0541L12.4317 29.5344C12.7865 29.1983 13.3299 29.1719 13.7388 29.4396C14.9704 30.2462 16.295 30.7974 17.7126 31.0933C18.2034 31.1958 18.5758 31.6149 18.5758 32.1162V32.882C18.5758 33.4783 18.0562 33.945 17.4701 33.8352C15.4725 33.461 13.6374 32.69 11.965 31.5223ZM13.7708 10.6548C13.3469 10.9387 12.7754 10.9075 12.4174 10.5441L11.8207 9.93841C11.4099 9.52137 11.4418 8.83901 11.9192 8.50019C13.584 7.31865 15.4398 6.55522 17.4865 6.20992C18.0676 6.11187 18.5758 6.57669 18.5758 7.16606V8.00649C18.5758 8.51294 18.1959 8.93449 17.699 9.03246C16.2762 9.31297 14.9668 9.85377 13.7708 10.6548ZM10.4474 12.4818C10.7972 12.8369 10.8278 13.3929 10.5546 13.8098C9.76596 15.0131 9.21958 16.3315 8.91543 17.7651C8.81204 18.2524 8.39438 18.6202 7.89624 18.6202H7.09913C6.50962 18.6202 6.04474 18.1118 6.14325 17.5306C6.48851 15.4936 7.25026 13.6461 8.4285 11.9882C8.77069 11.5067 9.4609 11.48 9.87539 11.9009L10.4474 12.4818ZM7.93722 21.3798C8.44669 21.3798 8.8697 21.7642 8.96583 22.2645C9.23484 23.6646 9.76601 24.9736 10.5593 26.1917C10.8304 26.6079 10.7988 27.1616 10.4502 27.5155L9.88331 28.0911C9.46597 28.5149 8.77028 28.4844 8.42905 27.9972C7.25371 26.3193 6.49272 24.4771 6.14609 22.4707C6.04563 21.8892 6.51068 21.3798 7.10079 21.3798H7.93722ZM18.7243 25.1C18.0648 25.5924 17.126 25.1217 17.126 24.2987V15.7078C17.126 14.8835 18.0685 14.4142 18.7278 14.9088C21.0719 16.6672 22.8123 17.9702 23.9491 18.8177C24.609 19.3096 24.6161 20.701 23.9566 21.1934L18.7243 25.1Z" fill="black" fill-opacity="0.5"/>
<path d="M12.2598 29.3525C12.7059 28.93 13.3789 28.9049 13.876 29.2305C15.0818 30.0201 16.3772 30.5592 17.7637 30.8486C18.3592 30.9729 18.8262 31.4856 18.8262 32.1162V32.8818C18.8262 33.6213 18.1766 34.2221 17.4238 34.0811C15.3914 33.7003 13.5235 32.9153 11.8223 31.7275C11.1871 31.2841 11.1683 30.3876 11.7109 29.873L12.2598 29.3525ZM21.4336 5.75879C23.6472 5.99426 25.6843 6.69911 27.541 7.87402C29.4161 9.03813 30.938 10.5571 32.1045 12.4287L32.3213 12.7822C33.3777 14.5593 33.9917 16.4974 34.1641 18.5938H34.165C34.4395 21.1284 34.0497 23.5514 32.9971 25.8584V25.8594C31.945 28.1421 30.3887 30.0375 28.332 31.543L28.3311 31.5439C26.5743 32.8103 24.6248 33.6373 22.4854 34.0225C21.7349 34.1575 21.0909 33.5579 21.0908 32.8213V31.9902C21.0908 31.3552 21.5634 30.8405 22.1641 30.7207C24.2844 30.2984 26.1294 29.3032 27.7041 27.7314C29.4865 25.9523 30.5523 23.826 30.9043 21.3447C31.1228 19.3704 30.8476 17.4866 30.0791 15.6895L30.0781 15.6875C29.3312 13.8893 28.1788 12.4112 26.6191 11.249L26.6172 11.2471C25.2816 10.2332 23.7946 9.55701 22.1533 9.21777C21.5571 9.09455 21.0908 8.58177 21.0908 7.95117V6.06738C21.0908 5.88322 21.2499 5.7394 21.4336 5.75879ZM7.9375 21.1299C8.57857 21.13 9.09451 21.6118 9.21094 22.2178C9.47374 23.5853 9.99262 24.8643 10.7686 26.0557C11.0976 26.561 11.0663 27.2453 10.6279 27.6904L10.0615 28.2666C9.54406 28.792 8.66303 28.7664 8.22461 28.1406C7.02834 26.4328 6.25238 24.5564 5.89941 22.5137C5.77031 21.7664 6.369 21.13 7.10059 21.1299H7.9375ZM16.876 15.708C16.876 14.6769 18.0545 14.0912 18.8779 14.709C21.2218 16.4674 22.9622 17.77 24.0986 18.6172C24.5148 18.9274 24.6952 19.4891 24.6973 20.0039C24.6993 20.5186 24.5233 21.0821 24.1064 21.3936L18.874 25.3008C18.0497 25.9161 16.8761 25.3275 16.876 24.2988V15.708ZM8.22461 11.8438C8.66482 11.2243 9.53993 11.2039 10.0537 11.7256L10.626 12.3066C11.0656 12.7534 11.0952 13.4415 10.7637 13.9473C9.9925 15.1241 9.45797 16.4137 9.16016 17.8174C9.03434 18.4096 8.52272 18.87 7.89648 18.8701H7.09961C6.36869 18.8701 5.77026 18.2356 5.89648 17.4893C6.24791 15.4159 7.02433 13.5328 8.22461 11.8438ZM17.4453 5.96387C18.1915 5.83818 18.8261 6.43521 18.8262 7.16602V8.00684C18.826 8.64397 18.3494 9.15858 17.7471 9.27734C16.3567 9.5515 15.0784 10.0799 13.9102 10.8623C13.3967 11.2062 12.6898 11.177 12.2393 10.7197L11.6426 10.1143C11.1333 9.59726 11.1605 8.73162 11.7744 8.2959C13.4704 7.09223 15.3622 6.31532 17.4453 5.96387Z" stroke="black" stroke-opacity="0.5" stroke-width="0.5"/>
</svg>
