<svg width="100" height="100" viewBox="0 0 100 100" fill="none" xmlns="http://www.w3.org/2000/svg">
<path d="M70.5146 20.0127C75.7983 20.2805 80 24.6498 80 30V70L79.9873 70.5146C79.7281 75.6279 75.6279 79.7281 70.5146 79.9873L70 80H30C24.6498 80 20.2805 75.7983 20.0127 70.5146L20 70V30C20 24.4771 24.4771 20 30 20H70L70.5146 20.0127ZM30 28C28.8954 28 28 28.8954 28 30V70C28 71.1046 28.8954 72 30 72H44C45.1046 72 46 71.1046 46 70V30C46 28.8954 45.1046 28 44 28H30ZM54 70C54 71.1046 54.8954 72 56 72H70C71.1046 72 72 71.1046 72 70V30C72 28.8954 71.1046 28 70 28H56C54.8954 28 54 28.8954 54 30V70Z" fill="black" fill-opacity="0.6"/>
</svg>
