<svg width="100" height="100" viewBox="0 0 100 100" fill="none" xmlns="http://www.w3.org/2000/svg">
<path d="M50 36.72C53.6267 36.72 56.7467 38.0267 59.36 40.64C61.9733 43.2533 63.28 46.4267 63.28 50.16C63.28 53.8933 61.9733 57.0133 59.36 59.52C56.7467 62.0267 53.6533 63.3067 50.08 63.36C46.5067 63.4133 43.36 62.08 40.64 59.36C37.92 56.64 36.5867 53.4933 36.64 49.92C36.6933 46.3467 37.9733 43.2533 40.48 40.64C42.9867 38.0267 46.16 36.72 50 36.72ZM24.72 60C25.8246 60 26.72 60.8954 26.72 62V71.28C26.72 72.3846 27.6154 73.28 28.72 73.28H38C39.1046 73.28 40 74.1754 40 75.28V78C40 79.1046 39.1046 80 38 80H26.72C24.8533 80 23.2533 79.3333 21.92 78C20.64 76.72 20 75.1467 20 73.28V62C20 60.8954 20.8954 60 22 60H24.72ZM28.72 26.72C27.6154 26.72 26.72 27.6154 26.72 28.72V38C26.72 39.1046 25.8246 40 24.72 40H22C20.8954 40 20 39.1046 20 38V26.72C20 24.8533 20.64 23.28 21.92 22C23.2533 20.6667 24.8533 20 26.72 20H38C39.1046 20 40 20.8954 40 22V24.72C40 25.8246 39.1046 26.72 38 26.72H28.72ZM73.28 20C75.1467 20 76.72 20.6667 78 22C79.3333 23.28 80 24.8533 80 26.72V38C80 39.1046 79.1046 40 78 40H75.28C74.1754 40 73.28 39.1046 73.28 38V28.72C73.28 27.6154 72.3846 26.72 71.28 26.72H62C60.8954 26.72 60 25.8246 60 24.72V22C60 20.8954 60.8954 20 62 20H73.28ZM71.28 73.28C72.3846 73.28 73.28 72.3846 73.28 71.28V62C73.28 60.8954 74.1754 60 75.28 60H78C79.1046 60 80 60.8954 80 62V73.28C80 75.1467 79.3333 76.72 78 78C76.72 79.3333 75.1467 80 73.28 80H62C60.8954 80 60 79.1046 60 78V75.28C60 74.1754 60.8954 73.28 62 73.28H71.28Z" fill="black" fill-opacity="0.6"/>
</svg>
