<svg width="100" height="100" viewBox="0 0 100 100" fill="none" xmlns="http://www.w3.org/2000/svg">
<path d="M62 47.1771C62.4538 47.1771 62.8721 47.3284 63.2075 47.5832C63.6822 47.9438 63.4284 48.6123 62.915 48.9154L62.8916 48.9291C60.7901 50.1888 59.1109 51.9134 57.885 54.041C57.8849 54.0412 57.8846 54.0414 57.8843 54.0414C57.884 54.0414 57.8837 54.0415 57.8835 54.0418C56.6266 56.1998 56 58.5698 56 61.0736C56.0001 63.6162 56.7145 66.2679 57.8779 68.9427L57.9072 69.0072C58.1295 69.4948 58.3688 69.9897 58.6241 70.4922C58.9871 71.2066 58.9227 72.0749 58.3884 72.6721C56.8521 74.3891 55.057 75.8482 53 77.0463C49.6188 79.0156 45.952 80.0004 42 80.0004C38.048 80.0004 34.3812 79.0156 31 77.0463C27.6188 75.0769 24.9399 72.4072 22.9639 69.0375C20.9879 65.6677 20 62.0132 20 58.0746V49.1771C20 48.0726 20.8955 47.1771 22 47.1771H62ZM37.0752 20.3822C38.2462 20.1193 39.2998 21.058 39.2998 22.2582V39.6635C39.2995 40.7677 38.404 41.6632 37.2998 41.6635H22C20.8954 41.6635 19.99 40.7657 20.0869 39.6654C20.3438 36.7501 21.1714 34.024 22.5693 31.4877C24.2819 28.3369 26.5873 25.7546 29.4854 23.7416C31.8097 22.1166 34.3397 20.9965 37.0752 20.3822ZM44.7002 22.2582C44.7002 21.0579 45.7539 20.1194 46.9248 20.3832C49.652 20.9976 52.1602 22.1171 54.4492 23.7416C57.3912 25.7546 59.7181 28.3369 61.4307 31.4877C62.8286 34.024 63.6562 36.7501 63.9131 39.6654C64.01 40.7657 63.1046 41.6635 62 41.6635H46.7002C45.596 41.6632 44.7005 40.7677 44.7002 39.6635V22.2582Z" fill="white" fill-opacity="0.6"/>
<path d="M70 64.768C70.9851 64.768 71.8213 64.4194 72.5086 63.7223C73.2188 63.002 73.5739 62.1422 73.5739 61.143C73.5739 60.1438 73.2188 59.2956 72.5086 58.5985C71.8213 57.8782 70.9851 57.518 70 57.518C69.0149 57.518 68.1672 57.8782 67.457 58.5985C66.7698 59.2956 66.4261 60.1438 66.4261 61.143C66.4261 62.1422 66.7698 63.002 67.457 63.7223C68.1672 64.4194 69.0149 64.768 70 64.768ZM70 50.9999C71.8328 50.9999 73.5052 51.4531 75.0172 52.3593C76.5521 53.2656 77.7663 54.4971 78.6598 56.054C79.5533 57.5877 80 59.2608 80 61.0733C80 62.8858 79.4845 64.9771 78.4536 67.3473C77.583 69.2063 76.4376 71.2511 75.0172 73.4819C73.9633 75.0156 72.8064 76.5725 71.5464 78.1526C70.747 79.1076 69.253 79.1076 68.4536 78.1526C67.2165 76.5725 66.0596 75.0156 64.9828 73.4819C63.5395 71.2511 62.394 69.2063 61.5464 67.3473C60.5155 64.9771 60 62.8858 60 61.0733C60 59.2608 60.4467 57.5877 61.3402 56.054C62.2337 54.4971 63.4364 53.2656 64.9485 52.3593C66.4834 51.4531 68.1672 50.9999 70 50.9999Z" fill="white" fill-opacity="0.6"/>
</svg>
