<svg width="100" height="100" viewBox="0 0 100 100" fill="none" xmlns="http://www.w3.org/2000/svg">
<path d="M45.9423 25.9135C44.8377 25.9135 43.9423 26.8089 43.9423 27.9135V36.0288C43.9423 37.1334 44.8377 38.0288 45.9423 38.0288H54.0577C55.1623 38.0288 56.0577 37.1334 56.0577 36.0288V27.9135C56.0577 26.8089 55.1623 25.9135 54.0577 25.9135H45.9423ZM63.9712 25.9135C62.8666 25.9135 61.9712 26.8089 61.9712 27.9135V36.0288C61.9712 37.1334 62.8666 38.0288 63.9712 38.0288H72.0865C73.1911 38.0288 74.0865 37.1334 74.0865 36.0288V27.9135C74.0865 26.8089 73.1911 25.9135 72.0865 25.9135H63.9712ZM63.9712 43.9423C62.8666 43.9423 61.9712 44.8377 61.9712 45.9423V54.0577C61.9712 55.1623 62.8666 56.0577 63.9712 56.0577H72.0865C73.1911 56.0577 74.0865 55.1623 74.0865 54.0577V45.9423C74.0865 44.8377 73.1911 43.9423 72.0865 43.9423H63.9712ZM63.9712 61.9712C62.8666 61.9712 61.9712 62.8666 61.9712 63.9712V72.0865C61.9712 73.1911 62.8666 74.0865 63.9712 74.0865H72.0865C73.1911 74.0865 74.0865 73.1911 74.0865 72.0865V63.9712C74.0865 62.8666 73.1911 61.9712 72.0865 61.9712H63.9712ZM54.0577 74.0865C55.1623 74.0865 56.0577 73.1911 56.0577 72.0865V63.9712C56.0577 62.8666 55.1623 61.9712 54.0577 61.9712H45.9423C44.8377 61.9712 43.9423 62.8666 43.9423 63.9712V72.0865C43.9423 73.1911 44.8377 74.0865 45.9423 74.0865H54.0577ZM36.0288 74.0865C37.1334 74.0865 38.0288 73.1911 38.0288 72.0865V63.9712C38.0288 62.8666 37.1334 61.9712 36.0288 61.9712H27.9135C26.8089 61.9712 25.9135 62.8666 25.9135 63.9712V72.0865C25.9135 73.1911 26.8089 74.0865 27.9135 74.0865H36.0288ZM36.0288 56.0577C37.1334 56.0577 38.0288 55.1623 38.0288 54.0577V45.9423C38.0288 44.8377 37.1334 43.9423 36.0288 43.9423H27.9135C26.8089 43.9423 25.9135 44.8377 25.9135 45.9423V54.0577C25.9135 55.1623 26.8089 56.0577 27.9135 56.0577H36.0288ZM36.0288 38.0288C37.1334 38.0288 38.0288 37.1334 38.0288 36.0288V27.9135C38.0288 26.8089 37.1334 25.9135 36.0288 25.9135H27.9135C26.8089 25.9135 25.9135 26.8089 25.9135 27.9135V36.0288C25.9135 37.1334 26.8089 38.0288 27.9135 38.0288H36.0288ZM43.9423 54.0577C43.9423 55.1623 44.8377 56.0577 45.9423 56.0577H54.0577C55.1623 56.0577 56.0577 55.1623 56.0577 54.0577V45.9423C56.0577 44.8377 55.1623 43.9423 54.0577 43.9423H45.9423C44.8377 43.9423 43.9423 44.8377 43.9423 45.9423V54.0577ZM25.9135 20H74.0865C75.6731 20 77.0433 20.601 78.1971 21.8029C79.399 22.9567 80 24.3269 80 25.9135V74.0865C80 75.6731 79.399 77.0433 78.1971 78.1971C77.0433 79.399 75.6731 80 74.0865 80H25.9135C24.3269 80 22.9327 79.399 21.7308 78.1971C20.5769 77.0433 20 75.6731 20 74.0865V25.9135C20 24.3269 20.5769 22.9567 21.7308 21.8029C22.9327 20.601 24.3269 20 25.9135 20Z" fill="black" fill-opacity="0.6"/>
</svg>
