<svg width="100" height="100" viewBox="0 0 100 100" fill="none" xmlns="http://www.w3.org/2000/svg">
<path d="M50 64.9102C52.0958 64.9102 53.8623 65.6587 55.2994 67.1557C56.7964 68.5928 57.5449 70.3593 57.5449 72.4551C57.5449 74.5509 56.7964 76.3473 55.2994 77.8443C53.8623 79.2814 52.0958 80 50 80C47.9042 80 46.1078 79.2814 44.6108 77.8443C43.1737 76.3473 42.4551 74.5509 42.4551 72.4551C42.4551 70.3593 43.1737 68.5928 44.6108 67.1557C46.1078 65.6587 47.9042 64.9102 50 64.9102ZM50 42.4551C52.0958 42.4551 53.8623 43.2036 55.2994 44.7006C56.7964 46.1377 57.5449 47.9042 57.5449 50C57.5449 52.0958 56.7964 53.8922 55.2994 55.3892C53.8623 56.8263 52.0958 57.5449 50 57.5449C47.9042 57.5449 46.1078 56.8263 44.6108 55.3892C43.1737 53.8922 42.4551 52.0958 42.4551 50C42.4551 47.9042 43.1737 46.1377 44.6108 44.7006C46.1078 43.2036 47.9042 42.4551 50 42.4551ZM50 20C52.0958 20 53.8623 20.7485 55.2994 22.2455C56.7964 23.6826 57.5449 25.4491 57.5449 27.5449C57.5449 29.6407 56.7964 31.4371 55.2994 32.9341C53.8623 34.3713 52.0958 35.0898 50 35.0898C47.9042 35.0898 46.1078 34.3713 44.6108 32.9341C43.1737 31.4371 42.4551 29.6407 42.4551 27.5449C42.4551 25.4491 43.1737 23.6826 44.6108 22.2455C46.1078 20.7485 47.9042 20 50 20ZM27.5449 64.9102C29.6407 64.9102 31.4072 65.6587 32.8443 67.1557C34.3413 68.5928 35.0898 70.3593 35.0898 72.4551C35.0898 74.5509 34.3413 76.3473 32.8443 77.8443C31.4072 79.2814 29.6407 80 27.5449 80C25.4491 80 23.6527 79.2814 22.1557 77.8443C20.7186 76.3473 20 74.5509 20 72.4551C20 70.3593 20.7186 68.5928 22.1557 67.1557C23.6527 65.6587 25.4491 64.9102 27.5449 64.9102ZM27.5449 42.4551C29.6407 42.4551 31.4072 43.2036 32.8443 44.7006C34.3413 46.1377 35.0898 47.9042 35.0898 50C35.0898 52.0958 34.3413 53.8922 32.8443 55.3892C31.4072 56.8263 29.6407 57.5449 27.5449 57.5449C25.4491 57.5449 23.6527 56.8263 22.1557 55.3892C20.7186 53.8922 20 52.0958 20 50C20 47.9042 20.7186 46.1377 22.1557 44.7006C23.6527 43.2036 25.4491 42.4551 27.5449 42.4551ZM27.5449 20C29.6407 20 31.4072 20.7485 32.8443 22.2455C34.3413 23.6826 35.0898 25.4491 35.0898 27.5449C35.0898 29.6407 34.3413 31.4371 32.8443 32.9341C31.4072 34.3713 29.6407 35.0898 27.5449 35.0898C25.4491 35.0898 23.6527 34.3713 22.1557 32.9341C20.7186 31.4371 20 29.6407 20 27.5449C20 25.4491 20.7186 23.6826 22.1557 22.2455C23.6527 20.7485 25.4491 20 27.5449 20ZM72.4551 64.9102C74.5509 64.9102 76.3174 65.6587 77.7545 67.1557C79.2515 68.5928 80 70.3593 80 72.4551C80 74.5509 79.2515 76.3473 77.7545 77.8443C76.3174 79.2814 74.5509 80 72.4551 80C70.3593 80 68.5629 79.2814 67.0659 77.8443C65.6287 76.3473 64.9102 74.5509 64.9102 72.4551C64.9102 70.3593 65.6287 68.5928 67.0659 67.1557C68.5629 65.6587 70.3593 64.9102 72.4551 64.9102ZM72.4551 42.4551C74.5509 42.4551 76.3174 43.2036 77.7545 44.7006C79.2515 46.1377 80 47.9042 80 50C80 52.0958 79.2515 53.8922 77.7545 55.3892C76.3174 56.8263 74.5509 57.5449 72.4551 57.5449C70.3593 57.5449 68.5629 56.8263 67.0659 55.3892C65.6287 53.8922 64.9102 52.0958 64.9102 50C64.9102 47.9042 65.6287 46.1377 67.0659 44.7006C68.5629 43.2036 70.3593 42.4551 72.4551 42.4551ZM72.4551 20C74.5509 20 76.3174 20.7485 77.7545 22.2455C79.2515 23.6826 80 25.4491 80 27.5449C80 29.6407 79.2515 31.4371 77.7545 32.9341C76.3174 34.3713 74.5509 35.0898 72.4551 35.0898C70.3593 35.0898 68.5629 34.3713 67.0659 32.9341C65.6287 31.4371 64.9102 29.6407 64.9102 27.5449C64.9102 25.4491 65.6287 23.6826 67.0659 22.2455C68.5629 20.7485 70.3593 20 72.4551 20Z" fill="black" fill-opacity="0.6"/>
</svg>
