<svg width="100" height="100" viewBox="0 0 100 100" fill="none" xmlns="http://www.w3.org/2000/svg">
<path d="M38.8632 37.2277C38.8632 38.4158 38.4522 39.4307 37.6301 40.2723C36.808 41.1139 35.7547 41.5346 34.4701 41.5346C33.237 41.5346 32.1837 41.1139 31.3102 40.2723C30.4367 39.4307 30 38.4158 30 37.2277C30 32.4752 31.7469 28.4158 35.2408 25.0495C38.7348 21.6832 42.9223 20 47.8035 20H52.1965C57.0777 20 61.2653 21.6832 64.7592 25.0495C68.2531 28.4158 70 32.4752 70 37.2277V37.6733C70 40.5445 69.2807 43.2673 67.842 45.8416C66.4033 48.4158 64.3995 50.495 61.8304 52.0792L55.973 55.7921C54.9454 56.3861 54.4316 57.2772 54.4316 58.4653V58.6139C54.4316 59.802 53.9949 60.7921 53.1214 61.5842C52.2479 62.3762 51.1946 62.8218 49.9615 62.9208C48.7283 62.8218 47.7007 62.3762 46.8786 61.5842C46.0565 60.7921 45.6198 59.802 45.5684 58.6139V58.4653C45.517 56.4851 46.0052 54.604 47.0328 52.8218C48.0604 51.0396 49.4477 49.604 51.1946 48.5148L57.052 44.9505C59.7752 43.2673 61.1368 40.8416 61.1368 37.6733V37.2277C61.1368 34.8515 60.2633 32.8218 58.5164 31.1386C56.7694 29.4554 54.6628 28.6139 52.1965 28.6139H47.8035C45.3372 28.6139 43.2306 29.4554 41.4836 31.1386C39.7367 32.8218 38.8632 34.8515 38.8632 37.2277ZM53.9692 78.4406C52.8388 79.4802 51.5029 80 49.9615 80C48.4201 80 47.1098 79.4802 46.0308 78.4406C44.9518 77.401 44.4123 76.1386 44.4123 74.6535C44.4123 73.1683 44.9518 71.9059 46.0308 70.8663C47.1098 69.8267 48.4201 69.3069 49.9615 69.3069C51.5029 69.3069 52.8388 69.8267 53.9692 70.8663C55.0996 71.9059 55.6391 73.1683 55.5877 74.6535C55.6391 76.1386 55.0996 77.401 53.9692 78.4406Z" fill="white"/>
</svg>
