<svg width="100" height="100" viewBox="0 0 100 100" fill="none" xmlns="http://www.w3.org/2000/svg">
<path d="M39.315 20C40.3555 20.0433 41.2442 20.4117 41.9812 21.1051C42.7182 21.7985 43.0867 22.6652 43.0867 23.7053V35.0162H35.5433V23.7053C35.5433 22.6652 35.9118 21.7985 36.6488 21.1051C37.3858 20.4117 38.2746 20.0433 39.315 20ZM61.815 20C62.8555 20.0433 63.7442 20.4117 64.4812 21.1051C65.2182 21.7985 65.5867 22.6652 65.5867 23.7053V35.0162H58.0433V23.7053C58.0433 22.6652 58.3902 21.7985 59.0838 21.1051C59.7775 20.4117 60.6879 20.0433 61.815 20ZM31.7717 38.7215H69.3584C70.3988 38.7215 71.2659 39.0899 71.9595 39.8266C72.6532 40.5633 73 41.4517 73 42.4918C73 43.5319 72.6532 44.4203 71.9595 45.157C71.2659 45.8938 70.3988 46.2621 69.3584 46.2621V49.9674C69.3584 54.4744 67.9277 58.4614 65.0665 61.9284C62.2052 65.3953 58.6069 67.5405 54.2717 68.3639V76.2297C54.2717 77.2698 53.9032 78.1582 53.1662 78.8949C52.4292 79.6316 51.5405 80 50.5 80C49.4595 80 48.5708 79.6316 47.8338 78.8949C47.0968 78.1582 46.7283 77.2698 46.7283 76.2297V68.3639C42.3931 67.5405 38.8165 65.3953 35.9985 61.9284C33.1806 58.4614 31.7717 54.4744 31.7717 49.9674V46.2621C30.7312 46.2621 29.8425 45.8938 29.1055 45.157C28.3685 44.4203 28 43.5319 28 42.4918C28 41.4517 28.3685 40.5633 29.1055 39.8266C29.8425 39.0899 30.7312 38.7215 31.7717 38.7215Z" fill="white" fill-opacity="0.6"/>
</svg>
